<svg viewBox="0 0 880.5 400" xmlns="http://www.w3.org/2000/svg"><g><g><g><g><g><line x1="78.03125" y1="362.25048547009527" x2="73.03125" y2="362.25048547009527" style="visibility: inherit;" fill="rgb(0, 0, 0)" stroke="rgb(204, 204, 204)" stroke-width="1px"></line><line x1="78.03125" y1="327.33502223751384" x2="73.03125" y2="327.33502223751384" style="visibility: inherit;" fill="rgb(0, 0, 0)" stroke="rgb(204, 204, 204)" stroke-width="1px"></line><line x1="78.03125" y1="292.41955900493235" x2="73.03125" y2="292.41955900493235" style="visibility: inherit;" fill="rgb(0, 0, 0)" stroke="rgb(204, 204, 204)" stroke-width="1px"></line><line x1="78.03125" y1="257.5040957723509" x2="73.03125" y2="257.5040957723509" style="visibility: inherit;" fill="rgb(0, 0, 0)" stroke="rgb(204, 204, 204)" stroke-width="1px"></line><line x1="78.03125" y1="222.58863253976943" x2="73.03125" y2="222.58863253976943" style="visibility: inherit;" fill="rgb(0, 0, 0)" stroke="rgb(204, 204, 204)" stroke-width="1px"></line><line x1="78.03125" y1="187.673169307188" x2="73.03125" y2="187.673169307188" style="visibility: inherit;" fill="rgb(0, 0, 0)" stroke="rgb(204, 204, 204)" stroke-width="1px"></line><line x1="78.03125" y1="152.75770607460655" x2="73.03125" y2="152.75770607460655" style="visibility: inherit;" fill="rgb(0, 0, 0)" stroke="rgb(204, 204, 204)" stroke-width="1px"></line><line x1="78.03125" y1="117.84224284202509" x2="73.03125" y2="117.84224284202509" style="visibility: inherit;" fill="rgb(0, 0, 0)" stroke="rgb(204, 204, 204)" stroke-width="1px"></line><line x1="78.03125" y1="82.92677960944366" x2="73.03125" y2="82.92677960944366" style="visibility: inherit;" fill="rgb(0, 0, 0)" stroke="rgb(204, 204, 204)" stroke-width="1px"></line><line x1="78.03125" y1="48.01131637686217" x2="73.03125" y2="48.01131637686217" style="visibility: inherit;" fill="rgb(0, 0, 0)" stroke="rgb(204, 204, 204)" stroke-width="1px"></line><line x1="78.03125" y1="13.095853144280682" x2="73.03125" y2="13.095853144280682" style="visibility: inherit;" fill="rgb(0, 0, 0)" stroke="rgb(204, 204, 204)" stroke-width="1px"></line></g><g transform="translate(68.03125, 0)"><text x="0" y="362.25048547009527" dx="0em" dy="0.3em" style="text-anchor: end; visibility: inherit; font-family: &quot;Helvetica Neue&quot;, sans-serif; font-size: 12px; font-weight: 200;" fill="rgb(50, 49, 63)" stroke="none" stroke-width="1px">0.00</text><text x="0" y="327.33502223751384" dx="0em" dy="0.3em" style="text-anchor: end; visibility: inherit; font-family: &quot;Helvetica Neue&quot;, sans-serif; font-size: 12px; font-weight: 200;" fill="rgb(50, 49, 63)" stroke="none" stroke-width="1px">100</text><text x="0" y="292.41955900493235" dx="0em" dy="0.3em" style="text-anchor: end; visibility: inherit; font-family: &quot;Helvetica Neue&quot;, sans-serif; font-size: 12px; font-weight: 200;" fill="rgb(50, 49, 63)" stroke="none" stroke-width="1px">200</text><text x="0" y="257.5040957723509" dx="0em" dy="0.3em" style="text-anchor: end; visibility: inherit; font-family: &quot;Helvetica Neue&quot;, sans-serif; font-size: 12px; font-weight: 200;" fill="rgb(50, 49, 63)" stroke="none" stroke-width="1px">300</text><text x="0" y="222.58863253976943" dx="0em" dy="0.3em" style="text-anchor: end; visibility: inherit; font-family: &quot;Helvetica Neue&quot;, sans-serif; font-size: 12px; font-weight: 200;" fill="rgb(50, 49, 63)" stroke="none" stroke-width="1px">400</text><text x="0" y="187.673169307188" dx="0em" dy="0.3em" style="text-anchor: end; visibility: inherit; font-family: &quot;Helvetica Neue&quot;, sans-serif; font-size: 12px; font-weight: 200;" fill="rgb(50, 49, 63)" stroke="none" stroke-width="1px">500</text><text x="0" y="152.75770607460655" dx="0em" dy="0.3em" style="text-anchor: end; visibility: inherit; font-family: &quot;Helvetica Neue&quot;, sans-serif; font-size: 12px; font-weight: 200;" fill="rgb(50, 49, 63)" stroke="none" stroke-width="1px">600</text><text x="0" y="117.84224284202509" dx="0em" dy="0.3em" style="text-anchor: end; visibility: inherit; font-family: &quot;Helvetica Neue&quot;, sans-serif; font-size: 12px; font-weight: 200;" fill="rgb(50, 49, 63)" stroke="none" stroke-width="1px">700</text><text x="0" y="82.92677960944366" dx="0em" dy="0.3em" style="text-anchor: end; visibility: inherit; font-family: &quot;Helvetica Neue&quot;, sans-serif; font-size: 12px; font-weight: 200;" fill="rgb(50, 49, 63)" stroke="none" stroke-width="1px">800</text><text x="0" y="48.01131637686217" dx="0em" dy="0.3em" style="text-anchor: end; visibility: inherit; font-family: &quot;Helvetica Neue&quot;, sans-serif; font-size: 12px; font-weight: 200;" fill="rgb(50, 49, 63)" stroke="none" stroke-width="1px">900</text><text x="0" y="13.095853144280682" dx="0em" dy="0.3em" style="text-anchor: end; visibility: inherit; font-family: &quot;Helvetica Neue&quot;, sans-serif; font-size: 12px; font-weight: 200;" fill="rgb(50, 49, 63)" stroke="none" stroke-width="1px">1.00e+3</text></g><line x1="78.03125" y1="0" x2="78.03125" y2="377.828125" fill="rgb(0, 0, 0)" stroke="rgb(204, 204, 204)" stroke-width="1px"></line></g></g><g transform="translate(78, 0)" clip-path="url(#clip_0)"><clipPath id="clip_0"><rect width="802" height="377"></rect></clipPath><g><g><g><line x1="14.454367016871856" y1="0" x2="14.454367016871856" y2="377.828125" fill="rgb(0, 0, 0)" stroke="rgb(60, 60, 60)" stroke-width="1px" opacity="0.25"></line><line x1="73.65086455905856" y1="0" x2="73.65086455905856" y2="377.828125" fill="rgb(0, 0, 0)" stroke="rgb(60, 60, 60)" stroke-width="1px" opacity="0.25"></line><line x1="132.84736210124527" y1="0" x2="132.84736210124527" y2="377.828125" fill="rgb(0, 0, 0)" stroke="rgb(60, 60, 60)" stroke-width="1px" opacity="0.25"></line><line x1="192.04385964343197" y1="0" x2="192.04385964343197" y2="377.828125" fill="rgb(0, 0, 0)" stroke="rgb(60, 60, 60)" stroke-width="1px" opacity="0.25"></line><line x1="251.24035718561868" y1="0" x2="251.24035718561868" y2="377.828125" fill="rgb(0, 0, 0)" stroke="rgb(60, 60, 60)" stroke-width="1px" opacity="0.25"></line><line x1="310.4368547278054" y1="0" x2="310.4368547278054" y2="377.828125" fill="rgb(0, 0, 0)" stroke="rgb(60, 60, 60)" stroke-width="1px" opacity="0.25"></line><line x1="369.63335226999203" y1="0" x2="369.63335226999203" y2="377.828125" fill="rgb(0, 0, 0)" stroke="rgb(60, 60, 60)" stroke-width="1px" opacity="0.25"></line><line x1="428.82984981217874" y1="0" x2="428.82984981217874" y2="377.828125" fill="rgb(0, 0, 0)" stroke="rgb(60, 60, 60)" stroke-width="1px" opacity="0.25"></line><line x1="488.0263473543655" y1="0" x2="488.0263473543655" y2="377.828125" fill="rgb(0, 0, 0)" stroke="rgb(60, 60, 60)" stroke-width="1px" opacity="0.25"></line><line x1="547.2228448965521" y1="0" x2="547.2228448965521" y2="377.828125" fill="rgb(0, 0, 0)" stroke="rgb(60, 60, 60)" stroke-width="1px" opacity="0.25"></line><line x1="606.4193424387388" y1="0" x2="606.4193424387388" y2="377.828125" fill="rgb(0, 0, 0)" stroke="rgb(60, 60, 60)" stroke-width="1px" opacity="0.25"></line><line x1="665.6158399809256" y1="0" x2="665.6158399809256" y2="377.828125" fill="rgb(0, 0, 0)" stroke="rgb(60, 60, 60)" stroke-width="1px" opacity="0.25"></line><line x1="724.8123375231123" y1="0" x2="724.8123375231123" y2="377.828125" fill="rgb(0, 0, 0)" stroke="rgb(60, 60, 60)" stroke-width="1px" opacity="0.25"></line><line x1="784.008835065299" y1="0" x2="784.008835065299" y2="377.828125" fill="rgb(0, 0, 0)" stroke="rgb(60, 60, 60)" stroke-width="1px" opacity="0.25"></line></g><g><line x1="0" y1="362.25048547009527" x2="802.46875" y2="362.25048547009527" fill="rgb(0, 0, 0)" stroke="rgb(60, 60, 60)" stroke-width="1px" opacity="0.25"></line><line x1="0" y1="327.33502223751384" x2="802.46875" y2="327.33502223751384" fill="rgb(0, 0, 0)" stroke="rgb(60, 60, 60)" stroke-width="1px" opacity="0.25"></line><line x1="0" y1="292.41955900493235" x2="802.46875" y2="292.41955900493235" fill="rgb(0, 0, 0)" stroke="rgb(60, 60, 60)" stroke-width="1px" opacity="0.25"></line><line x1="0" y1="257.5040957723509" x2="802.46875" y2="257.5040957723509" fill="rgb(0, 0, 0)" stroke="rgb(60, 60, 60)" stroke-width="1px" opacity="0.25"></line><line x1="0" y1="222.58863253976943" x2="802.46875" y2="222.58863253976943" fill="rgb(0, 0, 0)" stroke="rgb(60, 60, 60)" stroke-width="1px" opacity="0.25"></line><line x1="0" y1="187.673169307188" x2="802.46875" y2="187.673169307188" fill="rgb(0, 0, 0)" stroke="rgb(60, 60, 60)" stroke-width="1px" opacity="0.25"></line><line x1="0" y1="152.75770607460655" x2="802.46875" y2="152.75770607460655" fill="rgb(0, 0, 0)" stroke="rgb(60, 60, 60)" stroke-width="1px" opacity="0.25"></line><line x1="0" y1="117.84224284202509" x2="802.46875" y2="117.84224284202509" fill="rgb(0, 0, 0)" stroke="rgb(60, 60, 60)" stroke-width="1px" opacity="0.25"></line><line x1="0" y1="82.92677960944366" x2="802.46875" y2="82.92677960944366" fill="rgb(0, 0, 0)" stroke="rgb(60, 60, 60)" stroke-width="1px" opacity="0.25"></line><line x1="0" y1="48.01131637686217" x2="802.46875" y2="48.01131637686217" fill="rgb(0, 0, 0)" stroke="rgb(60, 60, 60)" stroke-width="1px" opacity="0.25"></line><line x1="0" y1="13.095853144280682" x2="802.46875" y2="13.095853144280682" fill="rgb(0, 0, 0)" stroke="rgb(60, 60, 60)" stroke-width="1px" opacity="0.25"></line></g></g></g><g><g><line x1="0" y1="362.25048547009527" x2="802.46875" y2="362.25048547009527" fill="rgb(0, 0, 0)" stroke="rgb(153, 153, 153)" stroke-width="1.5px"></line></g></g><g><g><line x1="14.454367016871856" y1="0" x2="14.454367016871856" y2="377.828125" fill="rgb(0, 0, 0)" stroke="rgb(153, 153, 153)" stroke-width="1.5px"></line></g></g><g><g><g><g><g><path stroke="rgb(255, 112, 67)" stroke-width="2px" d="M14.454367016871856,355.6165474559048L15.638296967715592,356.67727038955286L16.822226918559327,357.1501127711406L18.006156869403057,357.2958271787997L19.190086820246794,356.42887747241986L20.374016771090528,356.5325249337503L21.55794672193426,355.85406193172935L22.741876672777995,356.0597168980627L23.925806623621728,356.04818215896603L25.10973657446546,355.9999376501587L26.293666525309195,356.14005517358106L27.477596476152932,356.423263176117L28.661526426996666,356.32022665397693L29.8454563778404,356.349025099846L31.029386328684136,356.15294811851L32.213316279527874,356.29613314375257L33.3972462303716,356.07285631834026L34.58117618121533,356.1847810841829L35.76510613205907,355.8046960061047L36.94903608290281,355.9027060937536L38.13296603374654,356.0123604960947L39.316895984590275,355.4986552649252L40.50082593543401,355.6437625180089L41.684755886277735,355.77645289681857L42.868685837121475,355.8051540226849L44.05261578796521,355.7410757354888L45.23654573880894,355.875806240283L46.420475689652676,355.96617736737096L47.60440564049641,355.81511246810715L48.78833559134015,355.87139973388537L49.97226554218388,355.9880936006805L51.15619549302762,356.14430062224693L52.34012544387135,356.1980680736073L53.524055394715084,356.21825000943903L54.70798534555881,356.13325111792494L55.891915296402544,355.5132398771809L57.07584524724628,355.63232084124456L58.25977519809001,355.75882233822415L59.44370514893375,355.82271142471154L60.627635099777486,355.63641211840707L61.81156505062122,355.73025062107354L62.99549500146495,355.85923458336254L64.1794249523087,355.9816787901651L65.36335490315243,356.07204355506605L66.54728485399616,356.1066458090081L67.7312148048399,356.17765241777175L68.91514475568363,356.19512824425584L70.09907470652736,356.24902436400515L71.28300465737108,356.07941060270133L72.46693460821483,356.1605504110878L73.65086455905856,356.2621812024299L74.8347945099023,356.26398038930415L76.01872446074603,356.3720601832212L77.20265441158976,356.4521384374468L78.3865843624335,356.4940302297393L79.57051431327723,356.56875474540004L80.75444426412096,356.5947287039035L81.9383742149647,356.59697897664427L83.12230416580843,356.6554210524211L84.30623411665216,356.71157259391674L85.49016406749591,356.76554870562484L86.67409401833964,356.6521153707047L87.85802396918338,356.707242649275L89.0419539200271,356.7494216678594L90.22588387087083,356.8116655615291L91.40981382171456,356.8286205540608L92.5937437725583,356.82358132021733L93.77767372340203,356.8718692079539L94.96160367424578,356.74928835758584L96.14553362508951,356.7677520892206L97.32946357593325,356.69140577408535L98.51339352677698,356.75305395355304L99.69732347762071,356.7918553680758L100.88125342846443,356.7983920536157L102.06518337930818,356.76364243000563L103.2491133301519,356.79138926988367L104.43304328099565,356.6757221637066L105.61697323183938,356.6956533920031L106.80090318268311,356.7452131354931L107.98483313352685,356.8032080010638L109.1687630843706,356.8593194162621L110.35269303521432,356.8836785121507L111.53662298605806,356.8873667220176L112.72055293690178,356.930579445671L113.9044828877455,356.9921781421304L115.08841283858925,357.032148708815L116.27234278943298,357.0904952068797L117.45627274027673,357.12746032978947L118.64020269112045,357.1730350914256L119.8241326419642,357.1880322084921L121.00806259280792,357.19287283540757L122.19199254365166,357.22657744084364L123.37592249449538,357.2496159250019L124.55985244533913,357.30081717385553L125.74378239618285,357.3504811751153L126.9277123470266,357.39866092167557L128.11164229787033,357.43585919872663L129.29557224871408,357.4719555637638L130.4795021995578,357.5069872003127L131.66343215040152,357.5315068709229L132.84736210124527,357.5742341631477L134.031292052089,357.5873883996413L135.21522200293273,357.6095841599112L136.39915195377645,357.62173332773386L137.5830819046202,357.65230542600534L138.76701185546392,357.69136856870244L139.95094180630767,357.7199622591044L141.1348717571514,357.7477405459734L142.31880170799514,357.7560915168377L143.50273165883885,357.6804774012838L144.6866616096826,357.6998777540828L145.87059156052635,357.69091272524855L147.0545215113701,357.7284924323219L148.23845146221382,357.7557756236878L149.42238141305754,357.7730663119285L150.60631136390128,357.81752878421304L151.790241314745,357.8331424984988L152.97417126558875,357.83913161382907L154.15810121643247,357.85413541698966L155.34203116727622,357.8778941247056L156.52596111811994,357.89184316725516L157.70989106896369,357.9145552815924L158.8938210198074,357.9092422832963L160.07775097065115,357.91319830219936L161.26168092149487,357.9261602864993L162.44561087233862,357.9387700364552L163.62954082318234,357.95103783796634L164.8134707740261,357.9538892350412L165.9974007248698,357.9475884548021L167.18133067571355,357.94145752406655L168.3652606265573,357.97172123974167L169.54919057740102,357.99212326417614L170.73312052824477,357.9848564781311L171.9170504790885,358.0048818293951L173.10098042993224,358.02437217676396L174.28491038077595,358.052359742608L175.4688403316197,358.07960203146405L176.65277028246342,358.0971176439378L177.83670023330717,358.1051729447708L179.0206301841509,358.0680723179523L180.20456013499464,358.10380808147875L181.38849008583836,358.0937228489636L182.57242003668208,358.11081071076694L183.75634998752582,358.12744818386744L184.94027993836954,358.1436477185271L186.1242098892133,358.16837235483894L187.30813984005704,358.19244783345664L188.49206979090076,358.19801250760014L189.6759997417445,358.1766284217819L190.85992969258825,358.18259102308997L192.04385964343197,358.1973217751353L193.22778959427572,358.202749029883L194.41171954511944,358.2080347700211L195.5956494959632,358.22209223040034L196.7795794468069,358.25359349748413L197.96350939765065,358.2753755892147L199.14743934849437,358.27880012952005L200.3313692993381,358.2910275093822L201.51529925018184,358.31182549190936L202.6992292010256,358.3232013596616L203.88315915186928,358.34316245778876L205.06708910271303,358.36260751935487L206.25101905355677,358.3726782958051L207.43494900440052,358.37362077747383L208.61887895524424,358.39226861839575L209.80280890608796,358.4015745452665L210.9867388569317,358.41064085109224L212.17066880777546,358.41061913394816L213.35459875861918,358.41944952827674L214.53852870946292,358.42805303675624L215.72245866030667,358.4364356401396L216.90638861115036,358.4446031539669L218.0903185619941,358.46140082043695L219.27424851283786,358.4512576742197L220.4581784636816,358.4678764591732L221.6421084145253,358.484069889301L222.82603836536904,358.47336269186644L224.0099683162128,358.4982343244529L225.19389826705654,358.504822839712L226.37782821790023,358.5024216903152L227.56175816874398,358.51771997955234L228.74568811958773,358.5238112085529L229.92961807043147,358.5209325491356L231.1135480212752,358.5357520823086L232.2974779721189,358.5501941251193L233.48140792296266,358.52903545490796L234.66533787380638,358.5348340016775L235.84926782465013,358.5316807481504L237.03319777549387,358.5374100684231L238.21712772633762,358.52539268536134L239.4010576771813,358.5312780835341L240.58498762802506,358.54581099831296L241.7689175788688,358.55117973071805L242.95284752971256,358.5739994073761L244.13677748055625,358.5874482796966L245.3207074314,358.6005561313011L246.50463738224374,358.60454290430323L247.6885673330875,358.6172159699671L248.87249728393118,358.6207821766945L250.05642723477493,358.6242580790767L251.24035718561868,358.64521201682913L252.4242871364624,358.6480723882033L253.60821708730614,358.6420800732117L254.79214703814986,358.6450183393579L255.9760769889936,358.65666008345977L257.16000693983733,358.65923102511215L258.34393689068105,358.6705123408396L259.5278668415248,358.6727344854529L260.71179679236855,358.6836735415306L261.89572674321226,358.66802061402524L263.079656694056,358.6703045080932L264.26358664489976,358.6637609737465L265.4475165957435,358.6749200644416L266.6314465465872,358.68579765990336L267.815376497431,358.69640092265763L268.9993064482747,358.68920516842024L270.1832363991184,358.6821908124609L271.36716634996213,358.6841172433512L272.5510963008059,358.6859951306731L273.73502625164963,358.67030119310044L274.91895620249335,358.67252540606046L276.10288615333707,358.64841179733105L277.28681610418084,358.63366516330893L278.47074605502456,358.63680783553195L279.6546760058683,358.6311131315467L280.838605956712,358.6343192779938L282.0225359075558,358.64620156747065L283.2064658583995,358.64027268993635L284.3903958092432,358.62573751581834L285.57432576008694,358.6378322037153L286.7582557109307,358.6233604021804L287.94218566177443,358.6180059463337L289.12611561261815,358.6302918306704L290.3100455634619,358.6247643701045L291.49397551430565,358.62812750608094L292.67790546514937,358.6139039162975L293.8618354159931,358.63503990276155L295.04576536683686,358.62939487962893L296.2296953176806,358.63264113321236L297.4136252685243,358.63580585202124L298.597555219368,358.64763954940463L299.7814851702118,358.65042812769366L300.9654151210555,358.65314669027174L302.14934507189923,358.64704998205804L303.33327502274295,358.64985288320895L304.5172049735867,358.661331553461L305.7011349244304,358.65503075656807L306.8850648752741,358.6576333477951L308.0689948261179,358.66017063277735L309.2529247769616,358.6713887133936L310.4368547278054,358.6735812858752L311.62078467864904,358.68446254165787L312.8047146294928,358.6863275388819L313.98864458033654,358.6968887119496L315.1725745311803,358.69844241369185L316.356504482024,358.69995715218766L317.54043443286776,358.7101758287882L318.7243643837115,358.7113966894331L319.9082943345552,358.7125869406636L321.0922242853989,358.70500638697746L322.2761542362427,358.6888752037314L323.4600841870864,358.69062911020245L324.6440141379301,358.701079133914L325.8279440887739,358.72000704255356L327.0118740396176,358.72098153366574L328.19580399046134,358.7044530879787L329.37973394130506,358.6970778227774L330.56366389214884,358.6986261060779L331.74759384299256,358.70887409274735L332.93152379383633,358.6839122977672L334.11545374468,358.6770519153329L335.2993836955238,358.67910118953654L336.4833136463675,358.6723615599783L337.6672435972112,358.6832654542479L338.85117354805493,358.6764219511606L340.0351034988987,358.69596064988747L341.2190334497424,358.69753653072166L342.40296340058615,358.67286334618393L343.58689335142986,358.6837534249246L344.77082330227364,358.68563463736007L345.95475325311736,358.6962047134634L347.1386832039611,358.6977743190765L348.32261315480486,358.6818333822132L349.5065431056486,358.66629157782404L350.6904730564923,358.6598741841513L351.874403007336,358.6536174583937L353.0583329581798,358.6562523417418L354.2422629090235,358.64135162860896L355.42619285986723,358.6180892670321L356.61012281071095,358.6303473187293L357.7940527615547,358.6422985269036L358.97798271239844,358.63648209559324L360.16191266324216,358.63081125198374L361.3458426140859,358.6340163251915L362.52977256492966,358.6284073292113L363.7137025157734,358.6142049912346L364.8976324666171,358.6178253090165L366.0815624174608,358.61262153686664L367.2654923683046,358.6075479949849L368.4494223191483,358.59386816411313L369.63335226999203,358.5630643748742L370.8172822208358,358.56796358581306L372.0012121716795,358.55527432985696L373.18514212252325,358.5429025974049L374.36907207336697,358.53957317038265L375.55300202421074,358.54505968958097L376.73693197505446,358.5242112986881L377.9208619258982,358.47768719712855L379.1047918767419,358.45852422679155L380.2887218275857,358.4573052581857L381.4726517784294,358.42992022022315L382.6565817292731,358.41195242889745L383.84051168011683,358.3944341616605L385.0244416309606,358.3773541641418L386.2083715818043,358.3432377264374L387.39230153264805,358.30124298545104L388.57623148349177,358.3039574111219L389.76016143433554,358.262945686649L390.94409138517926,358.26661779861536L392.128021336023,358.25273502808386L393.31195128686676,358.17807941609027L394.4958812377105,357.98305194992486L395.6798111885542,357.7841716269906L396.8637411393979,357.6601161249991L398.0476710902417,357.54789488531367L399.2316010410854,357.4384806563941L400.41553099192913,357.3056099443381L401.59946094277285,357.1935247184811L402.78339089361657,357.12789785514326L403.96732084446035,357.09883612429985L405.15125079530407,357.0355778008985L406.3351807461478,356.96517083384595L407.51911069699156,356.9227171269648L408.7030406478352,356.855133054297L409.88697059867906,356.8067006439084L411.0709005495227,356.78567143016346L412.25483050036644,356.8350128453372L413.4387604512102,356.8831202450029L414.62269040205393,356.86891099533415L415.80662035289765,356.8463266481036L416.99055030374143,356.8504983743618L418.17448025458515,356.8109138632646L419.3584102054289,356.7723193043235L420.54234015627264,356.8219929985061L421.7262701071163,356.8704244454869L422.91020005796014,356.8478028374369L424.0941300088038,356.8693979511169L425.2780599596475,356.8904530238267L426.4619899104913,356.87606102342414L427.645919861335,356.91440954776164L428.82984981217874,356.8994186548054L430.0137797630225,356.8935326789468L431.1977097138662,356.922713943746L432.38163966471,356.8987855815362L433.56556961555367,356.8841855361463L434.7494995663974,356.85249072374853L435.93342951724117,356.83904827732607L437.1173594680849,356.88705110707303L438.3012894189286,356.881474483671L439.4852193697724,356.9371460937292L440.6691493206161,356.9826958082902L441.85307927145976,356.9572683047192L443.0370092223036,356.9412063765143L444.22093917314726,356.9168163432977L445.4048691239911,356.8319281937629L446.58879907483475,356.731703271978L447.7727290256785,356.67763279427794L448.95665897652225,356.6423736256572L450.14058892736597,356.5905368310037L451.3245188782097,356.60110346276866L452.50844882905346,356.5066507670008L453.6923787798971,356.4582076517594L454.87630873074085,356.3847871371566L456.0602386815846,356.27828426295866L457.24416863242834,356.20063293584315L458.4280985832721,356.1860297268718L459.61202853411584,356.11068521692107L460.79595848495956,356.0808719608444L461.97988843580333,356.0779925181185L463.16381838664705,356.0228084017894L464.3477483374907,356.073757234083L465.53167828833455,356.0361380198861L466.7156082391782,356.03437701331956L467.89953819002204,356.1024951501822L469.0834681408657,356.1601807559561L470.2673980917094,356.2251534183752L471.4513280425532,356.2885015814055L472.6352579933969,356.3502658665596L473.81918794424064,356.4192152062546L475.0031178950844,356.47771131726955L476.1870478459281,356.54347418088065L477.3709777967718,356.59886351669127L478.5549077476156,356.65286798521197L479.7388376984593,356.70552221473645L480.92276764930307,356.7655892294291L482.1066976001468,356.8241544341729L483.2906275509905,356.8725261385156L484.4745575018343,356.8411253508312L485.658487452678,356.80178042429316L486.84241740352167,356.8507113486308L488.0263473543655,356.88968969718553L489.21027730520916,356.9364227095754L490.3942072560529,356.9121537947296L491.57813720689666,356.8273873788222L492.7620671577404,356.8145736609832L493.94599710858415,356.8369969708523L495.12992705942787,356.88504713431644L496.3138570102716,356.774771249575L497.49778696111537,356.82437702614453L498.68171691195903,356.87274258032744L499.86564686280275,356.9198989215335L501.0495768136465,356.9746054071116L502.23350676449024,357.02794415084986L503.417436715334,357.07122023958243L504.60136666617774,357.1134143661621L505.78529661702146,357.154553582602L506.96922656786523,357.20339335720803L508.15315651870895,357.2510120747563L509.3370864695526,357.2974402647688L510.52101642039645,357.1855843228407L511.7049463712401,357.1027121251889L512.8888763220838,357.1441187491871L514.0728062729277,357.0971995531875L515.2567362237713,357.13874394765566L516.4406661746151,357.14433348307165L517.6245961254588,357.04503471627015L518.8085260763025,356.8347409743843L519.9924560271463,356.7780984243998L521.17638597799,356.67049779350884L522.3603159288338,356.58304533851174L523.5442458796775,356.4803212256384L524.7281758305212,356.36270726602964L525.9121057813649,356.291678844438L527.0960357322087,356.26607126103227L528.2799656830524,356.26729091762263L529.4638956338962,356.2248350513949L530.6478255847398,356.13106660005843L531.8317555355836,355.98726843761085L533.0156854864274,355.90816830844517L534.1996154372711,355.95325163668736L535.3835453881147,355.98847885999413L536.5674753389586,355.9966384191519L537.7514052898023,356.0482389002697L538.935335240646,356.0025305510749L540.1192651914897,355.9055910752345L541.3031951423335,355.75870129929484L542.4871250931773,355.6853156341088L543.6710550440209,355.6224936239566L544.8549849948647,355.5263263338784L546.0389149457085,355.45002120939364L547.2228448965521,355.30579206143307L548.4067748473958,355.1913555985284L549.5907047982396,355.13215384987546L550.7746347490834,355.0918900849639L551.9585646999271,354.9653434092619L553.1424946507708,354.79831571077455L554.3264246016146,354.775126956391L555.5103545524584,354.68268636228055L556.694284503302,354.5750989367147L557.8782144541457,354.470201244474L559.0621444049896,354.3330102786842L560.2460743558332,354.26035171388503L561.4300043066769,354.145864959961L562.6139342575207,354.1302587040751L563.7978642083644,354.08885581131364L564.9817941592082,353.9000961721629L566.1657241100519,353.890634190043L567.3496540608957,353.84649304810495L568.5335840117394,353.86455793676805L569.7175139625831,353.7075926946296L570.9014439134268,353.65056979619743L572.0853738642705,353.56878572230835L573.2693038151143,353.49777519712995L574.453233765958,353.4285399571619L575.6371637168018,353.3784934553159L576.8210936676455,353.27732463025154L578.0050236184893,353.09139590011245L579.188953569333,353.0235913256448L580.3728835201766,353.0622288405124L581.5568134710205,352.9776956412532L582.7407434218642,352.9127336153948L583.9246733727078,352.8843112949952L585.1086033235516,352.86532844812734L586.2925332743954,352.7071576583292L587.4764632252392,352.70133258392207L588.6603931760828,352.68692423234853L589.8443231269266,352.6641471884138L591.0282530777704,352.60702396190516L592.212183028614,352.5775155356198L593.3961129794577,352.5574737276646L594.5800429303015,352.50301736632076L595.7639728811453,352.3888201262251L596.9479028319889,352.37349572741283L598.1318327828327,352.341096645221L599.3157627336765,352.27459195679063L600.4996926845203,352.19229210438715L601.6836226353639,350.3837284044357L602.8675525862076,350.4010736832235L604.0514825370515,349.98154061367984L605.2354124878951,349.9740250421041L606.4193424387388,349.975426253862L607.6032723895826,350.0117080038645L608.7872023404263,349.53207810450806L609.97113229127,348.7327411687594L611.1550622421138,348.45093451454164L612.3389921929576,348.3769375275473L613.5229221438013,348.2262304737425L614.706852094645,347.78250890810256L615.8907820454887,347.52445819656157L617.0747119963324,347.25540101035864L618.2586419471762,346.6701014745211L619.4425718980199,338.31326792792686L620.6265018488637,337.34050029577435L621.8104317997074,337.35222934472205L622.9943617505512,337.34620739657464L624.1782917013949,337.31414934483155L625.3622216522385,329.19121741632887L626.5461516030824,328.5163328384167L627.7300815539261,328.390782302779L628.9140115047697,327.4740422322237L630.0979414556135,327.0428515022408L631.2818714064573,326.8144759778356L632.465801357301,326.7489297256519L633.6497313081447,326.65883549275395L634.8336612589885,326.68446907045563L636.0175912098323,326.3079333184905L637.201521160676,324.55291910008265L638.3854511115196,324.26458772922615L639.5693810623634,323.992193544042L640.7533110132072,324.08449326447936L641.9372409640508,324.47126735301987L643.1211709148946,324.638878986028L644.3051008657384,324.73246929376967L645.489030816582,323.6453213693409L646.6729607674258,322.3322147749793L647.8568907182695,320.5194744357554L649.0408206691134,320.9779162736349L650.224750619957,321.30269276760555L651.4086805708007,319.376028660129L652.5926105216445,319.522630474005L653.7765404724883,319.587007353452L654.9604704233319,318.66341188823804L656.1444003741757,316.7503568422359L657.3283303250195,315.8714911391154L658.5122602758631,316.1755374575454L659.6961902267069,316.07045437724173L660.8801201775506,315.95926950484187L662.0640501283943,315.6675579047258L663.2479800792381,314.78084681364834L664.4319100300818,314.361476095405L665.6158399809256,314.2842868543147L666.7997699317693,312.794949881569L667.983699882613,312.10225835211963L669.1676298334568,312.8846059102359L670.3515597843004,312.83560958673377L671.5354897351443,311.6967291069116L672.719419685988,311.9305670262144L673.9033496368316,312.14110124446796L675.0872795876754,311.543315872079L676.2712095385192,311.5889539306514L677.4551394893629,311.68582426657855L678.6390694402066,312.3825649800991L679.8229993910504,312.6341724525218L681.0069293418941,309.3966700822158L682.1908592927379,307.61053814394245L683.3747892435815,302.6306484072087L684.5587191944253,296.2040592995354L685.7426491452691,293.8224825968489L686.9265790961127,292.4082479256677L688.1105090469565,292.7227700416773L689.2944389978003,293.71900985850215L690.478368948644,293.40719972115096L691.6622988994877,293.1817446767554L692.8462288503314,293.82608415098275L694.0301588011752,293.50286829679527L695.2140887520189,292.4806943879278L696.3980187028626,291.2396664969734L697.5819486537064,291.8278114809026L698.7658786045502,284.8420517855825L699.9498085553938,283.5213951273116L701.1337385062376,277.27575710619504L702.3176684570814,277.64562343533464L703.501598407925,276.1120784822051L704.6855283587688,269.51921261812026L705.8694583096125,263.21337269050406L707.0533882604562,257.97298124730406L708.2373182113,259.27931830640944L709.4212481621437,253.1072718315538L710.6051781129875,247.0895266229575L711.7891080638312,241.22222514381L712.9730380146749,240.19773759172472L714.1569679655187,241.293790686944L715.3408979163623,235.5713827896673L716.5248278672061,229.9920351750979L717.7087578180499,227.4065112701609L718.8926877688936,222.0312855817445L720.0766177197373,216.86027155529254L721.2605476705811,211.74870200410365L722.4444776214248,206.76492175880978L723.6284075722685,202.86591156507384L724.8123375231123,198.10420119929196L725.996267473956,193.4615336506035L727.1801974247998,193.5874194115664L728.3641273756434,191.46683900187313L729.5480573264872,186.99010562668258L730.731987277331,182.62529063510527L731.9159172281746,178.36959606512002L733.0998471790184,174.22029390387613L734.2837771298622,170.1747243389583L735.4677070807058,166.23029405337007L736.6516370315496,162.38447456314302L737.8355669823933,158.63480059650584L739.0194969332371,154.9963262483667L740.2034268840808,151.43135605689667L741.3873568349245,150.687645621814L742.5712867857683,147.23039249538564L743.755216736612,143.85957072589747L744.9391466874557,140.57301952800486L746.1230766382995,137.36863213606716L747.3070065891433,134.24435445365134L748.4909365399869,131.19818373679868L749.6748664908307,128.2281673102096L750.8587964416744,125.33240131552446L752.0427263925181,122.50902949089686L753.2266563433619,119.75624198107852L754.4105862942056,117.07227417725147L755.5945162450494,114.45540558586515L756.7784461958931,111.90395872575198L757.9623761467368,109.41629805281616L759.1463060975806,106.99082891160418L760.3302360484242,104.62599651308739L761.514165999268,102.32028493799896L762.6980959501118,100.07221616508832L763.8820259009555,97.8803491236689L765.0659558517992,95.74327876985274L766.249885802643,93.65963518587853L767.4338157534867,91.62808270195728L768.6177457043304,89.64731904007152L769.8016756551742,87.71607447917972L770.9856056060179,85.83311104129064L772.1695355568617,83.9972216978856L773.3534655077053,82.20722959618126L774.5373954585491,80.46198730473418L775.7213254093929,78.7603760779071L776.9052553602365,77.10130513872241L778.0891853110802,75.48371097964491L779.2731152619241,73.90655668084457L780.4570452127678,72.36883124550343L781.6409751636115,70.86954895173926L782.8249051144552,69.40774872073155L784.008835065299,67.98249350064413" style="fill: none;" fill="none"></path></g></g></g></g><g opacity="0.20000000298023224"><g><g><g><path stroke="rgb(255, 112, 67)" stroke-width="2px" d="M14.454367016871856,355.6165474559048L15.638296967715592,357.7114752498597L16.822226918559327,358.0606298821855L18.006156869403057,357.7114752498597L19.190086820246794,353.1724650296241L20.374016771090528,357.01316598520805L21.55794672193426,352.1250011326467L22.741876672777995,357.3623206175339L23.925806623621728,355.9657020882306L25.10973657446546,355.6165474559048L26.293666525309195,357.3623206175339L27.477596476152932,359.10809377916297L28.661526426996666,355.267392823579L29.8454563778404,356.66401135288226L31.029386328684136,353.87077429427575L32.213316279527874,358.0606298821855L33.3972462303716,353.1724650296241L34.58117618121533,357.7114752498597L35.76510613205907,350.3792279710176L36.94903608290281,357.3623206175339L38.13296603374654,357.7114752498597L39.316895984590275,347.23683628008524L40.50082593543401,358.0606298821855L41.684755886277735,358.0606298821855L42.868685837121475,356.31485672055646L44.05261578796521,354.5690835589274L45.23654573880894,358.40978451451133L46.420475689652676,357.7114752498597L47.60440564049641,352.8233103972983L48.78833559134015,357.01316598520805L49.97226554218388,358.40978451451133L51.15619549302762,359.45724841148876L52.34012544387135,357.3623206175339L53.524055394715084,356.66401135288226L54.70798534555881,354.21992892660154L55.891915296402544,341.30120753054644L57.07584524724628,358.40978451451133L58.25977519809001,358.7589391468371L59.44370514893375,357.3623206175339L60.627635099777486,351.07753723566924L61.81156505062122,358.0606298821855L62.99549500146495,359.10809377916297L64.1794249523087,359.10809377916297L65.36335490315243,358.40978451451133L66.54728485399616,357.01316598520805L67.7312148048399,358.0606298821855L68.91514475568363,356.66401135288226L70.09907470652736,357.7114752498597L71.28300465737108,351.42669186799503L72.46693460821483,358.40978451451133L73.65086455905856,359.10809377916297L74.8347945099023,356.31485672055646L76.01872446074603,359.45724841148876L77.20265441158976,358.7589391468371L78.3865843624335,357.7114752498597L79.57051431327723,358.7589391468371L80.75444426412096,357.3623206175339L81.9383742149647,356.66401135288226L83.12230416580843,358.40978451451133L84.30623411665216,358.40978451451133L85.49016406749591,358.40978451451133L86.67409401833964,353.1724650296241L87.85802396918338,358.40978451451133L89.0419539200271,358.0606298821855L90.22588387087083,358.7589391468371L91.40981382171456,357.3623206175339L92.5937437725583,356.66401135288226L93.77767372340203,358.40978451451133L94.96160367424578,352.8233103972983L96.14553362508951,357.3623206175339L97.32946357593325,354.21992892660154L98.51339352677698,358.7589391468371L99.69732347762071,358.0606298821855L100.88125342846443,357.01316598520805L102.06518337930818,355.6165474559048L103.2491133301519,357.7114752498597L104.43304328099565,352.8233103972983L105.61697323183938,357.3623206175339L106.80090318268311,358.40978451451133L107.98483313352685,358.7589391468371L109.1687630843706,358.7589391468371L110.35269303521432,357.7114752498597L111.53662298605806,357.01316598520805L112.72055293690178,358.40978451451133L113.9044828877455,359.10809377916297L115.08841283858925,358.40978451451133L116.27234278943298,359.10809377916297L117.45627274027673,358.40978451451133L118.64020269112045,358.7589391468371L119.8241326419642,357.7114752498597L121.00806259280792,357.3623206175339L122.19199254365166,358.40978451451133L123.37592249449538,358.0606298821855L124.55985244533913,359.10809377916297L125.74378239618285,359.10809377916297L126.9277123470266,359.10809377916297L128.11164229787033,358.7589391468371L129.29557224871408,358.7589391468371L130.4795021995578,358.7589391468371L131.66343215040152,358.40978451451133L132.84736210124527,359.10809377916297L134.031292052089,358.0606298821855L135.21522200293273,358.40978451451133L136.39915195377645,358.0606298821855L137.5830819046202,358.7589391468371L138.76701185546392,359.10809377916297L139.95094180630767,358.7589391468371L141.1348717571514,358.7589391468371L142.31880170799514,358.0606298821855L143.50273165883885,354.9182381912532L144.6866616096826,358.40978451451133L145.87059156052635,357.3623206175339L147.0545215113701,359.10809377916297L148.23845146221382,358.7589391468371L149.42238141305754,358.40978451451133L150.60631136390128,359.45724841148876L151.790241314745,358.40978451451133L152.97417126558875,358.0606298821855L154.15810121643247,358.40978451451133L155.34203116727622,358.7589391468371L156.52596111811994,358.40978451451133L157.70989106896369,358.7589391468371L158.8938210198074,357.7114752498597L160.07775097065115,358.0606298821855L161.26168092149487,358.40978451451133L162.44561087233862,358.40978451451133L163.62954082318234,358.40978451451133L164.8134707740261,358.0606298821855L165.9974007248698,357.7114752498597L167.18133067571355,357.7114752498597L168.3652606265573,359.10809377916297L169.54919057740102,358.7589391468371L170.73312052824477,357.7114752498597L171.9170504790885,358.7589391468371L173.10098042993224,358.7589391468371L174.28491038077595,359.10809377916297L175.4688403316197,359.10809377916297L176.65277028246342,358.7589391468371L177.83670023330717,358.40978451451133L179.0206301841509,356.66401135288226L180.20456013499464,359.45724841148876L181.38849008583836,357.7114752498597L182.57242003668208,358.7589391468371L183.75634998752582,358.7589391468371L184.94027993836954,358.7589391468371L186.1242098892133,359.10809377916297L187.30813984005704,359.10809377916297L188.49206979090076,358.40978451451133L189.6759997417445,357.3623206175339L190.85992969258825,358.40978451451133L192.04385964343197,358.7589391468371L193.22778959427572,358.40978451451133L194.41171954511944,358.40978451451133L195.5956494959632,358.7589391468371L196.7795794468069,359.45724841148876L197.96350939765065,359.10809377916297L199.14743934849437,358.40978451451133L200.3313692993381,358.7589391468371L201.51529925018184,359.10809377916297L202.6992292010256,358.7589391468371L203.88315915186928,359.10809377916297L205.06708910271303,359.10809377916297L206.25101905355677,358.7589391468371L207.43494900440052,358.40978451451133L208.61887895524424,359.10809377916297L209.80280890608796,358.7589391468371L210.9867388569317,358.7589391468371L212.17066880777546,358.40978451451133L213.35459875861918,358.7589391468371L214.53852870946292,358.7589391468371L215.72245866030667,358.7589391468371L216.90638861115036,358.7589391468371L218.0903185619941,359.10809377916297L219.27424851283786,358.0606298821855L220.4581784636816,359.10809377916297L221.6421084145253,359.10809377916297L222.82603836536904,358.0606298821855L224.0099683162128,359.45724841148876L225.19389826705654,358.7589391468371L226.37782821790023,358.40978451451133L227.56175816874398,359.10809377916297L228.74568811958773,358.7589391468371L229.92961807043147,358.40978451451133L231.1135480212752,359.10809377916297L232.2974779721189,359.10809377916297L233.48140792296266,357.7114752498597L234.66533787380638,358.7589391468371L235.84926782465013,358.40978451451133L237.03319777549387,358.7589391468371L238.21712772633762,358.0606298821855L239.4010576771813,358.7589391468371L240.58498762802506,359.10809377916297L241.7689175788688,358.7589391468371L242.95284752971256,359.45724841148876L244.13677748055625,359.10809377916297L245.3207074314,359.10809377916297L246.50463738224374,358.7589391468371L247.6885673330875,359.10809377916297L248.87249728393118,358.7589391468371L250.05642723477493,358.7589391468371L251.24035718561868,359.45724841148876L252.4242871364624,358.7589391468371L253.60821708730614,358.40978451451133L254.79214703814986,358.7589391468371L255.9760769889936,359.10809377916297L257.16000693983733,358.7589391468371L258.34393689068105,359.10809377916297L259.5278668415248,358.7589391468371L260.71179679236855,359.10809377916297L261.89572674321226,358.0606298821855L263.079656694056,358.7589391468371L264.26358664489976,358.40978451451133L265.4475165957435,359.10809377916297L266.6314465465872,359.10809377916297L267.815376497431,359.10809377916297L268.9993064482747,358.40978451451133L270.1832363991184,358.40978451451133L271.36716634996213,358.7589391468371L272.5510963008059,358.7589391468371L273.73502625164963,358.0606298821855L274.91895620249335,358.7589391468371L276.10288615333707,357.7114752498597L277.28681610418084,358.0606298821855L278.47074605502456,358.7589391468371L279.6546760058683,358.40978451451133L280.838605956712,358.7589391468371L282.0225359075558,359.10809377916297L283.2064658583995,358.40978451451133L284.3903958092432,358.0606298821855L285.57432576008694,359.10809377916297L286.7582557109307,358.0606298821855L287.94218566177443,358.40978451451133L289.12611561261815,359.10809377916297L290.3100455634619,358.40978451451133L291.49397551430565,358.7589391468371L292.67790546514937,358.0606298821855L293.8618354159931,359.45724841148876L295.04576536683686,358.40978451451133L296.2296953176806,358.7589391468371L297.4136252685243,358.7589391468371L298.597555219368,359.10809377916297L299.7814851702118,358.7589391468371L300.9654151210555,358.7589391468371L302.14934507189923,358.40978451451133L303.33327502274295,358.7589391468371L304.5172049735867,359.10809377916297L305.7011349244304,358.40978451451133L306.8850648752741,358.7589391468371L308.0689948261179,358.7589391468371L309.2529247769616,359.10809377916297L310.4368547278054,358.7589391468371L311.62078467864904,359.10809377916297L312.8047146294928,358.7589391468371L313.98864458033654,359.10809377916297L315.1725745311803,358.7589391468371L316.356504482024,358.7589391468371L317.54043443286776,359.10809377916297L318.7243643837115,358.7589391468371L319.9082943345552,358.7589391468371L321.0922242853989,358.40978451451133L322.2761542362427,358.0606298821855L323.4600841870864,358.7589391468371L324.6440141379301,359.10809377916297L325.8279440887739,359.45724841148876L327.0118740396176,358.7589391468371L328.19580399046134,358.0606298821855L329.37973394130506,358.40978451451133L330.56366389214884,358.7589391468371L331.74759384299256,359.10809377916297L332.93152379383633,357.7114752498597L334.11545374468,358.40978451451133L335.2993836955238,358.7589391468371L336.4833136463675,358.40978451451133L337.6672435972112,359.10809377916297L338.85117354805493,358.40978451451133L340.0351034988987,359.45724841148876L341.2190334497424,358.7589391468371L342.40296340058615,357.7114752498597L343.58689335142986,359.10809377916297L344.77082330227364,358.7589391468371L345.95475325311736,359.10809377916297L347.1386832039611,358.7589391468371L348.32261315480486,358.0606298821855L349.5065431056486,358.0606298821855L350.6904730564923,358.40978451451133L351.874403007336,358.40978451451133L353.0583329581798,358.7589391468371L354.2422629090235,358.0606298821855L355.42619285986723,357.7114752498597L356.61012281071095,359.10809377916297L357.7940527615547,359.10809377916297L358.97798271239844,358.40978451451133L360.16191266324216,358.40978451451133L361.3458426140859,358.7589391468371L362.52977256492966,358.40978451451133L363.7137025157734,358.0606298821855L364.8976324666171,358.7589391468371L366.0815624174608,358.40978451451133L367.2654923683046,358.40978451451133L368.4494223191483,358.0606298821855L369.63335226999203,357.3623206175339L370.8172822208358,358.7589391468371L372.0012121716795,358.0606298821855L373.18514212252325,358.0606298821855L374.36907207336697,358.40978451451133L375.55300202421074,358.7589391468371L376.73693197505446,357.7114752498597L377.9208619258982,356.66401135288226L379.1047918767419,357.7114752498597L380.2887218275857,358.40978451451133L381.4726517784294,357.3623206175339L382.6565817292731,357.7114752498597L383.84051168011683,357.7114752498597L385.0244416309606,357.7114752498597L386.2083715818043,357.01316598520805L387.39230153264805,356.66401135288226L388.57623148349177,358.40978451451133L389.76016143433554,356.66401135288226L390.94409138517926,358.40978451451133L392.128021336023,357.7114752498597L393.31195128686676,355.267392823579L394.4958812377105,350.3792279710176L395.6798111885542,350.03007333869175L396.8637411393979,352.8233103972983L398.0476710902417,353.1724650296241L399.2316010410854,353.1724650296241L400.41553099192913,352.1250011326467L401.59946094277285,352.8233103972983L402.78339089361657,354.5690835589274L403.96732084446035,355.9657020882306L405.15125079530407,354.5690835589274L406.3351807461478,354.21992892660154L407.51911069699156,355.267392823579L408.7030406478352,354.21992892660154L409.88697059867906,354.9182381912532L411.0709005495227,355.9657020882306L412.25483050036644,358.7589391468371L413.4387604512102,358.7589391468371L414.62269040205393,356.31485672055646L415.80662035289765,355.9657020882306L416.99055030374143,357.01316598520805L418.17448025458515,355.267392823579L419.3584102054289,355.267392823579L420.54234015627264,358.7589391468371L421.7262701071163,358.7589391468371L422.91020005796014,355.9657020882306L424.0941300088038,357.7114752498597L425.2780599596475,357.7114752498597L426.4619899104913,356.31485672055646L427.645919861335,358.40978451451133L428.82984981217874,356.31485672055646L430.0137797630225,356.66401135288226L431.1977097138662,358.0606298821855L432.38163966471,355.9657020882306L433.56556961555367,356.31485672055646L434.7494995663974,355.6165474559048L435.93342951724117,356.31485672055646L437.1173594680849,358.7589391468371L438.3012894189286,356.66401135288226L439.4852193697724,359.10809377916297L440.6691493206161,358.7589391468371L441.85307927145976,355.9657020882306L443.0370092223036,356.31485672055646L444.22093917314726,355.9657020882306L445.4048691239911,353.5216196619499L446.58879907483475,352.8233103972983L447.7727290256785,354.5690835589274L448.95665897652225,355.267392823579L450.14058892736597,354.5690835589274L451.3245188782097,357.01316598520805L452.50844882905346,352.8233103972983L453.6923787798971,354.5690835589274L454.87630873074085,353.5216196619499L456.0602386815846,352.1250011326467L457.24416863242834,353.1724650296241L458.4280985832721,355.6165474559048L459.61202853411584,353.1724650296241L460.79595848495956,354.9182381912532L461.97988843580333,355.9657020882306L463.16381838664705,353.87077429427575L464.3477483374907,358.0606298821855L465.53167828833455,354.5690835589274L466.7156082391782,355.9657020882306L467.89953819002204,358.7589391468371L469.0834681408657,358.40978451451133L470.2673980917094,358.7589391468371L471.4513280425532,358.7589391468371L472.6352579933969,358.7589391468371L473.81918794424064,359.10809377916297L475.0031178950844,358.7589391468371L476.1870478459281,359.10809377916297L477.3709777967718,358.7589391468371L478.5549077476156,358.7589391468371L479.7388376984593,358.7589391468371L480.92276764930307,359.10809377916297L482.1066976001468,359.10809377916297L483.2906275509905,358.7589391468371L484.4745575018343,355.6165474559048L485.658487452678,355.267392823579L486.84241740352167,358.7589391468371L488.0263473543655,358.40978451451133L489.21027730520916,358.7589391468371L490.3942072560529,355.9657020882306L491.57813720689666,353.5216196619499L492.7620671577404,356.31485672055646L493.94599710858415,357.7114752498597L495.12992705942787,358.7589391468371L496.3138570102716,352.47415576497247L497.49778696111537,358.7589391468371L498.68171691195903,358.7589391468371L499.86564686280275,358.7589391468371L501.0495768136465,359.10809377916297L502.23350676449024,359.10809377916297L503.417436715334,358.7589391468371L504.60136666617774,358.7589391468371L505.78529661702146,358.7589391468371L506.96922656786523,359.10809377916297L508.15315651870895,359.10809377916297L509.3370864695526,359.10809377916297L510.52101642039645,352.8233103972983L511.7049463712401,353.87077429427575L512.8888763220838,358.7589391468371L514.0728062729277,355.267392823579L515.2567362237713,358.7589391468371L516.4406661746151,357.3623206175339L517.6245961254588,353.1724650296241L518.8085260763025,348.6334548093885L519.9924560271463,354.5690835589274L521.17638597799,352.47415576497247L522.3603159288338,353.1724650296241L523.5442458796775,352.47415576497247L524.7281758305212,351.7758465003208L525.9121057813649,353.5216196619499L527.0960357322087,355.267392823579L528.2799656830524,356.31485672055646L529.4638956338962,354.5690835589274L530.6478255847398,352.47415576497247L531.8317555355836,350.3792279710176L533.0156854864274,352.8233103972983L534.1996154372711,357.7114752498597L535.3835453881147,357.3623206175339L536.5674753389586,356.31485672055646L537.7514052898023,358.0606298821855L538.935335240646,354.21992892660154L540.1192651914897,352.1250011326467L541.3031951423335,350.03007333869175L542.4871250931773,352.8233103972983L543.6710550440209,353.1724650296241L544.8549849948647,351.7758465003208L546.0389149457085,352.47415576497247L547.2228448965521,349.68091870636596L548.4067748473958,350.7283826033434L549.5907047982396,352.8233103972983L550.7746347490834,353.5216196619499L551.9585646999271,350.03007333869175L553.1424946507708,348.28430017706273L554.3264246016146,353.87077429427575L555.5103545524584,351.07753723566924L556.694284503302,350.3792279710176L557.8782144541457,350.3792279710176L559.0621444049896,348.9826094417143L560.2460743558332,351.42669186799503L561.4300043066769,349.68091870636596L562.6139342575207,353.5216196619499L563.7978642083644,352.47415576497247L564.9817941592082,346.5385270154336L566.1657241100519,353.5216196619499L567.3496540608957,352.1250011326467L568.5335840117394,354.5690835589274L569.7175139625831,347.5859909124111L570.9014439134268,351.42669186799503L572.0853738642705,350.3792279710176L573.2693038151143,350.7283826033434L574.453233765958,350.7283826033434L575.6371637168018,351.42669186799503L576.8210936676455,349.33176407404017L578.0050236184893,345.840217750782L579.188953569333,350.3792279710176L580.3728835201766,354.5690835589274L581.5568134710205,349.68091870636596L582.7407434218642,350.3792279710176L583.9246733727078,351.7758465003208L585.1086033235516,352.1250011326467L586.2925332743954,346.5385270154336L587.4764632252392,352.47415576497247L588.6603931760828,352.1250011326467L589.8443231269266,351.7758465003208L591.0282530777704,350.3792279710176L592.212183028614,351.42669186799503L593.3961129794577,351.7758465003208L594.5800429303015,350.3792279710176L595.7639728811453,347.9351455447369L596.9479028319889,351.7758465003208L598.1318327828327,351.07753723566924L599.3157627336765,349.68091870636596L600.4996926845203,348.9826094417143L601.6836226353639,279.84999224120304L602.8675525862076,351.07753723566924L604.0514825370515,333.6198056193785L605.2354124878951,349.68091870636596L606.4193424387388,350.03007333869175L607.6032723895826,351.42669186799503L608.7872023404263,330.826568560772L609.97113229127,317.55869253239104L611.1550622421138,337.46050657496244L612.3389921929576,345.49106311845617L613.5229221438013,342.34867142752387L614.706852094645,330.47741392844614L615.8907820454887,337.46050657496244L617.0747119963324,336.7621973103108L618.2586419471762,323.8434759142557L619.4425718980199,12.397543879629097L620.6265018488637,299.40265165144865L621.8104317997074,337.8096612072883L622.9943617505512,337.11135194263665L624.1782917013949,336.0638880456592L625.3622216522385,12.397543879629097L626.5461516030824,302.19588871005516L627.7300815539261,323.49432128192984L628.9140115047697,291.72124974028077L630.0979414556135,310.22644525354895L631.2818714064573,317.9078471647168L632.465801357301,324.1926305465815L633.6497313081447,323.14516664960405L634.8336612589885,327.68417686983963L636.0175912098323,311.62306378285217L637.201521160676,256.10747724304764L638.3854511115196,313.01968231215545L639.5693810623634,313.36883694448125L640.7533110132072,327.68417686983963L641.9372409640508,339.55543436891736L643.1211709148946,331.1757231930978L644.3051008657384,328.3824861344913L645.489030816582,281.2466107705063L646.6729607674258,271.12112643305767L647.8568907182695,249.82269386118298L649.0408206691134,338.8571251042657L650.224750619957,333.9689602517043L651.4086805708007,244.23621974396997L652.5926105216445,325.2400944435589L653.7765404724883,322.0977027526266L654.9604704233319,282.64322929980955L656.1444003741757,242.14129195001507L657.3283303250195,281.5957654028321L658.5122602758631,328.0333315021654L659.6961902267069,311.97221841517796L660.8801201775506,311.62306378285217L662.0640501283943,304.2908165040101L663.2479800792381,280.1991468735289L664.4319100300818,298.00603312214537L665.6158399809256,311.2739091505264L666.7997699317693,254.71085871374441L667.983699882613,285.08731172609026L669.1676298334568,343.3961353245013L670.3515597843004,310.92475451820053L671.5354897351443,267.2804254774737L672.719419685988,321.0502388556492L673.9033496368316,320.35192959099754L675.0872795876754,288.2297034170226L676.2712095385192,313.36883694448125L677.4551394893629,315.4637647384361L678.6390694402066,339.55543436891736L679.8229993910504,322.4468573849524L681.0069293418941,183.1341590869524L682.1908592927379,237.95143636210528L683.3747892435815,108.41506776922807L684.5587191944253,45.56723395058145L685.7426491452691,200.94104533556896L686.9265790961127,237.25312709745367L688.1105090469565,304.98912576866167L689.2944389978003,332.57234172240106L690.478368948644,281.2466107705063L691.6622988994877,284.3890024614386L692.8462288503314,318.95531106169426L694.0301588011752,280.8974561381805L695.2140887520189,252.6159309197895L696.3980187028626,242.8396012146667L697.5819486537064,314.7654554737845L698.7658786045502,12.397543879629097L699.9498085553938,232.01580761256645L701.1337385062376,33.69597645150378L702.3176684570814,292.07040437260656L703.501598407925,216.30384915790478L704.6855283587688,12.397543879629097L705.8694583096125,17.28570873219047L707.0533882604562,53.597790494075184L708.2373182113,310.22644525354895L709.4212481621437,12.397543879629097L710.6051781129875,12.397543879629097L711.7891080638312,12.397543879629097L712.9730380146749,200.24273607091732L714.1569679655187,284.03984782911283L715.3408979163623,12.397543879629097L716.5248278672061,12.397543879629097L717.7087578180499,126.57110865017046L718.8926877688936,12.397543879629097L720.0766177197373,15.190780938235605L721.2605476705811,12.397543879629097L722.4444776214248,12.397543879629097L723.6284075722685,50.80455343546868L724.8123375231123,12.397543879629097L725.996267473956,12.397543879629097L727.1801974247998,198.49696290928824L728.3641273756434,108.76422240155392L729.5480573264872,12.397543879629097L730.731987277331,12.397543879629097L731.9159172281746,12.397543879629097L733.0998471790184,12.397543879629097L734.2837771298622,12.397543879629097L735.4677070807058,12.397543879629097L736.6516370315496,12.397543879629097L737.8355669823933,12.397543879629097L739.0194969332371,13.095853144280682L740.2034268840808,12.397543879629097L741.3873568349245,121.68294379760903L742.5712867857683,12.397543879629097L743.755216736612,12.397543879629097L744.9391466874557,12.397543879629097L746.1230766382995,12.397543879629097L747.3070065891433,12.397543879629097L748.4909365399869,12.397543879629097L749.6748664908307,12.397543879629097L750.8587964416744,12.397543879629097L752.0427263925181,12.397543879629097L753.2266563433619,12.397543879629097L754.4105862942056,12.397543879629097L755.5945162450494,12.397543879629097L756.7784461958931,12.397543879629097L757.9623761467368,12.397543879629097L759.1463060975806,12.397543879629097L760.3302360484242,12.397543879629097L761.514165999268,12.397543879629097L762.6980959501118,12.397543879629097L763.8820259009555,12.397543879629097L765.0659558517992,12.397543879629097L766.249885802643,12.397543879629097L767.4338157534867,12.397543879629097L768.6177457043304,12.397543879629097L769.8016756551742,12.397543879629097L770.9856056060179,12.397543879629097L772.1695355568617,12.397543879629097L773.3534655077053,12.397543879629097L774.5373954585491,12.397543879629097L775.7213254093929,12.397543879629097L776.9052553602365,12.397543879629097L778.0891853110802,12.397543879629097L779.2731152619241,12.397543879629097L780.4570452127678,12.397543879629097L781.6409751636115,12.397543879629097L782.8249051144552,12.397543879629097L784.008835065299,12.397543879629097" style="fill: none;" fill="none"></path></g></g></g></g></g></g><g transform="translate(78, 377)" clip-path="url(#clip_1)"><clipPath id="clip_1"><rect width="802" height="22"></rect></clipPath><g><g><line x1="14.454367016871856" y1="0" x2="14.454367016871856" y2="5" style="visibility: inherit;" fill="rgb(0, 0, 0)" stroke="rgb(204, 204, 204)" stroke-width="1px"></line><line x1="73.65086455905856" y1="0" x2="73.65086455905856" y2="5" style="visibility: inherit;" fill="rgb(0, 0, 0)" stroke="rgb(204, 204, 204)" stroke-width="1px"></line><line x1="132.84736210124527" y1="0" x2="132.84736210124527" y2="5" style="visibility: inherit;" fill="rgb(0, 0, 0)" stroke="rgb(204, 204, 204)" stroke-width="1px"></line><line x1="192.04385964343197" y1="0" x2="192.04385964343197" y2="5" style="visibility: inherit;" fill="rgb(0, 0, 0)" stroke="rgb(204, 204, 204)" stroke-width="1px"></line><line x1="251.24035718561868" y1="0" x2="251.24035718561868" y2="5" style="visibility: inherit;" fill="rgb(0, 0, 0)" stroke="rgb(204, 204, 204)" stroke-width="1px"></line><line x1="310.4368547278054" y1="0" x2="310.4368547278054" y2="5" style="visibility: inherit;" fill="rgb(0, 0, 0)" stroke="rgb(204, 204, 204)" stroke-width="1px"></line><line x1="369.63335226999203" y1="0" x2="369.63335226999203" y2="5" style="visibility: inherit;" fill="rgb(0, 0, 0)" stroke="rgb(204, 204, 204)" stroke-width="1px"></line><line x1="428.82984981217874" y1="0" x2="428.82984981217874" y2="5" style="visibility: inherit;" fill="rgb(0, 0, 0)" stroke="rgb(204, 204, 204)" stroke-width="1px"></line><line x1="488.0263473543655" y1="0" x2="488.0263473543655" y2="5" style="visibility: inherit;" fill="rgb(0, 0, 0)" stroke="rgb(204, 204, 204)" stroke-width="1px"></line><line x1="547.2228448965521" y1="0" x2="547.2228448965521" y2="5" style="visibility: inherit;" fill="rgb(0, 0, 0)" stroke="rgb(204, 204, 204)" stroke-width="1px"></line><line x1="606.4193424387388" y1="0" x2="606.4193424387388" y2="5" style="visibility: inherit;" fill="rgb(0, 0, 0)" stroke="rgb(204, 204, 204)" stroke-width="1px"></line><line x1="665.6158399809256" y1="0" x2="665.6158399809256" y2="5" style="visibility: inherit;" fill="rgb(0, 0, 0)" stroke="rgb(204, 204, 204)" stroke-width="1px"></line><line x1="724.8123375231123" y1="0" x2="724.8123375231123" y2="5" style="visibility: inherit;" fill="rgb(0, 0, 0)" stroke="rgb(204, 204, 204)" stroke-width="1px"></line><line x1="784.008835065299" y1="0" x2="784.008835065299" y2="5" style="visibility: inherit;" fill="rgb(0, 0, 0)" stroke="rgb(204, 204, 204)" stroke-width="1px"></line></g><g transform="translate(0, 8)"><text x="14.454367016871856" y="0" dx="0em" dy="0.95em" style="text-anchor: middle; visibility: inherit; font-family: &quot;Helvetica Neue&quot;, sans-serif; font-size: 12px; font-weight: 200;" fill="rgb(50, 49, 63)" stroke="none" stroke-width="1px">0.000</text><text x="73.65086455905856" y="0" dx="0em" dy="0.95em" style="text-anchor: middle; visibility: inherit; font-family: &quot;Helvetica Neue&quot;, sans-serif; font-size: 12px; font-weight: 200;" fill="rgb(50, 49, 63)" stroke="none" stroke-width="1px">50.00</text><text x="132.84736210124527" y="0" dx="0em" dy="0.95em" style="text-anchor: middle; visibility: inherit; font-family: &quot;Helvetica Neue&quot;, sans-serif; font-size: 12px; font-weight: 200;" fill="rgb(50, 49, 63)" stroke="none" stroke-width="1px">100.0</text><text x="192.04385964343197" y="0" dx="0em" dy="0.95em" style="text-anchor: middle; visibility: inherit; font-family: &quot;Helvetica Neue&quot;, sans-serif; font-size: 12px; font-weight: 200;" fill="rgb(50, 49, 63)" stroke="none" stroke-width="1px">150.0</text><text x="251.24035718561868" y="0" dx="0em" dy="0.95em" style="text-anchor: middle; visibility: inherit; font-family: &quot;Helvetica Neue&quot;, sans-serif; font-size: 12px; font-weight: 200;" fill="rgb(50, 49, 63)" stroke="none" stroke-width="1px">200.0</text><text x="310.4368547278054" y="0" dx="0em" dy="0.95em" style="text-anchor: middle; visibility: inherit; font-family: &quot;Helvetica Neue&quot;, sans-serif; font-size: 12px; font-weight: 200;" fill="rgb(50, 49, 63)" stroke="none" stroke-width="1px">250.0</text><text x="369.63335226999203" y="0" dx="0em" dy="0.95em" style="text-anchor: middle; visibility: inherit; font-family: &quot;Helvetica Neue&quot;, sans-serif; font-size: 12px; font-weight: 200;" fill="rgb(50, 49, 63)" stroke="none" stroke-width="1px">300.0</text><text x="428.82984981217874" y="0" dx="0em" dy="0.95em" style="text-anchor: middle; visibility: inherit; font-family: &quot;Helvetica Neue&quot;, sans-serif; font-size: 12px; font-weight: 200;" fill="rgb(50, 49, 63)" stroke="none" stroke-width="1px">350.0</text><text x="488.0263473543655" y="0" dx="0em" dy="0.95em" style="text-anchor: middle; visibility: inherit; font-family: &quot;Helvetica Neue&quot;, sans-serif; font-size: 12px; font-weight: 200;" fill="rgb(50, 49, 63)" stroke="none" stroke-width="1px">400.0</text><text x="547.2228448965521" y="0" dx="0em" dy="0.95em" style="text-anchor: middle; visibility: inherit; font-family: &quot;Helvetica Neue&quot;, sans-serif; font-size: 12px; font-weight: 200;" fill="rgb(50, 49, 63)" stroke="none" stroke-width="1px">450.0</text><text x="606.4193424387388" y="0" dx="0em" dy="0.95em" style="text-anchor: middle; visibility: inherit; font-family: &quot;Helvetica Neue&quot;, sans-serif; font-size: 12px; font-weight: 200;" fill="rgb(50, 49, 63)" stroke="none" stroke-width="1px">500.0</text><text x="665.6158399809256" y="0" dx="0em" dy="0.95em" style="text-anchor: middle; visibility: inherit; font-family: &quot;Helvetica Neue&quot;, sans-serif; font-size: 12px; font-weight: 200;" fill="rgb(50, 49, 63)" stroke="none" stroke-width="1px">550.0</text><text x="724.8123375231123" y="0" dx="0em" dy="0.95em" style="text-anchor: middle; visibility: inherit; font-family: &quot;Helvetica Neue&quot;, sans-serif; font-size: 12px; font-weight: 200;" fill="rgb(50, 49, 63)" stroke="none" stroke-width="1px">600.0</text><text x="784.008835065299" y="0" dx="0em" dy="0.95em" style="text-anchor: middle; visibility: inherit; font-family: &quot;Helvetica Neue&quot;, sans-serif; font-size: 12px; font-weight: 200;" fill="rgb(50, 49, 63)" stroke="none" stroke-width="1px">650.0</text></g><line x1="0" y1="0" x2="802.46875" y2="0" fill="rgb(0, 0, 0)" stroke="rgb(204, 204, 204)" stroke-width="1px"></line></g></g></g></g></svg>