<svg viewBox="0 0 880.5 400" xmlns="http://www.w3.org/2000/svg"><g><g><g><g><g><line x1="87.75" y1="372.9405160969215" x2="82.75" y2="372.9405160969215" style="visibility: inherit;" fill="rgb(0, 0, 0)" stroke="rgb(204, 204, 204)" stroke-width="1px"></line><line x1="87.75" y1="335.41000803708" x2="82.75" y2="335.41000803708" style="visibility: inherit;" fill="rgb(0, 0, 0)" stroke="rgb(204, 204, 204)" stroke-width="1px"></line><line x1="87.75" y1="297.8794999772385" x2="82.75" y2="297.8794999772385" style="visibility: inherit;" fill="rgb(0, 0, 0)" stroke="rgb(204, 204, 204)" stroke-width="1px"></line><line x1="87.75" y1="260.348991917397" x2="82.75" y2="260.348991917397" style="visibility: inherit;" fill="rgb(0, 0, 0)" stroke="rgb(204, 204, 204)" stroke-width="1px"></line><line x1="87.75" y1="222.81848385755546" x2="82.75" y2="222.81848385755546" style="visibility: inherit;" fill="rgb(0, 0, 0)" stroke="rgb(204, 204, 204)" stroke-width="1px"></line><line x1="87.75" y1="185.28797579771395" x2="82.75" y2="185.28797579771395" style="visibility: inherit;" fill="rgb(0, 0, 0)" stroke="rgb(204, 204, 204)" stroke-width="1px"></line><line x1="87.75" y1="147.75746773787242" x2="82.75" y2="147.75746773787242" style="visibility: inherit;" fill="rgb(0, 0, 0)" stroke="rgb(204, 204, 204)" stroke-width="1px"></line><line x1="87.75" y1="110.22695967803094" x2="82.75" y2="110.22695967803094" style="visibility: inherit;" fill="rgb(0, 0, 0)" stroke="rgb(204, 204, 204)" stroke-width="1px"></line><line x1="87.75" y1="72.69645161818943" x2="82.75" y2="72.69645161818943" style="visibility: inherit;" fill="rgb(0, 0, 0)" stroke="rgb(204, 204, 204)" stroke-width="1px"></line><line x1="87.75" y1="35.16594355834786" x2="82.75" y2="35.16594355834786" style="visibility: inherit;" fill="rgb(0, 0, 0)" stroke="rgb(204, 204, 204)" stroke-width="1px"></line></g><g transform="translate(77.75, 0)"><text x="0" y="372.9405160969215" dx="0em" dy="0.3em" style="text-anchor: end; visibility: hidden; font-family: &quot;Helvetica Neue&quot;, sans-serif; font-size: 12px; font-weight: 200;" fill="rgb(50, 49, 63)" stroke="none" stroke-width="1px">-1.00e+3</text><text x="0" y="335.41000803708" dx="0em" dy="0.3em" style="text-anchor: end; visibility: inherit; font-family: &quot;Helvetica Neue&quot;, sans-serif; font-size: 12px; font-weight: 200;" fill="rgb(50, 49, 63)" stroke="none" stroke-width="1px">-800</text><text x="0" y="297.8794999772385" dx="0em" dy="0.3em" style="text-anchor: end; visibility: inherit; font-family: &quot;Helvetica Neue&quot;, sans-serif; font-size: 12px; font-weight: 200;" fill="rgb(50, 49, 63)" stroke="none" stroke-width="1px">-600</text><text x="0" y="260.348991917397" dx="0em" dy="0.3em" style="text-anchor: end; visibility: inherit; font-family: &quot;Helvetica Neue&quot;, sans-serif; font-size: 12px; font-weight: 200;" fill="rgb(50, 49, 63)" stroke="none" stroke-width="1px">-400</text><text x="0" y="222.81848385755546" dx="0em" dy="0.3em" style="text-anchor: end; visibility: inherit; font-family: &quot;Helvetica Neue&quot;, sans-serif; font-size: 12px; font-weight: 200;" fill="rgb(50, 49, 63)" stroke="none" stroke-width="1px">-200</text><text x="0" y="185.28797579771395" dx="0em" dy="0.3em" style="text-anchor: end; visibility: inherit; font-family: &quot;Helvetica Neue&quot;, sans-serif; font-size: 12px; font-weight: 200;" fill="rgb(50, 49, 63)" stroke="none" stroke-width="1px">0.00</text><text x="0" y="147.75746773787242" dx="0em" dy="0.3em" style="text-anchor: end; visibility: inherit; font-family: &quot;Helvetica Neue&quot;, sans-serif; font-size: 12px; font-weight: 200;" fill="rgb(50, 49, 63)" stroke="none" stroke-width="1px">200</text><text x="0" y="110.22695967803094" dx="0em" dy="0.3em" style="text-anchor: end; visibility: inherit; font-family: &quot;Helvetica Neue&quot;, sans-serif; font-size: 12px; font-weight: 200;" fill="rgb(50, 49, 63)" stroke="none" stroke-width="1px">400</text><text x="0" y="72.69645161818943" dx="0em" dy="0.3em" style="text-anchor: end; visibility: inherit; font-family: &quot;Helvetica Neue&quot;, sans-serif; font-size: 12px; font-weight: 200;" fill="rgb(50, 49, 63)" stroke="none" stroke-width="1px">600</text><text x="0" y="35.16594355834786" dx="0em" dy="0.3em" style="text-anchor: end; visibility: inherit; font-family: &quot;Helvetica Neue&quot;, sans-serif; font-size: 12px; font-weight: 200;" fill="rgb(50, 49, 63)" stroke="none" stroke-width="1px">800</text></g><line x1="87.75" y1="0" x2="87.75" y2="377.828125" fill="rgb(0, 0, 0)" stroke="rgb(204, 204, 204)" stroke-width="1px"></line></g></g><g transform="translate(87, 0)" clip-path="url(#clip_0)"><clipPath id="clip_0"><rect width="792" height="377"></rect></clipPath><g><g><g><line x1="10.481392727244351" y1="0" x2="10.481392727244351" y2="377.828125" fill="rgb(0, 0, 0)" stroke="rgb(60, 60, 60)" stroke-width="1px" opacity="0.25"></line><line x1="86.20823059287241" y1="0" x2="86.20823059287241" y2="377.828125" fill="rgb(0, 0, 0)" stroke="rgb(60, 60, 60)" stroke-width="1px" opacity="0.25"></line><line x1="161.93506845850047" y1="0" x2="161.93506845850047" y2="377.828125" fill="rgb(0, 0, 0)" stroke="rgb(60, 60, 60)" stroke-width="1px" opacity="0.25"></line><line x1="237.66190632412852" y1="0" x2="237.66190632412852" y2="377.828125" fill="rgb(0, 0, 0)" stroke="rgb(60, 60, 60)" stroke-width="1px" opacity="0.25"></line><line x1="313.3887441897566" y1="0" x2="313.3887441897566" y2="377.828125" fill="rgb(0, 0, 0)" stroke="rgb(60, 60, 60)" stroke-width="1px" opacity="0.25"></line><line x1="389.11558205538466" y1="0" x2="389.11558205538466" y2="377.828125" fill="rgb(0, 0, 0)" stroke="rgb(60, 60, 60)" stroke-width="1px" opacity="0.25"></line><line x1="464.8424199210127" y1="0" x2="464.8424199210127" y2="377.828125" fill="rgb(0, 0, 0)" stroke="rgb(60, 60, 60)" stroke-width="1px" opacity="0.25"></line><line x1="540.5692577866408" y1="0" x2="540.5692577866408" y2="377.828125" fill="rgb(0, 0, 0)" stroke="rgb(60, 60, 60)" stroke-width="1px" opacity="0.25"></line><line x1="616.2960956522688" y1="0" x2="616.2960956522688" y2="377.828125" fill="rgb(0, 0, 0)" stroke="rgb(60, 60, 60)" stroke-width="1px" opacity="0.25"></line><line x1="692.022933517897" y1="0" x2="692.022933517897" y2="377.828125" fill="rgb(0, 0, 0)" stroke="rgb(60, 60, 60)" stroke-width="1px" opacity="0.25"></line><line x1="767.749771383525" y1="0" x2="767.749771383525" y2="377.828125" fill="rgb(0, 0, 0)" stroke="rgb(60, 60, 60)" stroke-width="1px" opacity="0.25"></line></g><g><line x1="0" y1="372.9405160969215" x2="792.75" y2="372.9405160969215" fill="rgb(0, 0, 0)" stroke="rgb(60, 60, 60)" stroke-width="1px" opacity="0.25"></line><line x1="0" y1="335.41000803708" x2="792.75" y2="335.41000803708" fill="rgb(0, 0, 0)" stroke="rgb(60, 60, 60)" stroke-width="1px" opacity="0.25"></line><line x1="0" y1="297.8794999772385" x2="792.75" y2="297.8794999772385" fill="rgb(0, 0, 0)" stroke="rgb(60, 60, 60)" stroke-width="1px" opacity="0.25"></line><line x1="0" y1="260.348991917397" x2="792.75" y2="260.348991917397" fill="rgb(0, 0, 0)" stroke="rgb(60, 60, 60)" stroke-width="1px" opacity="0.25"></line><line x1="0" y1="222.81848385755546" x2="792.75" y2="222.81848385755546" fill="rgb(0, 0, 0)" stroke="rgb(60, 60, 60)" stroke-width="1px" opacity="0.25"></line><line x1="0" y1="185.28797579771395" x2="792.75" y2="185.28797579771395" fill="rgb(0, 0, 0)" stroke="rgb(60, 60, 60)" stroke-width="1px" opacity="0.25"></line><line x1="0" y1="147.75746773787242" x2="792.75" y2="147.75746773787242" fill="rgb(0, 0, 0)" stroke="rgb(60, 60, 60)" stroke-width="1px" opacity="0.25"></line><line x1="0" y1="110.22695967803094" x2="792.75" y2="110.22695967803094" fill="rgb(0, 0, 0)" stroke="rgb(60, 60, 60)" stroke-width="1px" opacity="0.25"></line><line x1="0" y1="72.69645161818943" x2="792.75" y2="72.69645161818943" fill="rgb(0, 0, 0)" stroke="rgb(60, 60, 60)" stroke-width="1px" opacity="0.25"></line><line x1="0" y1="35.16594355834786" x2="792.75" y2="35.16594355834786" fill="rgb(0, 0, 0)" stroke="rgb(60, 60, 60)" stroke-width="1px" opacity="0.25"></line></g></g></g><g><g><line x1="0" y1="185.28797579771395" x2="792.75" y2="185.28797579771395" fill="rgb(0, 0, 0)" stroke="rgb(153, 153, 153)" stroke-width="1.5px"></line></g></g><g><g><line x1="10.481392727244351" y1="0" x2="10.481392727244351" y2="377.828125" fill="rgb(0, 0, 0)" stroke="rgb(153, 153, 153)" stroke-width="1.5px"></line></g></g><g><g><g><g><g><path stroke="rgb(187, 187, 187)" stroke-width="2px" d="M11.844475808825658,179.81362146302135L12.298836836019426,137.0586584455572L13.510466241869475,103.04166125314913L13.66191991760073,88.9778663390316L13.889100431197614,74.97827611109528L14.722095647719522,93.73778693636956L15.857998215703944,91.73264579239657L16.08517872930083,97.11721428383362L17.599715486613388,100.12130067431741L18.508437541000927,97.62007632940401L20.022974298313486,92.29309811549649L22.219052596416702,90.99720267513862L22.446233110013587,88.49273691483444L23.127774650804238,85.44588444652004L24.33940405665429,79.38859080727951L24.490857732385543,75.37099403737534L27.822838598473176,72.79285104426674L28.20147278780132,70.85327316660391L29.337375355785742,75.82702899387175L29.791736382979508,73.155717519039L30.170370572307647,70.07495363463403L30.700458437367047,70.95987931376766L31.154819464560816,77.44856181788248L33.805258789857795,78.72777131498634L33.95671246558905,76.42620964345377L34.56252716851407,74.41644319937456L36.152790763692266,71.71482016863837L36.75860546661729,71.59234318331988L38.273142223929845,71.41580855018901L42.36239146867376,73.40419046885683L42.43811830653939,74.46897853238232L43.72547455025507,74.5740824270975L43.95265506385196,78.09211197904L44.17983557744884,78.67871931198471L45.31573814543326,83.9098731221348L45.54291865903014,88.9146428898805L45.61864549689577,93.77781749668367L46.37591387555205,98.8480985777141L47.81472379499898,97.979114616723L49.404987390177176,99.35813082924199L50.69234363389285,103.18619105024624L51.070977823220986,106.62796164815222L53.11560244559295,106.3316968938089L53.872870824249226,104.74701376588388L54.327231851442995,105.94291674486232L54.857319716502396,107.54583609813125L54.93304655436802,109.28070853815541L57.432032203933744,106.38925279231222L57.58348587966501,105.04920395483532L58.492207934052544,104.10898998143875L59.02229579911194,102.02554520587677L59.09802263697757,102.47320955296078L59.24947631270882,103.6050096738274L59.47665682630571,101.09298665347683L59.62811050203697,103.61086309873707L60.53683255642451,103.90580631555997L61.29410093508078,104.11958181046981L64.5503549633028,103.64705210491292L65.15616966622781,106.76760740221056L65.76198436915283,110.73679078412249L66.44352590994349,114.40146149099422L67.42797480219666,117.5502159860373L67.73088215365917,119.82844803783297L68.41242369444983,122.53222500512837L68.71533104591232,124.568723854969L68.86678472164358,125.82980353937242L69.01823839737484,128.61476511455618L69.54832626243424,130.366501689922L69.92696045176238,131.96947715184533L70.07841412749363,133.7975636516359L70.45704831682178,136.157041762921L70.60850199255303,138.21674695314195L70.91140934401555,140.48757478785475L71.21431669547805,142.67567815044677L71.66867772267182,143.28512583072114L71.74440456053745,145.39882227070905L73.4861218314469,147.91992597436408L73.78902918290942,148.4870894341922L76.28801483247514,147.56132439380337L76.81810269753453,147.5967477786889L77.2724637247283,149.3232297927876L78.3326394548471,151.3921927714154L78.6355468063096,153.51567457970373L79.165634671369,154.88994592499708L79.31708834710025,156.45091129398116L79.92290305002528,157.79342324156136L80.98307878014408,158.88824985305797L81.05880561800971,160.35305722900986L81.81607399666598,162.0907015253961L82.04325451026287,162.60014625002938L82.72479605105352,163.43764885425847L83.33061075397853,164.32859786631823L84.0121522947692,164.7023696100442L84.08787913263482,164.74147634478012L84.5422401598286,165.23859686971775L84.61796699769423,166.09627187249544L84.99660118702236,166.95450152602515L86.35968426860367,167.88952886791296L86.58686478220055,168.63611401992708L87.2684063229912,168.69844361772374L89.54021145896004,168.53869944766433L90.52466035121321,169.44645424656582L90.97902137840698,169.91802521797783L91.20620189200386,169.75890900775076L91.35765556773512,170.3837881912151L91.66056291919763,171.3471805443387L92.1149239463914,167.84024445466778L92.49355813571954,167.48604348335525L93.25082651437582,165.0430972541814L93.70518754156959,164.01265893857033L94.08382173089772,164.5444405004662L94.841090109554,164.1353594600998L98.02161729991039,161.3961215576641L98.3245246513729,160.86768397688985L98.40025148923853,162.27268405199774L98.47597832710416,161.6032936426553L99.83906140868545,162.5130708551111L100.82351030093862,162.2870133269667L101.80795919319179,163.2739989350056L103.77685697769812,161.07215007008304L104.68557903208566,157.0200337281865L105.51857424860758,156.6545367172562L105.74575476220446,156.94392549842993L105.97293527580135,154.4059755232364L107.48747203311389,154.62128891827257L107.94183306030766,152.809620746479L108.47192092536706,149.7700123669931L108.92628195256083,148.98991655748398L110.13791135841088,149.3185754786182L110.36509187200777,149.29623042185017L111.19808708852968,146.41146990820508L111.42526760212654,148.08404091524235L111.65244811572344,148.8493593912313L111.72817495358908,149.21740963160082L115.36306317113922,147.4422871504393L115.5902436847361,149.16285547579238L115.81742419833299,150.5301145366141L115.89315103619862,151.90001696185334L117.55914146924243,149.83586684080726L118.46786352362997,149.91870863096057L119.22513190228624,147.13053084610868L119.52803925374874,144.28992298923657L121.42121020038945,145.31441355800544L121.49693703825508,145.43060115926818L122.32993225477699,143.517825991765L122.93574695770202,142.10898283483084L123.23865430916453,142.07333838023416L123.39010798489579,140.13130019662742L125.8133667965959,139.9428093780775L126.1162741480584,139.62893396084326L128.00944509469912,142.1278082082734L129.22107450054915,143.90859343609324L129.29680133841478,146.39307667157172L130.43270390639918,145.82686804351368L130.7356112578617,147.52752236044068L131.94724066371177,149.79304255491925L132.0229675015774,151.1900787990771L133.68895793462121,151.41009352457405L134.06759212394934,151.29421558614504L134.44622631327746,152.91801010441134L134.67340682687438,152.99184764037543L135.0520410162025,154.3068562829906L135.2792215297994,155.33526723446872L136.18794358418694,155.02110657346924L136.79375828711196,153.38486833799251L137.32384615217134,155.2112829544084L137.85393401723076,155.9516474963715L138.5354755580214,154.6232603231349L138.83838290948393,151.77872793826415L138.98983658521516,149.13891782411451L139.14129026094642,148.86808901108847L139.3684707745433,149.68934671991852L139.8985586396027,148.92938429569327L140.58010018039337,147.9939209912887L141.33736855904962,145.81569116925618L141.64027591051214,145.58651751764805L141.7917295862434,142.41486814671325L142.0189100998403,143.13849258619095L142.39754428916842,141.49582943663435L142.62472480276531,140.18400952564338L142.70045164063094,137.3953952360277L144.2149883979435,134.8256690309453L144.89652993873415,132.62818025202586L145.35089096592793,134.0231213916068L145.88097883098732,132.08580903088986L145.95670566885295,130.3714572470384L146.6382472096436,131.8289305589297L147.16833507470298,129.33418820280562L148.7585986698812,127.16528409896392L149.0615060213437,129.46321948328088L149.81877439999997,129.869044279318L150.1216817514625,126.99500280320467L150.80322329225314,124.8525264072102L151.7876721845063,122.19873779296444L152.01485269810317,120.22648327426981L152.46921372529695,121.88032851835518L152.62066740102821,124.09244999665952L155.19537988845957,124.81151087612474L155.64974091565333,122.87809362748183L156.93709715936902,121.44007370759573L157.6943655380253,119.76733267326892L157.9215460516222,117.91041049356625L158.07299972735345,118.48454560692358L159.43608280893474,116.70399559741998L160.49625853905354,114.3086140176913L160.64771221478478,115.92972307168884L162.0107952963661,117.73337810507792L162.31370264782862,118.89589659365237L162.91951735075364,121.54140446995058L164.2068735944693,124.04867494523279L164.66123462166306,127.52927728726777L166.47867873043813,129.238006008739L167.4631276226913,131.2418949460373L167.6903081362882,134.47958043340276L167.76603497415383,134.60803243670082L167.9174886498851,135.71928301774037L168.06894232561635,135.8264016844962L168.37184967707884,137.152714448377L168.67475702854136,136.7555672013028L169.20484489360075,137.23047335888117L170.34074746158518,136.90938430001066L172.91545994901654,135.1911377249687L173.21836730047903,133.3577652143381L173.74845516553845,132.18042007592697L174.4299967063291,133.53383999463654L175.33871876071663,136.40036574676137L176.0959871393729,138.29001957591979L176.24744081510417,141.29276769424953L176.39889449083543,143.16940188966595L176.77752868016358,145.53313283766857L177.00470919376045,148.57082259860428L177.6105238966855,150.68146653988578L177.913431248148,151.86286866113718L179.42796800546057,153.083169806038L179.8066021947887,154.58310600423073L179.88232903265433,156.09174738649872L180.03378270838556,156.01432694244104L180.26096322198245,157.36308883469232L180.56387057344497,156.44661680537362L180.6395974113106,156.63600955759188L181.16968527637,155.03613580362222L181.39686578996688,152.3049663083071L181.77549997929503,149.90679001740747L183.21430989874196,147.33994900425833L183.97157827739824,144.8855517625661L184.42593930459202,142.54099604639737L184.88030033178578,142.19816729273634L185.1832076832483,140.28465186678693L186.0919297376358,138.05070492214466L186.16765657550144,136.06971163659642L188.06082752214215,133.8757144708947L188.7423690629328,135.32117950970897L191.39280838822978,138.39042885568708L191.4685352260954,139.20252352889014L191.61998890182667,141.07717035225312L194.9519697679143,142.90703728190923L195.55778447083932,145.06856998360595L196.08787233589874,146.3800560841703L196.23932601162997,147.3773267021336L196.39077968736123,148.47441958133848L196.76941387668938,150.0335938472184L198.66258482333006,151.36614795247698L198.7383116611957,153.82605735355702L199.49558003985197,155.8063334353949L199.64703371558323,157.75413935472727L200.02566790491142,159.5419789342179L201.08584363503016,162.02953307495036L201.54020466222394,163.0695396246218L202.2217462030146,163.91667701816593L203.35764877099902,164.18716899565018L203.66055612246154,164.95592519907598L203.81200979819278,165.39623018284826L205.70518074483348,165.0094373378098L206.61390279922102,164.44261163341625L207.3711711778773,165.47375401206145L207.82553220507108,166.52630623972203L209.11288844878672,167.17591652583295L209.56724947598053,166.11510928124736L209.64297631384616,165.70074211958655L210.70315204396496,165.28128795578914L211.1575130711587,166.28470764498968L211.53614726048687,166.29582392539137L213.2778645313963,166.60864380776627L213.80795239645568,168.04899038407308L214.18658658578383,168.60190004322112L215.171035478037,169.89103074995293L215.70112334309638,172.0820211486561L216.83702591108081,171.8427622413627L217.74574796546835,173.59316838441364L217.97292847906525,174.7236488238185L219.03310420918402,176.00393880759302L221.68354353448103,175.79833673894043L221.7592703723466,177.60268949993602L221.83499721021224,178.51908876793294L223.1980802917936,178.99986536624115L224.33398285977802,180.72877039900806L227.96887107732815,181.90737371323738L228.6504126181188,183.67152554119994L229.33195415890944,184.54363178823291L229.78631518610322,185.33684662085162L231.3765787812814,185.89965548787805L231.52803245701267,186.26683436764526L231.6037592948783,187.18938168406612L235.16292067456283,188.95578900442072L235.76873537748784,189.33757278227998L237.51045264839726,190.44565568529148L238.1919941891879,191.09851138987094L238.49490154065043,191.3143471446391L238.79780889211298,191.44449664550459L239.7065309465005,191.77549007198098L239.93371146009736,192.2983167177817L240.5395261630224,192.72997823590507L240.76670667661926,193.49242029516515L242.58415078539434,193.67130243436753L242.88705813685687,193.69079084028184L243.03851181258813,193.95100036570673L245.15886327282573,194.47612528234015L246.90058054373517,195.71041607124906L248.03648311171955,196.98347996168076L248.64229781464462,198.26159943267805L249.02093200397272,198.14012174746617L249.3995661933009,198.27174371193578L249.85392722049463,197.70153576143846L251.0655566263447,198.03081996849045L252.42863970792598,198.10973756895518L252.5043665457916,197.48275582731617L253.03445441085103,197.7215176172936L253.26163492444792,199.20092565873034L255.079079033223,200.10807382225386L255.30625954681986,199.98785938974677L255.83634741187927,199.89870676368946L256.06352792547614,199.78197385222515L256.13925476334174,199.69779406421472L256.290708439073,199.60726822857418L256.36643527693866,199.08045366090587L258.25960622357934,198.9996451878123L258.94114776437,198.88542845464173L260.75859187314506,198.2319098890056L261.3644065760701,198.41652830073605L262.4245823061889,198.35780402572277L262.50030914405454,198.49998880802548L263.78766538777023,199.53247007929403L265.9837436858734,198.9530980540889L266.13519736160464,198.5102404449854L266.89246574026095,199.985011414817L268.17982198397664,201.74185562039006L268.5584561733048,202.72869019248208L270.2244466063486,203.83492617408456L270.8302613092736,203.34486113516914L271.66325652579553,204.96350053822584L271.8147102015268,204.957034759169L272.3447980665862,204.40058786072757L272.79915909377996,204.94506696674418L273.32924695883935,205.40542604620825L273.78360798603313,207.37447885096475L274.01078849963,207.1229145270068L275.2981447433457,208.53612847887246L276.2068667977332,208.17031650742544L276.4340473113301,208.0064075563381L276.9641351763895,208.53955774980017L278.17576458223954,207.83788381934608L278.3272182579708,209.39733461689875L278.7815792851645,209.9015752859922L279.0844866366271,208.30337491236932L280.29611604247714,207.97033685640238L281.5834722861928,208.09608897156065L283.09800904350533,208.16563467882725L284.4610921250867,206.8781079518236L284.61254580081794,208.06702739506713L284.7639994765492,209.06711267648421L284.99117999014607,208.66362212872988L285.21836050374293,207.75478229452094L286.5057167474586,207.56306084592214L287.33871196398053,207.0837796866087L288.39888769409936,208.599101431697L290.67069283006816,208.47036244128694L290.8221465057994,209.6501947712405L292.6395906145745,210.79665029105982L292.942497966037,211.09947827423719L293.09395164176823,210.38734162739559L293.54831266896207,211.55867630891834L293.77549318255893,212.57133154065494L293.92694685829014,213.97907984827629L294.60848839908084,213.02365441032703L295.1385762641402,214.09214647561225L296.1230251563934,213.93775820931288L296.7288398593184,213.88152367174035L297.71328875157155,215.30838995043294L297.8647424273028,215.84541698206093L298.09192294089974,215.15917890756862L299.30355234674977,215.00075534895535L299.6821865360779,214.78842840120697L299.83364021180915,214.684170869172L300.59090859046546,216.0632126103476L300.893815941928,215.89565075559148L303.0898942400312,216.19626099194866L303.4685284293593,217.48054215362583L303.9986162944187,217.5550045323263L307.3305971605064,219.02415075487684L307.9364118634314,218.1069728640217L308.46649972849076,218.97983867112737L308.7694070799533,219.35618378737732L309.6024022964752,218.0103778453086L310.056763323669,219.37679606128933L310.5111243508627,218.4922472417942L312.1771147839065,219.94856264717677L313.0101100004284,220.2517196042393L313.3887441897566,220.54513528184143L314.07028573054725,219.78544088185419L314.14601256841286,220.03848959560992L315.0547346228004,219.25895766378667L315.88772983932233,217.99747536403456L316.1149103529192,217.31832838101855L316.8721787315755,216.7383402887445L320.43134011126,218.0701305642295L320.8099743005881,217.50414208559826L320.8857011384538,219.19776567181293L321.64296951711003,218.48948210675346L327.1710286813009,219.86045681954943L328.00402389782283,219.25146108656222L328.07975073568844,218.6475667063906L328.23120441141964,218.05293911876404L328.38265808715096,218.05507057532168L328.6098386007478,217.3822347972477L328.6855654386135,216.4637690426137L330.57873638525416,218.0590326705079L330.9573705745823,217.79202751802305L331.18455108817915,219.47514388918546L331.7903657911042,219.08193123402052L332.62336100762616,218.0394420082253L333.30490254841675,218.67754709911952L333.53208306201367,218.28419896700797L333.60780989987927,219.8026129686938L334.7437124678637,221.37152697199997L335.95534187371373,222.75863334261751L336.4097029009075,222.052542543081L336.71261025237004,222.18480301159326L337.3941517931607,223.00063056103616L337.54560546889195,222.07213046100614L338.2271470096826,220.98752982324197L338.5300543611451,222.17202937477148L339.363049577667,222.29091200346753L341.33194736217337,222.95440911686134L342.013488902964,224.45197488165505L343.14939147094844,223.9805740532092L343.6794793360078,223.91895480802793L344.1338403632016,225.1485899841155L344.4367477146641,226.63187327858927L344.5124745525297,228.4139330913343L345.95128447197663,229.31973486589928L346.17846498557356,227.99653098755013L348.90463114873614,227.3160307773886L349.3589921759299,226.90272451339123L350.49489474391436,226.64528920337503L350.6463484196456,228.25112032095183L351.93370466336125,227.34669056328613L352.0094315012269,226.09155388414808L353.4482414206738,225.90548976157694L353.5239682585394,224.70376297281777L353.75114877213633,224.7806293197148L354.432690312927,225.46034601684323L355.2656855294489,227.19100917647813L357.15885647608957,227.30690046629195L357.3860369896865,227.52463479478757L358.2190322062084,229.4718218530358L358.44621271980526,229.84607244863273L358.5976663955365,230.5637900508621L358.74912007126784,229.22534861297336L359.65784212565535,229.9515384901267L360.945198369371,231.40370942626348L362.5354619645492,232.14838440131624L363.0655498296086,232.9823975314785L363.67136453253363,231.95689002374272L363.97427188399615,230.83085485844637L364.50435974905554,231.53180254714945L364.58008658692114,232.35682911858737L364.6558134247868,231.72970244640413L365.41308180344305,231.47462579784238L367.3819795879494,231.33081939578545L367.76061377727757,232.49516702066674L368.97224318312755,233.995208861742L369.80523839964945,233.25790442539596L370.108145751112,232.6283486944232L370.18387258897764,232.54543453167523L370.7896872919026,233.0919700541143L371.2440483190964,232.21109579807936L371.4712288326933,233.09737099602506L372.152770373484,232.12224855949728L372.45567772494644,231.14088862798147L372.9857655900059,230.37130908398896L373.0614924278715,229.81773764041048L373.51585345506527,231.26669774094324L373.97021448225905,230.58795593575152L374.1216681579903,230.1786025386675L374.3488486715872,229.62609284694366L376.99928799688416,229.85040194258062L377.9080100512717,229.07105934706584L379.3468199707186,228.92327363730712L379.4982736464499,229.38977462148125L381.0885372416281,229.50700608009257L382.6030739989406,230.12286527890686L384.4205181077157,231.10956083686023L384.6476986213126,230.81633285221744L385.63214751356577,231.66547134104792L386.23796221649076,232.61382978954757L386.9195037572814,232.7707300240246L387.1466842708783,231.65581029256938L387.2981379466096,232.96736874392346L387.3738647844752,234.62572634443077L390.7058456505628,236.31868230429643L391.1602066777566,234.63311525657116L391.38738719135347,235.67886235312045L391.9174750564129,234.65287709625218L392.9019239486661,234.35801131189817L393.05337762439734,235.08647375915476L393.12910446226294,236.5557606717966L393.65919232732233,238.31511012028875L395.0222754089036,237.13122513948298L396.76399267981304,236.61050442935849L397.1426268691412,236.58785836777395L398.6571636264538,235.39498818481877L398.80861730218504,233.80150842470317L399.2629783293788,232.69564004720354L401.23187611388516,232.4281919011825L401.6105103032133,232.25357666134317L402.897866546929,231.23459241500942L404.2609496285103,230.60352770144175L404.8667643314353,230.37190245229988L406.60848160234474,229.72942967290527L406.91138895380726,229.56273717964743L407.2142963052697,228.64223868955526L407.29002314313533,229.10848288305004L409.25892092764167,228.11330691406107L411.00063819855114,228.15487097374498L413.19671649665435,227.82342290794756L414.0297117131763,227.17712753919994L415.24134111902634,226.30667974788315L416.30151684914506,225.63913601909758L416.3772436870107,224.9556242670726L417.89178044432333,224.2877771462166L419.7092245530984,223.22778387751646L420.92085395894844,224.12699806154524L422.35966387839534,223.11036256720848L422.58684439199226,222.4113142727116L422.96547858132044,221.66354723753622L425.76737158234863,220.9485611065616L426.297459447408,219.80688516932688L426.60036679887054,218.71796145724463L427.05472782606427,218.15175761879422L427.50908885325805,217.5040176479516L427.88772304258623,217.03267869273867L428.1149035561831,217.9763484627085L428.26635723191436,217.33923593523767L430.08380134068943,216.74309911498318L430.6896160436144,218.61049772339638L431.97697228733017,218.97791065058573L432.3556064766583,218.34694194245338L432.5070601523895,219.2782767857226L433.41578220677707,220.72706884493715L433.5672358825083,222.61414305688245L434.0215969097021,224.51555578500913L434.9303189640896,223.96507103725168L435.30895315341775,226.11915028050666L436.066221532074,225.22052648622522L436.8234899107303,226.6429191464823L438.9438413709679,228.82039701456904L439.09529504669916,230.8064585077348L439.3982023981617,230.6543054389124L440.5341049661461,229.44144824707635L443.63890531863683,228.0411981980025L443.8660858322337,230.0237880886337L445.229168913815,229.03462164120253L446.5922519953964,229.85773592931918L447.87960823911203,229.25951844219856L448.1067887527089,228.56543746695067L448.4854229420371,227.9663307676752L448.86405713136514,228.42390507075496L450.2271402129465,231.2212047399689L450.30286705081215,233.51943604913836L451.5902232945278,234.15998481076844L451.8174038081247,233.32479468660034L452.34749167318404,234.94824999009012L454.392116295556,234.5507746325802L454.54356997128724,233.46633851447982L455.0736578363467,232.96978964871562L456.436740917928,232.82322902179538L457.1182824587187,231.76548218336907L457.7998239995093,230.95408042767022L458.5570923781656,230.0040193013049L459.39008759468754,229.55054518363386L459.69299494614995,230.40578506097745L459.7687217840156,230.31716071732873L461.2075317034626,231.10530027305728L461.5861658927907,229.65793952298802L461.73761956852195,230.4182348226064L462.0405269199845,231.7721412041398L462.7220684607751,231.11353605404582L464.0851515423564,230.9081538298066L465.59968829966897,231.86279509648037L465.97832248899715,233.01124576913122L466.6598640297878,233.85091008861093L467.1142250569815,234.88533365018205L467.1899518948471,236.4048771694031L467.4928592463097,237.56443703035188L467.72003975990657,239.23023479817388L469.3860301929504,238.66321079313343L470.7491132745317,239.05588561764742L471.0520206259942,238.5941917613498L471.4306548153224,239.4254455077025L472.64228422117236,238.95574906592253L472.7937378969036,238.04071228858055L473.55100627556,239.49313650620132L474.00536730275365,240.14858009665102L474.1568209784849,240.73866995652284L474.6111820056787,242.37966975083748L474.76263568140996,243.02344725303615L474.9140893571412,242.3278437606531L475.82281141152873,242.82154302423584L475.97426508726,244.34675304206314L476.12571876299126,245.55834345754968L477.86743603390073,245.69611622833222L478.5489775746914,243.51384697874462L478.7761580882883,243.30761905858606L479.98778749413833,243.4657525182861L480.82078271066024,244.92232695911818L480.9722363863915,247.01452003190784L481.4265974135852,248.76669716305383L482.41104630583845,246.7383608751964L482.7896804951666,245.93037480817625L483.3197683602259,244.01807526120524L483.7741293874197,242.50009961383296L484.75857827967286,244.13682100701695L486.7274760641792,245.71902928436324L488.4691933350886,246.04783718335443L488.77210068655114,245.9538002970506L488.8478275244168,247.5085920225325L489.3779153894762,248.3283371485829L490.6652716331919,246.46530015503342L491.4982668497138,245.3397069823968L492.33126206623564,246.82745505448696L492.8613499312951,245.7363523311386L493.31571095848886,244.0140944174135L495.13315506726394,242.60290548468475L499.2981311498734,244.00870781898692L499.60103850133595,245.70320346574968L500.5854873935892,244.35760121199178L501.72138996157355,246.31003155682228L502.3272046644986,245.75139350084564L502.40293150236425,245.03806064533686L502.7058388538268,243.64698037181608L503.463107232483,242.36064679615657L504.22037561113933,242.34440949234303L504.29610244900493,244.41857908876005L504.3718292868706,246.31202348379097L504.9776439897955,246.9045599100761L506.4921807471081,245.71145012548462L508.30962485588316,244.87412109909215L508.8397127209426,245.16029329467227L509.06689323453946,246.40900647983523L509.8241616131958,245.05655582157885L510.5057031539864,244.02412251157446L510.7328836675833,244.7458281727375L511.49015204623964,244.3447266740363L511.8687862355677,246.02316760953875L514.5949523987304,246.8715262947234L515.2764939395211,246.53615283289017L515.4279476152522,245.06565485976432L515.7308549667148,247.10486223374923L516.1852159939085,246.3686226596398L516.4123965075054,244.94930052858678L516.9424843725649,245.89757290537028L517.5482990754898,243.87887281824155L517.7754795890867,242.62300716771122L518.3812942920117,242.8994777779496L518.6842016434742,244.5323492832236L518.9871089949368,244.1299749601731L520.7288262658462,243.14113136557503L521.0317336173086,245.29917081021193L521.5618214823681,247.30175103748988L521.8647288338307,246.25582886539559L522.6977240503525,245.9235394801909L523.60644610474,247.57367781895096L524.8180755105901,247.22780661247145L526.7112464572308,245.7061533252267L527.8471490252152,244.26738406503867L528.907324755334,243.50483875826617L529.513139458259,244.27420835610423L530.1189541611841,243.58058021625033L530.5733151883778,245.3850957658415L530.6490420262435,247.3066612352239L532.6179398107498,249.5573320670006L533.6781155408686,249.91836058427688L535.5712864875093,249.1025731866184L536.858642731225,251.15084171940444L537.7673647856125,249.63482796240447L537.9945452992094,247.65579415278913L538.4489063264032,249.34633516028492L539.8119894079845,249.6276827758309L539.9634430837158,249.35679370036777L541.3265261652971,250.08582535264384L541.6294335167596,249.5950083365352L543.2196971119378,249.3423908636657L543.5226044634003,247.3118091255298L544.0526923284597,248.97077921523072L545.0371412207128,251.13288305572277L545.4915022479066,249.5795985164175L546.5516779780254,251.10502910775108L547.460400032413,250.05922265491506L548.5963026003973,248.6996415235561L549.2021173033223,247.2489852921123L549.277844141188,245.8187767082432L550.9438345742318,247.88896813531596L551.2467419256943,248.42447629040268L552.3069176558131,247.9413268063031L553.2156397102007,247.99812953860558L553.2913665480663,247.24004407083586L553.8214544131257,249.40157827855705L554.8816301432445,251.7749222911217L555.3359911704382,250.96839056074592L555.8660790354976,250.8259099581103L556.0175327112289,249.8224052872789L556.6990742520196,249.4812043987261L556.8505279277508,248.47654830096238L556.9262547656164,250.23094080450284L558.3650646850634,249.9541284753659L558.5922451986603,248.4127746480903L559.2737867394509,250.30075803972252L560.2582356317041,249.59404976211388L562.0756797404791,248.31469258414864L563.2873091463292,250.3839120873076L564.1203043628511,249.837594178444L565.4833874444324,248.5572773195547L566.2406558230887,248.34189623902122L566.3163826609543,246.83273574946662L566.7707436881481,245.0580989414758L567.3008315532074,243.62294506300336L567.60373890467,241.84377146758314L567.6794657425356,240.9194052764239L567.7551925804012,239.63443576820845L569.4211830134451,241.31989796359602L569.4969098513108,241.17769397584263L569.7998172027732,243.90811833338628L569.9512708785044,242.52750831951496L570.6328124192951,240.7013599481236L570.9357197707576,239.69914850535645L573.1317980688609,238.51702068844764L573.2075249067265,237.89136545945098L573.889066447517,240.12715380953503L574.116246961114,239.0084769252678L574.6463348261734,239.28613653668262L575.4036032048297,238.1714896859588L575.4793300426953,236.5590933718524L575.6307837184265,235.4036225942687L576.0094179077547,238.05923641671248L576.4637789349484,238.0693273549402L576.766686286411,237.28488953459942L576.9181399621422,237.13420398307645L578.1297693679923,238.56730261213886L578.584130395186,237.7823836345559L578.6598572330516,237.61762432638426L579.2656719359767,236.53090671251903L580.7044818554236,236.80761535039795L581.9918380991394,236.72155005277688L583.9607358836457,235.92450145075347L585.7024531545551,236.02992349065917L586.6869020468082,238.42491669280477L586.9140825604052,239.69014721666198L589.2616145342397,241.92995583448442L589.3373413721052,244.62505112934056L590.5489707779553,247.38672509704614L590.6246976158209,245.5919312048528L591.3819659944771,244.21619272492995L591.6091465080741,242.76160622738678L591.7606001838053,241.6412715189887L592.5935954003272,243.33562153526563L593.047956427521,245.51794801927295L593.2751369411178,247.95073167150355L593.5780442925804,247.19712840824275L594.9411273741616,245.75371849884806L595.0168542120273,244.66260843796383L595.3197615634898,247.10499881172117L595.5469420770867,247.10997042625195L595.698395752818,246.39577913212256L596.7585714829368,248.63621625848475L597.0614788343993,248.29020104882122L597.8944740509212,247.92135749167608L598.1216545645182,246.12723126447307L599.6361913218307,245.24912161765025L600.2420060247556,243.86536791185847L600.999274403412,245.86822008657236L601.0750012412776,245.39095719102758L601.9079964577995,244.72550366931515L603.649713728709,244.86066408716167L604.0283479180371,243.59245343140006L605.3157041617528,242.2498462229101L608.6476850278405,242.672296765357L608.723411865706,241.58190206562028L609.0263192171685,244.73025628528586L609.329226568631,243.34357877083548L610.6923096502123,243.0353149231854L611.1466706774061,241.84814776430318L614.4029247056282,241.14612766818493L615.0087394085531,241.67019195257757L615.6145541114781,240.8132707163161L615.6902809493438,240.23584528868486L616.9776371930594,242.44157343960623L617.9620860853126,241.88180757481743L618.2649934367751,242.97937852603954L619.0979886532971,241.95834696229L620.0067107076846,242.69083748385992L620.2338912212814,241.9153647891752L620.3853448970127,241.0128891599185L620.6882522484752,239.6800203753629L621.2940669514003,239.16559821109144L625.8376772233379,242.18795323753866L626.2920382505317,242.3362542187135L626.3677650883974,242.2015741050747L627.655121332113,243.10057150281742L628.1852091971724,242.19569443664503L629.9269264680819,240.93926220608947L630.2298338195444,241.79293321354595L631.0628290360662,244.62802301962432L631.2900095496632,242.70465663145842L632.5773657933789,241.3842203235477L633.0317268205725,240.72246366851263L634.0161757128258,240.7401054498243L635.5307124701384,239.88118654984171L636.2122540109291,238.8505030624426L637.4238834167791,237.98250164216492L637.5753370925103,238.3563392867806L638.256878633301,239.03468953621177L638.9384201740916,238.67807154329725L639.5442348770166,240.11064353603905L641.0587716343292,238.75366848963816L641.2102253100604,237.30611072018183L641.4374058236574,239.76695595054508L641.5888594993886,239.2722840527235L642.0432205265823,238.83960303682602L642.9519425809699,241.79844417673203L643.0276694188356,241.08590090863527L643.5577572838948,241.17316924838406L643.7849377974918,241.6013828995789L644.16357198682,242.43223647050823L644.6936598518794,241.39812435714745L644.8451135276106,240.04210219476016L648.7071822587577,241.93974610981797L649.5401774752795,240.95699579881114L649.7673579888764,239.26930442814344L650.1459921782046,238.05333197205368L651.3576215840546,239.33019041394746L651.6605289355172,241.99900919682034L651.7362557733827,242.85425580789973L651.887709449114,244.1647230074139L652.6449778277703,242.76438110681582L652.9478851792328,244.20596531480535L653.2507925306953,242.77828797269657L653.932334071486,244.47375558593473L654.0080609093516,244.97870348619836L654.3866950986796,246.6402434610573L654.6896024501423,247.60677230731744L654.7653292880078,246.87309205025477L655.9012318559924,245.80977163303788L658.2487638298268,244.52838742447784L659.1574858842143,243.700933367784L659.6875737492737,246.2765426375562L660.0662079386018,245.15439318188814L661.1263836687207,244.77192898289422L661.8079252095113,243.1816195152486L662.9438277774957,241.8088984954816L663.7768229940176,245.2473124523182L664.306910859077,245.64500855875414L664.3826376969427,248.00693736342134L665.0641792377334,247.05833698288194L667.9417990766271,246.70512979693459L668.168979590224,247.22481431732754L668.3204332659553,247.84646073355466L668.5476137795522,246.59297674158097L668.6233406174179,245.6559014476689L668.9262479688803,244.69606494500238L671.3495067805804,242.97560501732806L672.4096825106992,242.9718350171854L674.4543071330711,241.57531678239408L674.9086681602649,244.82062020164872L675.2115755117275,245.6441299385407L676.5746585933088,246.23999614841028L676.9532927826369,244.78712791388003L678.0891953506213,247.3998498229426L678.3163758642182,246.16298318152488L678.5435563778151,248.68045835992652L680.1338199729933,246.70029332245153L680.9668151895152,247.06763263592933L681.9512640817684,245.65361491548018L682.0269909196339,245.08092728470646L682.7842592982903,243.45530969273028L683.0114398118872,242.11579117583958L683.3143471633496,241.32018768716586L684.6017034070653,240.10267352584353L684.7531570827966,239.03582532857436L684.9803375963935,240.28570539671438L686.5706011915717,239.17798777875527L686.722054867303,238.4003277088936L687.100689056631,237.58919037069776L687.933684273153,240.62801487047403L688.539498976078,243.22065520985447L688.8424063275405,243.01472777419676L690.1297625712562,241.70090729713428L690.5841235984499,240.73274980103602L691.3413919771062,240.54418486305352L691.4928456528374,240.37966970083832L691.9472066800313,242.33048160837237L692.3258408693594,241.29423614494917L692.7044750586875,241.0213415540628L692.9316555722844,240.29109220970065L694.0675581402688,243.69169540102484L694.1432849781344,243.713044120884L696.1879096005064,243.89027752704663L696.7937243034314,242.57317392205644L697.5509926820878,243.82954750494753L698.3839878986096,246.50269942373916L699.9742514937878,247.5713937144899L701.2616077375036,248.95607131632465L701.3373345753691,248.68394900623986L703.7605933870692,247.41106612773265L703.8363202249349,246.29191029847382L704.2906812521286,245.81026070880642L708.2284768211413,248.51292613920396L708.3799304968726,248.11762521571504L708.9100183619319,251.41266991436783L709.1371988755288,252.44152197431876L709.6672867405882,252.1632546648155L711.7119113629602,250.51841907999912L713.3021749581384,251.2259727159386L714.0594433367946,249.80005056194287L715.2710727426447,248.60791267789088L715.4225264183759,249.92050445965688L715.5739800941072,249.53046789697777L715.9526142834353,249.9501518806976L718.3758730951355,249.68987283783684L718.7545072844636,249.41982166312076L719.5875025009855,250.00033221341198L719.6632293388511,250.97953490119323L719.7389561767167,249.3400957747962L719.9661366903136,247.76423832649635L721.1777660961636,249.97783831053067L723.2223907185356,252.8932192303958L723.4495712321325,251.67627113134745L724.9641079894451,250.01564733470718L725.4184690166388,252.89861349558583L725.4941958545045,250.84959244435788L727.4630936390108,254.49065437806468L727.9931815040702,253.1128942890031L728.5232693691296,252.24524787324708L731.0222550186953,251.30698190924062L731.2494355322922,254.16202871255348L732.6882454517391,252.59004466255962L732.7639722896048,251.29255504300534L733.4455138303955,250.21496048744768L733.9756016954548,250.18711757670928L734.2027822090516,249.6192524165625L734.7328700741111,252.0319695973293L734.960050587708,249.8446367792653L736.398860507155,248.75676992222532L736.6260410207518,247.43719324737438L737.4590362372737,245.24862197121018L738.2920314537956,244.0715091990975L739.049299832452,244.1851922051845L739.2007535081831,244.2250350106397L739.2764803460487,242.85535963311193L739.5036608596456,241.64247887868808L741.3211049684207,240.25590772362526L741.6997391577489,239.18029755291366L741.7754659956145,242.49718460628134L742.078373347077,243.91560609759497L743.517183266524,244.27115509120995L743.5929101043896,242.84710535586922L744.2744516451803,242.76459664054929L744.8802663481052,246.19126173730828L745.7889884024928,245.62224838269762L748.590881403521,243.62604397555845L748.8180619171179,244.6290137376046L749.4996034579086,248.08716858009493L749.5753302957743,246.57634092456252L750.0296913229679,246.89440293543015L750.1811449986992,249.8085757224576L750.8626865394899,249.00624519591153L753.513125864787,247.70084167427984L753.891760054115,248.240536688437L755.6334773250244,247.86092311475937L755.8606578386214,246.88200571508222L756.0878383522182,250.154944031049L756.7693798930089,248.87015614897777L758.8897313532465,250.47726496035853L760.7071754620216,248.60715536797005L761.4644438406777,247.10163116629104L765.6294199232874,245.73114703429997L766.0837809504811,244.84080227105102L766.3866883019437,243.87390438929444L766.6138688155405,243.1787299857105L767.4468640320624,242.32016032507087L767.6740445456593,244.1148375094425" style="fill: none;" fill="none"></path></g></g></g></g><g opacity="0.20000000298023224"><g><g><g><path stroke="rgb(187, 187, 187)" stroke-width="2px" d="M11.844475808825658,179.81362146302135L12.298836836019426,95.54358935559947L13.510466241869475,37.93853732943376L13.66191991760073,49.18661430753821L13.889100431197614,22.923757090020615L14.722095647719522,179.68370516487954L15.857998215703944,80.8655906787613L16.08517872930083,130.68153325332713L17.599715486613388,121.22097729035676L18.508437541000927,78.1331067218922L20.022974298313486,46.821830372261275L22.219052596416702,78.99787294199785L22.446233110013587,63.54333932826904L23.127774650804238,53.01498268584953L24.33940405665429,10.902472388340755L24.490857732385543,27.362706335235657L27.822838598473176,40.37536316403214L28.20147278780132,45.28901011342441L29.337375355785742,144.31113904060487L29.791736382979508,34.847000669571514L30.170370572307647,24.184181086288163L30.700458437367047,84.61864148474547L31.154819464560816,180.99698768567748L33.805258789857795,99.79190244926355L33.95671246558905,37.39174045892446L34.56252716851407,39.36781883312511L36.152790763692266,23.34383351949782L36.75860546661729,69.34413244550535L38.273142223929845,68.09786485425548L42.36239146867376,111.62249945908297L42.43811830653939,95.3754591392102L43.72547455025507,76.67994487478512L43.95265506385196,149.9512552428801L44.17983557744884,90.88285643177397L45.31573814543326,194.6653099092206L45.54291865903014,196.6637367343037L45.61864549689577,200.1642929955736L46.37591387555205,211.4718675343299L47.81472379499898,78.3927668013065L49.404987390177176,130.87792473944228L50.69234363389285,191.8627454481428L51.070977823220986,187.38600480784282L53.11560244559295,99.2940345126018L53.872870824249226,66.65637402390655L54.327231851442995,135.01614200524835L54.857319716502396,146.9402703601128L54.93304655436802,152.36618789933013L57.432032203933744,33.85494133832782L57.58348587966501,71.10676521783728L58.492207934052544,80.07175537797161L59.02229579911194,48.282459837549254L59.09802263697757,114.12064680862039L59.24947631270882,133.29745593684265L59.47665682630571,34.66278414990768L59.62811050203697,170.70975200175033L60.53683255642451,111.82419959707977L61.29410093508078,109.89998795436992L64.5503549633028,90.78174007117639L65.15616966622781,192.29545784350648L65.76198436915283,220.22300549682038L66.44352590994349,216.11486486497583L67.42797480219666,205.46731123504034L67.73088215365917,183.806930016793L68.41242369444983,198.88450845470106L68.71533104591232,182.38734140204247L68.86678472164358,161.81955685247155L69.01823839737484,208.49363222324342L69.54832626243424,180.85405638562275L69.92696045176238,178.38621151681986L70.07841412749363,186.97270199196194L70.45704831682178,205.0899488370865L70.60850199255303,198.64659265920758L70.91140934401555,207.38444181189078L71.21431669547805,207.39085714875208L71.66867772267182,161.37915349758566L71.74440456053745,208.38535891799737L73.4861218314469,223.31619717328863L73.78902918290942,165.50754088102406L76.28801483247514,119.68607823903551L76.81810269753453,148.66682777912402L77.2724637247283,201.64125071725582L78.3326394548471,214.2792710578025L78.6355468063096,218.24999663438734L79.165634671369,196.90406705013118L79.31708834710025,204.30439577770332L79.92290305002528,199.05996598509526L80.98307878014408,192.62850130196523L81.05880561800971,205.60853884153002L81.81607399666598,215.9059204501395L82.04325451026287,178.4148793823209L82.72479605105352,189.49556274095977L83.33061075397853,192.11064145190673L84.0121522947692,176.38245098553801L84.08787913263482,165.96606494973568L84.5422401598286,180.83669875471313L84.61796699769423,193.05983427821138L84.99660118702236,193.98639303441823L86.35968426860367,197.39417602269572L86.58686478220055,192.2362373120184L87.2684063229912,170.6721132590405L89.54021145896004,163.47197210454794L90.52466035121321,198.28486701849516L90.97902137840698,184.92277507847535L91.20620189200386,164.68836779139912L91.35765556773512,190.32603568553046L91.66056291919763,202.13649296148205L92.1149239463914,55.60620038099677L92.49355813571954,156.13519615781502L93.25082651437582,86.65383086727638L93.70518754156959,130.90627190968402L94.08382173089772,181.6506440821089L94.841090109554,150.96055194431116L98.02161729991039,73.07516981261898L98.3245246513729,143.81032757959883L98.40025148923853,207.6735213863201L98.47597832710416,139.95007865649245L99.83906140868545,191.97218485289196L100.82351030093862,154.95991388954118L101.80795919319179,195.29534509545917L103.77685697769812,89.56993576689922L104.68557903208566,25.314185192639457L105.51857424860758,144.76441029277015L105.74575476220446,166.36612942236238L105.97293527580135,71.70491914344313L107.48747203311389,161.64304274573195L107.94183306030766,93.68213090309342L108.47192092536706,50.49163785165274L108.92628195256083,123.49218693033069L110.13791135841088,160.0685177864334L110.36509187200777,148.56485527671808L111.19808708852968,51.92759668877875L111.42526760212654,202.90076846308077L111.65244811572344,173.94758654605235L111.72817495358908,161.29477485250806L115.36306317113922,89.1582203209681L115.5902436847361,205.6880798558881L115.81742419833299,195.4731784909552L115.89315103619862,196.95427733334066L117.55914146924243,81.91316465007031L118.46786352362997,152.64607755023508L119.22513190228624,55.29111728873414L119.52803925374874,50.678717721846056L121.42121020038945,179.09182054525795L121.49693703825508,149.26302889966877L122.32993225477699,80.39765048183352L122.93574695770202,95.59843969834196L123.23865430916453,140.89611249132545L123.39010798489579,75.96612304119088L125.8133667965959,133.7126303102134L126.1162741480584,129.2505108325139L128.00944509469912,224.78438302062384L129.22107450054915,202.83348831568986L129.29680133841478,228.63117992294275L130.43270390639918,127.07869954281992L130.7356112578617,203.857489753765L131.94724066371177,224.8564621435021L132.0229675015774,197.49221428147416L133.68895793462121,158.70423433976097L134.06759212394934,147.45140992647865L134.44622631327746,206.78222479188364L134.67340682687438,155.4418386904549L135.0520410162025,197.95145418781814L135.2792215297994,189.47654866176887L136.18794358418694,144.58897853253075L136.79375828711196,99.03825713650548L137.32384615217134,215.88869739670474L137.85393401723076,180.55374245539113L138.5354755580214,110.47159862056759L138.83838290948393,57.21461309381158L138.98983658521516,61.36235959017972L139.14129026094642,139.86091678435537L139.3684707745433,177.00793416027236L139.8985586396027,123.64492950097463L140.58010018039337,116.86468152152537L141.33736855904962,73.31813083174535L141.64027591051214,137.9576505507686L141.7917295862434,36.817283622300465L142.0189100998403,167.23495873686934L142.39754428916842,86.78694230669032L142.62472480276531,96.48709198856443L142.70045164063094,44.492277101898935L144.2149883979435,49.2023512820482L144.89652993873415,59.397448283044014L145.35089096592793,180.51555824440538L145.88097883098732,67.50788865776184L145.95670566885295,73.2182457118754L146.6382472096436,180.4244195866465L147.16833507470298,46.14361716585154L148.7585986698812,54.83165260937358L149.0615060213437,206.10891077822978L149.81877439999997,143.40650066437638L150.1216817514625,31.112653269245868L150.80322329225314,53.36875537046632L151.7876721845063,33.64596256328514L152.01485269810317,54.40889608380081L152.46921372529695,177.07736468391087L152.62066740102821,197.92885376208903L155.19537988845957,148.81457666644454L155.64974091565333,58.33274002216666L156.93709715936902,73.42898831084426L157.6943655380253,63.91497932018973L157.9215460516222,55.903290178532245L158.07299972735345,137.65780907337432L159.43608280893474,57.23793222052359L160.49625853905354,34.30274645433241L160.64771221478478,170.07873683379307L162.0107952963661,177.98407541008507L162.31370264782862,157.73219841876988L162.91951735075364,209.9258014159437L164.2068735944693,207.82001183108292L164.66123462166306,243.82816947329857L166.47867873043813,186.3359430323222L167.4631276226913,198.20665459878276L167.6903081362882,242.68075046902703L167.76603497415383,138.90104437641344L167.9174886498851,172.8605262551043L168.06894232561635,139.40680657048492L168.37184967707884,181.4865007234131L168.67475702854136,123.47973708222858L169.20484489360075,153.10638119130076L170.34074746158518,126.17502038901884L172.91545994901654,77.74567248845096L173.21836730047903,72.06067326662634L173.74845516553845,92.8153259774108L174.4299967063291,178.78793386940316L175.33871876071663,232.25176354338214L176.0959871393729,201.47904334143672L176.24744081510417,241.70684478014016L176.39889449083543,205.92769934494663L176.77752868016358,224.5836907820134L177.00470919376045,250.16416289139983L177.6105238966855,221.27278424803706L177.913431248148,191.37660794276263L179.42796800546057,193.89922834927543L179.8066021947887,204.7537986433033L179.88232903265433,206.55511241793783L180.03378270838556,153.4245738822384L180.26096322198245,202.48111867283248L180.56387057344497,125.7884737942417L180.6395974113106,162.9718091924368L181.16968527637,101.51381837706646L181.39686578996688,60.933910723754366L181.77549997929503,69.67405914691273L183.21430989874196,61.46240505767935L183.97157827739824,62.76811580592096L184.42593930459202,64.09682498561523L184.88030033178578,130.72755302303676L185.1832076832483,76.25952484324444L186.0919297376358,63.30261172255564L186.16765657550144,69.78417215487394L188.06082752214215,60.46150370000066L188.7423690629328,183.68935484891287L191.39280838822978,241.09554807560406L191.4685352260954,166.3778118925226L191.61998890182667,203.8099194797437L194.9519697679143,204.14229005082802L195.55778447083932,217.4039481366928L196.08787233589874,190.26942903515695L196.23932601162997,180.75186376314488L196.39077968736123,185.19013334289787L196.76941387668938,202.21423436003238L198.66258482333006,195.96314214848036L198.7383116611957,236.1536971234965L199.49558003985197,222.08258559137906L199.64703371558323,222.9444970510068L200.02566790491142,219.3792190460441L201.08584363503016,245.2865254382661L201.54020466222394,197.8783571438266L202.2217462030146,192.2705194920701L203.35764877099902,173.24068328317492L203.66055612246154,190.68688764641254L203.81200979819278,180.13378592871734L205.70518074483348,152.06287031439305L206.61390279922102,145.46987686951942L207.3711711778773,199.98837589741942L207.82553220507108,201.7578850060479L209.11288844878672,188.92020466475668L209.56724947598053,130.6065936432699L209.64297631384616,151.83046933201933L210.70315204396496,151.2406219862995L211.1575130711587,199.8731017001288L211.53614726048687,166.66793229486936L213.2778645313963,177.08011063706866L213.80795239645568,216.26411701132434L214.18658658578383,187.11049823076087L215.171035478037,213.0448520110436L215.70112334309638,245.42619967709354L216.83702591108081,163.83343431701164L217.74574796546835,232.18937399869554L217.97292847906525,212.5675887447919L219.03310420918402,218.86315165341705L221.68354353448103,168.9155264513515L221.7592703723466,238.00619901554634L221.83499721021224,209.19714169990579L223.1980802917936,195.09477884427207L224.33398285977802,238.60745681312613L227.96887107732815,221.36376148440982L228.6504126181188,242.73074456927154L229.33195415890944,213.7396182468642L229.78631518610322,211.8918609266417L231.3765787812814,204.74128866484006L231.52803245701267,198.55924758298144L231.6037592948783,218.07454483069418L235.16292067456283,248.09204774044085L235.76873537748784,202.1190823585876L237.51045264839726,227.54263713225814L238.1919941891879,212.95523772952282L238.49490154065043,198.5402621372958L238.79780889211298,195.80175655426322L239.7065309465005,202.85681746412868L239.93371146009736,209.80208462961699L240.5395261630224,207.18166505409494L240.76670667661926,219.01845692278485L242.58415078539434,199.66017150135548L242.88705813685687,194.34325312674343L243.03851181258813,202.66271236341134L245.15886327282573,212.05714783595522L246.90058054373517,237.03420604481317L248.03648311171955,239.6054948202753L248.64229781464462,241.052981506633L249.02093200397272,194.07304446397862L249.3995661933009,202.67846222299866L249.85392722049463,178.61086427266088L251.0655566263447,209.05534285498544L252.42863970792598,200.7519255396589L252.5043665457916,176.4911509300129L253.03445441085103,205.71537617648553L253.26163492444792,248.73231009893306L255.079079033223,230.47994514255163L255.30625954681986,195.96299969679154L255.83634741187927,196.9138117478206L256.06352792547614,195.87366387610976L256.13925476334174,196.87938353689188L256.290708439073,196.5763816363507L256.36643527693866,181.44219860610235L258.25960622357934,196.2940960768902L258.94114776437,195.06133133089972L260.75859187314506,176.35138434813092L261.3644065760701,204.597766082901L262.4245823061889,196.39164470272814L262.50030914405454,203.2605126652268L263.78766538777023,234.1012760974792L265.9837436858734,179.5549499553774L266.13519736160464,183.68275876304943L266.89246574026095,249.36243046984987L268.17982198397664,260.5635542259721L268.5584561733048,235.76938394213238L270.2244466063486,240.87339788812582L270.8302613092736,186.93671701314221L271.66325652579553,259.1581358855934L271.8147102015268,204.74054992040345L272.3447980665862,185.76981908261723L272.79915909377996,223.17515138955756L273.32924695883935,220.81904340638494L273.78360798603313,273.3018276269318L274.01078849963,198.70009150050018L275.2981447433457,255.85309635685192L276.2068667977332,195.92225779794535L276.4340473113301,202.51842956190671L276.9641351763895,226.39043633260235L278.17576458223954,184.34449365560124L278.3272182579708,261.61077886851655L278.7815792851645,226.78454503612778L279.0844866366271,154.7924451071242L280.29611604247714,196.8195523959034L281.5834722861928,212.30652562361817L283.09800904350533,210.49416790599147L284.4610921250867,163.76904042695446L284.61254580081794,247.8745419075214L284.7639994765492,242.55208294963484L284.99117999014607,195.15389772681635L285.21836050374293,177.3248691244899L286.5057167474586,201.14381085149822L287.33871196398053,191.0363985916851L288.39888769409936,259.3354116435738L290.67069283006816,204.15989536155843L290.8221465057994,249.1536177691379L292.6395906145745,249.18256051628975L292.942497966037,221.23884495421126L293.09395164176823,186.54338374073205L293.54831266896207,250.77764719574043L293.77549318255893,246.4773642899665L293.92694685829014,261.1137584836115L294.60848839908084,181.0337824558188L295.1385762641402,249.8677660246925L296.1230251563934,208.76847521884017L296.7288398593184,211.9986581746898L297.71328875157155,263.0832683316975L297.8647424273028,233.826365813145L298.09192294089974,192.18228033464112L299.30355234674977,209.69635254796583L299.6821865360779,207.6792080004716L299.83364021180915,211.19337519848332L300.59090859046546,262.2368962753932L300.893815941928,210.28526930476363L303.0898942400312,226.2614309378477L303.4685284293593,260.4814447861891L303.9986162944187,220.04818935694473L307.3305971605064,268.21481625638233L307.9364118634314,187.39757113334718L308.46649972849076,248.20556813553213L308.7694070799533,231.95716199745675L309.6024022964752,172.94941038224005L310.056763323669,265.12792395107886L310.5111243508627,188.8753159185062L312.1771147839065,268.70969485509136L313.0101100004284,230.40218513222288L313.3887441897566,230.36943985556786L314.07028573054725,194.348931866681L314.14601256841286,228.51120839910857L315.0547346228004,193.15822830829313L315.88772983932233,175.75980395950307L316.1149103529192,194.57873722179977L316.8721787315755,197.3188412702654L320.43134011126,262.6619148478842L320.8099743005881,198.55338057774654L320.8857011384538,275.90468197863083L321.64296951711003,194.7743054946377L327.1710286813009,265.7642635193457L328.00402389782283,198.86069396834748L328.07975073568844,198.4276036107139L328.23120441141964,198.14324999633348L328.38265808715096,218.12643733233972L328.6098386007478,194.85392525113537L328.6855654386135,185.71111905456758L330.57873638525416,271.47266204169716L330.9573705745823,208.85199056373318L331.18455108817915,275.8303264920816L331.7903657911042,205.9161314088076L332.62336100762616,183.1341416964004L333.30490254841675,240.04299760107483L333.53208306201367,205.11385924568282L333.60780989987927,270.6431493933103L334.7437124678637,273.9029422569851L335.95534187371373,269.2026492822445L336.4097029009075,198.4107399077706L336.71261025237004,226.6132365006508L337.3941517931607,250.31671648090878L337.54560546889195,190.98346418836564L338.2271470096826,184.67219745746087L338.5300543611451,261.83224757856874L339.363049577667,226.27142116784503L341.33194736217337,245.17007297223262L342.013488902964,274.5944986768622L343.14939147094844,208.19680728563193L343.6794793360078,221.85577673258936L344.1338403632016,266.32008567072387L344.4367477146641,276.29619362322603L344.5124745525297,288.0820994579815L345.95128447197663,259.64842167005315L346.17846498557356,183.6920934647349L348.90463114873614,204.5310457205386L349.3589921759299,213.06411377005531L350.49489474391436,218.02565884710458L350.6463484196456,282.01869128358453L351.93370466336125,197.06393363689241L352.0094315012269,184.06617786321073L353.4482414206738,219.67555864574086L353.5239682585394,184.46669134499234L353.75114877213633,227.3543231579866L354.432690312927,248.21910605683547L355.2656855294489,285.1383116854398L357.15885647608957,231.18725571704186L357.3860369896865,234.81497194365014L358.2190322062084,294.66893956256735L358.44621271980526,242.37700051816L358.5976663955365,254.59492868080162L358.74912007126784,184.4106851929127L359.65784212565535,254.26635348084412L360.945198369371,280.02634907837654L362.5354619645492,257.0821323046154L363.0655498296086,260.9074311711591L363.67136453253363,197.62010153784706L363.97427188399615,193.1281251883392L364.50435974905554,255.00144428217124L364.58008658692114,259.9809712005455L364.6558134247868,210.73178877638043L365.41308180344305,222.93396278440892L367.3819795879494,226.5157880920814L367.76061377727757,271.48070805668493L368.97224318312755,284.2207109213644L369.80523839964945,208.5709355291627L370.108145751112,211.54910068816122L370.18387258897764,229.769241497684L370.7896872919026,251.39147510214457L371.2440483190964,202.71701437452742L371.4712288326933,262.77229128409414L372.152770373484,199.47247887414886L372.45567772494644,198.28226995956496L372.9857655900059,204.60367747006907L373.0614924278715,211.28264874129104L373.51585345506527,279.78185330336635L373.97021448225905,207.86181961216369L374.1216681579903,216.4723284084251L374.3488486715872,211.1265531871771L376.99928799688416,237.36088570672015L377.9080100512717,202.97653128641522L379.3468199707186,223.97500258980966L379.4982736464499,245.00950772794218L381.0885372416281,233.43223706616584L382.6030739989406,250.74352178413022L384.4205181077157,264.1468369790641L384.6476986213126,220.99825478932325L385.63214751356577,260.0969598037932L386.23796221649076,264.3674753174628L386.9195037572814,238.0241808568714L387.1466842708783,194.32523477769914L387.2981379466096,276.88194924103925L387.3738647844752,290.1520957295487L390.7058456505628,293.00350036060763L391.1602066777566,178.1956977735041L391.38738719135347,270.6933496547929L391.9174750564129,200.30007021433042L392.9019239486661,224.48509416988173L393.05337762439734,259.47739946962906L393.12910446226294,285.75152683483066L393.65919232732233,297.2229680610379L395.0222754089036,197.49149987551706L396.76399267981304,219.17534276164494L397.1426268691412,235.82960593046815L398.6571636264538,195.4544128074227L398.80861730218504,180.44742195520615L399.2629783293788,195.66812398505297L401.23187611388516,223.47329203673738L401.6105103032133,226.4069779086111L402.897866546929,197.11619551075628L404.2609496285103,209.4737442244029L404.8667643314353,222.61645157089725L406.60848160234474,208.21767252094014L406.91138895380726,223.98141363164513L407.2142963052697,197.82141512352237L407.29002314313533,244.71962212033887L409.25892092764167,194.79207544802358L411.00063819855114,229.5465501369557L413.19671649665435,216.72562898631347L414.0297117131763,205.5373788541717L415.24134111902634,197.16169057148136L416.30151684914506,203.28793354157224L416.3772436870107,202.06976830409386L417.89178044432333,201.92641609151133L419.7092245530984,187.73628957359594L420.92085395894844,254.23516586687714L422.35966387839534,189.07060573050512L422.58684439199226,199.00525165150293L422.96547858132044,196.6262468858214L425.76737158234863,197.00885565778285L426.297459447408,181.58042935834408L426.60036679887054,182.25779537091594L427.05472782606427,199.19369304487302L427.50908885325805,195.81589864252825L427.88772304258623,201.25095170160984L428.1149035561831,249.57301272118906L428.26635723191436,196.0069528432565L430.08380134068943,196.78279556515662L430.6896160436144,281.13614938339197L431.97697228733017,231.27990801347437L432.3556064766583,197.220370645557L432.5070601523895,250.4619341663613L433.41578220677707,269.23662007292614L433.5672358825083,285.79858886413297L434.0215969097021,288.180094766502L434.9303189640896,205.53332434982195L435.30895315341775,298.2436608975762L436.066221532074,195.1321248093903L436.8234899107303,274.26854630598973L438.9438413709679,301.72835849193865L439.09529504669916,297.3052722086569L439.3982023981617,225.55980125080796L440.5341049661461,188.83164588582486L443.63890531863683,181.1569663010282L443.8660858322337,296.40636339683783L445.229168913815,195.9146019144672L446.5922519953964,257.41787160759765L447.87960823911203,209.22954766952301L448.1067887527089,205.32569278120337L448.4854229420371,207.90658666601666L448.86405713136514,243.74475434567412L450.2271402129465,324.8825103998193L450.30286705081215,310.4705570740761L451.5902232945278,255.60732352750557L451.8174038081247,205.36032643753256L452.34749167318404,289.3060100082973L454.392116295556,221.24220366438232L454.54356997128724,197.15642701737056L455.0736578363467,216.34396440418908L456.436740917928,227.91597509104278L457.1182824587187,196.34920125782983L457.7998239995093,203.78611215176645L458.5570923781656,198.1933529038981L459.39008759468754,214.36698121122114L459.69299494614995,259.04157461223986L459.7687217840156,227.3497732939953L461.2075317034626,257.49438606044606L461.5861658927907,181.19631016897836L461.73761956852195,255.8750181685055L462.0405269199845,277.1046606452213L462.7220684607751,209.06161931934605L464.0851515423564,224.03139055178647L465.59968829966897,263.82681747048866L465.97832248899715,271.46454157959556L466.6598640297878,261.9651872169509L467.1142250569815,269.52068735225356L467.1899518948471,287.2833850078896L467.4928592463097,276.3896991981163L467.72003975990657,295.0057383052455L469.3860301929504,219.6776832518337L470.7491132745317,252.2037217468387L471.0520206259942,223.13540808420856L471.4306548153224,267.25811357747654L472.64228422117236,223.22901673971793L472.7937378969036,207.40275723355253L473.55100627556,288.1243052447859L474.00536730275365,262.0946392943881L474.1568209784849,260.4965060099741L474.6111820056787,297.32486897968056L474.76263568140996,264.5788936671566L474.9140893571412,219.03712024153592L475.82281141152873,259.35195608293304L475.97426508726,295.4149912697212L476.12571876299126,286.1257323888258L477.86743603390073,250.30912860200573L478.5489775746914,170.44545329447834L478.7761580882883,236.4025394646104L479.98778749413833,248.76049692154513L480.82078271066024,293.69245685820397L480.9722363863915,317.06691495582186L481.4265974135852,307.434420520258L482.41104630583845,178.82406720557216L482.7896804951666,218.87677261188574L483.3197683602259,179.98901170467812L483.7741293874197,191.67408787180776L484.75857827967286,298.93876787210985L486.7274760641792,298.6957266791686L488.4691933350886,257.05723260841114L488.77210068655114,242.80518595633663L488.8478275244168,299.5673076735344L489.3779153894762,275.77566513047407L490.6652716331919,184.08568264909866L491.4982668497138,207.65174274219294L492.33126206623564,296.64136430149233L492.8613499312951,209.20322345643035L493.31571095848886,186.34814877979173L495.13315506726394,195.35240737648567L499.2981311498734,291.0788477619162L499.60103850133595,302.43959185665426L500.5854873935892,199.30312600708348L501.72138996157355,311.6827851542316L502.3272046644986,227.0466504168942L502.40293150236425,221.15370895291858L502.7058388538268,197.06977558781017L503.463107232483,199.29065038882658L504.22037561113933,241.80073977070248L504.29610244900493,313.8674987014114L504.3718292868706,309.7097648383965L504.9776439897955,266.7443139584688L506.4921807471081,205.76284336988778L508.30962485588316,216.83803553804876L508.8397127209426,254.74212780482048L509.06689323453946,288.2193684823642L509.8241616131958,199.77277705595262L510.5057031539864,209.4554073276122L510.7328836675833,268.91052453452716L511.49015204623964,230.9147420571008L511.8687862355677,302.2220001232189L514.5949523987304,275.2769152818492L515.2764939395211,235.306924198118L515.4279476152522,195.82932632483622L515.7308549667148,315.3831503104736L516.1852159939085,221.71729078423166L516.4123965075054,197.42648034336915L516.9424843725649,277.6483479170556L517.5482990754898,176.2872252528171L517.7754795890867,200.5731608394032L518.3812942920117,252.15647646310254L518.6842016434742,299.20539162001177L518.9871089949368,230.65737265811012L520.7288262658462,210.0319200499163L521.0317336173086,317.55628446811215L521.5618214823681,314.3536612611087L521.8647288338307,211.235469314617L522.6977240503525,234.79757422583307L523.60644610474,302.8248613970952L524.8180755105901,235.64708451431773L526.7112464572308,194.75700369906338L527.8471490252152,196.09342030254535L528.907324755334,217.97271835916524L529.513139458259,270.0348248466238L530.1189541611841,220.35599667551202L530.5733151883778,305.80525424280563L530.6490420262435,311.64597391982477L532.6179398107498,324.91600014761195L533.6781155408686,262.00659126560697L535.5712864875093,221.78776070411237L536.858642731225,319.73252249772474L537.7673647856125,198.87450533962635L537.9945452992094,181.39228289007855L538.4489063264032,305.95031158062847L539.8119894079845,259.0479770640237L539.9634430837158,240.28668018453467L541.3265261652971,274.4958161642146L541.6294335167596,233.16110067782947L543.2196971119378,240.88406100549759L543.5226044634003,179.32233100044462L544.0526923284597,304.5176742301166L545.0371412207128,323.52608398699977L545.4915022479066,197.5713472683818L546.5516779780254,302.18065334157336L547.460400032413,215.04273766287665L548.5963026003973,203.1771147177055L549.2021173033223,198.67701289523265L549.277844141188,197.93144795766872L550.9438345742318,317.2046879298978L551.2467419256943,266.3547665723368L552.3069176558131,231.7641492649664L553.2156397102007,249.90004171186064L553.2913665480663,221.85725135811202L553.8214544131257,321.77570635493396L554.8816301432445,331.24102693318537L555.3359911704382,223.96348333062963L555.8660790354976,246.05526633501552L556.0175327112289,216.22230064019197L556.6990742520196,238.05685741311368L556.8505279277508,214.83789070264797L556.9262547656164,308.97284149273054L558.3650646850634,240.68568808081602L558.5922451986603,196.80399652831443L559.2737867394509,313.5156501883504L560.2582356317041,225.93150709979085L562.0756797404791,205.47828502594453L563.2873091463292,319.6670892114253L564.1203043628511,231.54536351436028L565.4833874444324,205.6887369948346L566.2406558230887,241.13034351123815L566.3163826609543,196.30187937946693L566.7707436881481,185.63836308483798L567.3008315532074,195.570034185965L567.60373890467,182.27213145117938L567.6794657425356,209.96907523249556L567.7551925804012,196.61011190558784L569.4211830134451,297.75382179579907L569.4969098513108,236.41631218065717L569.7998172027732,335.3302579981333L569.9512708785044,196.300876490944L570.6328124192951,179.5568748427708L570.9357197707576,206.14234469068714L573.1317980688609,198.93612034799474L573.2075249067265,216.94270245330296L573.889066447517,314.98751544111593L574.116246961114,201.5520888451187L574.6463348261734,248.58294628191388L575.4036032048297,200.85003824555113L575.4793300426953,182.57161679935155L575.6307837184265,196.71527346464597L576.0094179077547,326.97651300222554L576.4637789349484,238.4071998037962L576.766686286411,211.01974734907745L576.9181399621422,232.0888360349049L578.1297693679923,286.55139807853647L578.584130395186,211.50113097674105L578.6598572330516,232.10102818145936L579.2656719359767,200.1446031656577L580.7044818554236,246.07258387901774L581.9918380991394,233.83984646743772L583.9607358836457,209.2371155049724L585.7024531545551,239.55974420551547L586.6869020468082,318.61589596504706L586.9140825604052,282.05355543963134L589.2616145342397,316.9249271297666L589.3373413721052,334.8642763329677L590.5489707779553,339.85518793304715L590.6246976158209,185.49728054731844L591.3819659944771,198.15267328292597L591.6091465080741,194.05803764385368L591.7606001838053,204.12937490826485L592.5935954003272,300.0671341419583L593.047956427521,318.58825890573667L593.2751369411178,329.40703946565907L593.5780442925804,221.96441225167737L594.9411273741616,197.4243729173795L595.0168542120273,208.12923364481176L595.3197615634898,328.8829661449516L595.5469420770867,247.27643379552404L595.698395752818,222.48268442421212L596.7585714829368,323.652231757926L597.0614788343993,236.70465730567565L597.8944740509212,235.57145770013344L598.1216545645182,186.05493586939343L599.6361913218307,215.84758827315318L600.2420060247556,197.53347659427905L600.999274403412,312.92923599991536L601.0750012412776,229.41087886216846L601.9079964577995,222.4442840302614L603.649713728709,249.38620773264657L604.0283479180371,201.129262167458L605.3157041617528,197.29565314184015L608.6476850278405,256.8171063063089L608.723411865706,205.0724795355062L609.0263192171685,350.14584066791235L609.329226568631,196.9137902726916L610.6923096502123,232.71379092146654L611.1466706774061,202.0985163434097L614.4029247056282,217.64055824434485L615.0087394085531,259.2173098876354L615.6145541114781,212.12118380719627L615.6902809493438,220.90204907488368L616.9776371930594,316.2954366959663L617.9620860853126,223.13930224092863L618.2649934367751,279.7290817531083L619.0979886532971,207.77139357076783L620.0067107076846,267.2166408084077L620.2338912212814,215.95039973726426L620.3853448970127,210.79551550576426L620.6882522484752,195.05189659090513L621.2940669514003,221.94132505635827L625.8376772233379,343.3847370501031L626.2920382505317,247.30178017441088L626.3677650883974,237.69211236926793L627.655121332113,273.20148437097714L628.1852091971724,211.897914049661L629.9269264680819,198.87044510857558L630.2298338195444,270.3761934967469L631.0628290360662,339.55465066147417L631.2900095496632,178.30504411936107L632.5773657933789,197.17237015311866L633.0317268205725,218.5650253229899L634.0161757128258,241.33080095510516L635.5307124701384,211.12221234777445L636.2122540109291,204.3403766404566L637.4238834167791,208.9194196053516L637.5753370925103,250.87345490445642L638.256878633301,261.74772719763996L638.9384201740916,226.7375173670318L639.5442348770166,288.0771057746581L641.0587716343292,193.31840055772338L641.2102253100604,188.83788333703444L641.4374058236574,322.1628427999201L641.5888594993886,222.70930430186687L642.0432205265823,224.35224902206707L642.9519425809699,340.8686078592406L643.0276694188356,217.22798665660542L643.5577572838948,244.0951540033672L643.7849377974918,255.9391572203656L644.16357198682,270.2515060345907L644.6936598518794,206.7731980793395L644.8451135276106,194.6387394479824L648.7071822587577,305.47809926471075L649.5401774752795,208.05180435146914L649.7673579888764,182.76074163870115L650.1459921782046,197.33921973598365L651.3576215840546,282.0829334160637L651.6605289355172,331.35842430489356L651.7362557733827,271.49027164745337L651.887709449114,288.04277992851087L652.6449778277703,195.87707126323983L652.9478851792328,292.4741813817302L653.2507925306953,194.9757121392052L653.932334071486,301.2426884285324L654.0080609093516,261.88575214656237L654.3866950986796,302.27318537728365L654.6896024501423,279.9688243662396L654.7653292880078,222.30745309850974L655.9012318559924,210.2068707672668L658.2487638298268,201.62410926931113L659.1574858842143,215.9954889180518L659.6875737492737,332.5150461177668L660.0662079386018,207.58173382174746L661.1263836687207,231.96597252703594L661.8079252095113,189.93367147831512L662.9438277774957,195.84641193744554L663.7768229940176,360.3748970061877L664.306910859077,258.9609712948353L664.3826376969427,327.090829408764L665.0641792377334,215.296579414015L667.9417990766271,234.8787788468488L668.168979590224,264.62528567243504L668.3204332659553,268.66089763536814L668.5476137795522,204.6228748036939L668.6233406174179,214.28003557239387L668.9262479688803,212.55809101108562L671.3495067805804,185.36986054277514L672.4096825106992,242.8456050124106L674.4543071330711,194.81603381774127L674.9086681602649,353.48233123886956L675.2115755117275,273.21750768054005L676.5746585933088,266.1912406235989L676.9532927826369,196.14109150967283L678.0891953506213,334.88098684665766L678.3163758642182,204.74927598114198L678.5435563778151,332.97247209155034L680.1338199729933,180.39890534383488L680.9668151895152,259.36716620094563L681.9512640817684,198.30840089649686L682.0269909196339,225.90576557853092L682.7842592982903,189.02514825125576L683.0114398118872,197.26501600701246L683.3143471633496,214.68118811822177L684.6017034070653,199.33694074516123L684.7531570827966,203.31480465461604L684.9803375963935,282.1351380229169L686.5706011915717,202.0885461568661L686.722054867303,212.36212330084885L687.100689056631,210.4300746677399L687.933684273153,342.3762420868203L688.539498976078,330.02940588334206L688.8424063275405,236.11970915271172L690.1297625712562,197.7105733928514L690.5841235984499,208.3161660524528L691.3413919771062,234.2305105602762L691.4928456528374,234.8712482349563L691.9472066800313,307.6490458225448L692.3258408693594,206.59787942144595L692.7044750586875,231.88407783854262L692.9316555722844,215.84032967956097L694.0675581402688,357.5532712206352L694.1432849781344,244.4278581547882L696.1879096005064,249.82454088509962L696.7937243034314,198.4729118378169L697.5509926820878,285.8964009182196L698.3839878986096,336.007199876908L699.9742514937878,283.35422669094106L701.2616077375036,295.3188972259523L701.3373345753691,239.5725433823822L703.7605933870692,204.79143595433789L703.8363202249349,208.81948580852267L704.2906812521286,229.68330375824308L708.2284768211413,339.0056203775519L708.3799304968726,234.88185981201852L708.9100183619319,361.739856203585L709.1371988755288,286.8903271540085L709.6672867405882,242.84609750870166L711.7119113629602,195.44478622294264L713.3021749581384,274.91682031926337L714.0594433367946,202.05624326786793L715.2710727426447,208.69184766364583L715.4225264183759,293.86969825597805L715.5739800941072,236.47096781556365L715.9526142834353,264.00232940454293L718.3758730951355,240.9750124717156L718.7545072844636,240.37776336487704L719.5875025009855,269.4374268455577L719.6632293388511,283.76594213687224L719.7389561767167,194.44715123238043L719.9661366903136,195.0001837645053L721.1777660961636,324.0952722586495L723.2223907185356,350.5082148575197L723.4495712321325,210.92949167703807L724.9641079894451,194.41338159207353L725.4184690166388,349.4282735718256L725.4941958545045,182.2427151774337L727.4630936390108,376.40345222726L727.9931815040702,206.98168578976637L728.5232693691296,223.1940523664026L731.0222550186953,219.8912491144246L731.2494355322922,349.75687167858734L732.6882454517391,199.95568216107395L732.7639722896048,207.8490232986475L733.4455138303955,214.1341220927627L733.9756016954548,249.2548601171588L734.2027822090516,230.6055603302794L734.7328700741111,332.8163965808901L734.960050587708,176.60670000895433L736.398860507155,212.33198653652622L736.6260410207518,203.2541259618708L737.4590362372737,171.96921820726578L738.2920314537956,204.6585263811363L739.049299832452,247.99161285726925L739.2007535081831,245.5590820484651L739.2764803460487,196.99484957866795L739.5036608596456,201.03188534265183L741.3211049684207,193.82968042826516L741.6997391577489,203.1659018370321L741.7754659956145,353.55571318623873L742.078373347077,291.40827051363044L743.517183266524,256.1759162222452L743.5929101043896,195.1659918036152L744.2744516451803,240.00197724138968L744.8802663481052,360.92546204599375L745.7889884024928,226.57011157832648L748.590881403521,176.78761365378244L748.8180619171179,278.21120818403523L749.4996034579086,363.8757324441342L749.5753302957743,195.98966321692194L750.0296913229679,257.54399647171965L750.1811449986992,347.3831197294521L750.8626865394899,222.14200584156654L753.513125864787,203.99233065689873L753.891760054115,266.3110145762465L755.6334773250244,235.1504134581773L755.8606578386214,214.10515071210554L756.0878383522182,359.74194764494774L756.7693798930089,205.85191361480793L758.8897313532465,304.28770136899186L760.7071754620216,185.9907272918033L761.4644438406777,196.6925277238775L765.6294199232874,199.84355764936578L766.0837809504811,215.02960347399795L766.3866883019437,211.49949600358872L766.6138688155405,219.9023732312316L767.4468640320624,213.57287961883225L767.6740445456593,304.20558047580676" style="fill: none;" fill="none"></path></g></g></g></g></g></g><g transform="translate(87, 377)" clip-path="url(#clip_1)"><clipPath id="clip_1"><rect width="792" height="22"></rect></clipPath><g><g><line x1="10.481392727244351" y1="0" x2="10.481392727244351" y2="5" style="visibility: inherit;" fill="rgb(0, 0, 0)" stroke="rgb(204, 204, 204)" stroke-width="1px"></line><line x1="86.20823059287241" y1="0" x2="86.20823059287241" y2="5" style="visibility: inherit;" fill="rgb(0, 0, 0)" stroke="rgb(204, 204, 204)" stroke-width="1px"></line><line x1="161.93506845850047" y1="0" x2="161.93506845850047" y2="5" style="visibility: inherit;" fill="rgb(0, 0, 0)" stroke="rgb(204, 204, 204)" stroke-width="1px"></line><line x1="237.66190632412852" y1="0" x2="237.66190632412852" y2="5" style="visibility: inherit;" fill="rgb(0, 0, 0)" stroke="rgb(204, 204, 204)" stroke-width="1px"></line><line x1="313.3887441897566" y1="0" x2="313.3887441897566" y2="5" style="visibility: inherit;" fill="rgb(0, 0, 0)" stroke="rgb(204, 204, 204)" stroke-width="1px"></line><line x1="389.11558205538466" y1="0" x2="389.11558205538466" y2="5" style="visibility: inherit;" fill="rgb(0, 0, 0)" stroke="rgb(204, 204, 204)" stroke-width="1px"></line><line x1="464.8424199210127" y1="0" x2="464.8424199210127" y2="5" style="visibility: inherit;" fill="rgb(0, 0, 0)" stroke="rgb(204, 204, 204)" stroke-width="1px"></line><line x1="540.5692577866408" y1="0" x2="540.5692577866408" y2="5" style="visibility: inherit;" fill="rgb(0, 0, 0)" stroke="rgb(204, 204, 204)" stroke-width="1px"></line><line x1="616.2960956522688" y1="0" x2="616.2960956522688" y2="5" style="visibility: inherit;" fill="rgb(0, 0, 0)" stroke="rgb(204, 204, 204)" stroke-width="1px"></line><line x1="692.022933517897" y1="0" x2="692.022933517897" y2="5" style="visibility: inherit;" fill="rgb(0, 0, 0)" stroke="rgb(204, 204, 204)" stroke-width="1px"></line><line x1="767.749771383525" y1="0" x2="767.749771383525" y2="5" style="visibility: inherit;" fill="rgb(0, 0, 0)" stroke="rgb(204, 204, 204)" stroke-width="1px"></line></g><g transform="translate(0, 8)"><text x="10.481392727244351" y="0" dx="0em" dy="0.95em" style="text-anchor: middle; visibility: hidden; font-family: &quot;Helvetica Neue&quot;, sans-serif; font-size: 12px; font-weight: 200;" fill="rgb(50, 49, 63)" stroke="none" stroke-width="1px">0.000</text><text x="86.20823059287241" y="0" dx="0em" dy="0.95em" style="text-anchor: middle; visibility: inherit; font-family: &quot;Helvetica Neue&quot;, sans-serif; font-size: 12px; font-weight: 200;" fill="rgb(50, 49, 63)" stroke="none" stroke-width="1px">1.000k</text><text x="161.93506845850047" y="0" dx="0em" dy="0.95em" style="text-anchor: middle; visibility: inherit; font-family: &quot;Helvetica Neue&quot;, sans-serif; font-size: 12px; font-weight: 200;" fill="rgb(50, 49, 63)" stroke="none" stroke-width="1px">2.000k</text><text x="237.66190632412852" y="0" dx="0em" dy="0.95em" style="text-anchor: middle; visibility: inherit; font-family: &quot;Helvetica Neue&quot;, sans-serif; font-size: 12px; font-weight: 200;" fill="rgb(50, 49, 63)" stroke="none" stroke-width="1px">3.000k</text><text x="313.3887441897566" y="0" dx="0em" dy="0.95em" style="text-anchor: middle; visibility: inherit; font-family: &quot;Helvetica Neue&quot;, sans-serif; font-size: 12px; font-weight: 200;" fill="rgb(50, 49, 63)" stroke="none" stroke-width="1px">4.000k</text><text x="389.11558205538466" y="0" dx="0em" dy="0.95em" style="text-anchor: middle; visibility: inherit; font-family: &quot;Helvetica Neue&quot;, sans-serif; font-size: 12px; font-weight: 200;" fill="rgb(50, 49, 63)" stroke="none" stroke-width="1px">5.000k</text><text x="464.8424199210127" y="0" dx="0em" dy="0.95em" style="text-anchor: middle; visibility: inherit; font-family: &quot;Helvetica Neue&quot;, sans-serif; font-size: 12px; font-weight: 200;" fill="rgb(50, 49, 63)" stroke="none" stroke-width="1px">6.000k</text><text x="540.5692577866408" y="0" dx="0em" dy="0.95em" style="text-anchor: middle; visibility: inherit; font-family: &quot;Helvetica Neue&quot;, sans-serif; font-size: 12px; font-weight: 200;" fill="rgb(50, 49, 63)" stroke="none" stroke-width="1px">7.000k</text><text x="616.2960956522688" y="0" dx="0em" dy="0.95em" style="text-anchor: middle; visibility: inherit; font-family: &quot;Helvetica Neue&quot;, sans-serif; font-size: 12px; font-weight: 200;" fill="rgb(50, 49, 63)" stroke="none" stroke-width="1px">8.000k</text><text x="692.022933517897" y="0" dx="0em" dy="0.95em" style="text-anchor: middle; visibility: inherit; font-family: &quot;Helvetica Neue&quot;, sans-serif; font-size: 12px; font-weight: 200;" fill="rgb(50, 49, 63)" stroke="none" stroke-width="1px">9.000k</text><text x="767.749771383525" y="0" dx="0em" dy="0.95em" style="text-anchor: middle; visibility: inherit; font-family: &quot;Helvetica Neue&quot;, sans-serif; font-size: 12px; font-weight: 200;" fill="rgb(50, 49, 63)" stroke="none" stroke-width="1px">10.00k</text></g><line x1="0" y1="0" x2="792.75" y2="0" fill="rgb(0, 0, 0)" stroke="rgb(204, 204, 204)" stroke-width="1px"></line></g></g></g></g></svg>