<svg viewBox="0 0 330 200" xmlns="http://www.w3.org/2000/svg"><g><g><g><g><g><line x1="58.59375" y1="163.88147212850345" x2="53.59375" y2="163.88147212850345" style="visibility: inherit;" fill="rgb(0, 0, 0)" stroke="rgb(204, 204, 204)" stroke-width="1px"></line><line x1="58.59375" y1="141.7249688946772" x2="53.59375" y2="141.7249688946772" style="visibility: inherit;" fill="rgb(0, 0, 0)" stroke="rgb(204, 204, 204)" stroke-width="1px"></line><line x1="58.59375" y1="119.56846566085096" x2="53.59375" y2="119.56846566085096" style="visibility: inherit;" fill="rgb(0, 0, 0)" stroke="rgb(204, 204, 204)" stroke-width="1px"></line><line x1="58.59375" y1="97.41196242702473" x2="53.59375" y2="97.41196242702473" style="visibility: inherit;" fill="rgb(0, 0, 0)" stroke="rgb(204, 204, 204)" stroke-width="1px"></line><line x1="58.59375" y1="75.25545919319849" x2="53.59375" y2="75.25545919319849" style="visibility: inherit;" fill="rgb(0, 0, 0)" stroke="rgb(204, 204, 204)" stroke-width="1px"></line><line x1="58.59375" y1="53.09895595937223" x2="53.59375" y2="53.09895595937223" style="visibility: inherit;" fill="rgb(0, 0, 0)" stroke="rgb(204, 204, 204)" stroke-width="1px"></line><line x1="58.59375" y1="30.94245272554599" x2="53.59375" y2="30.94245272554599" style="visibility: inherit;" fill="rgb(0, 0, 0)" stroke="rgb(204, 204, 204)" stroke-width="1px"></line><line x1="58.59375" y1="8.785949491719776" x2="53.59375" y2="8.785949491719776" style="visibility: inherit;" fill="rgb(0, 0, 0)" stroke="rgb(204, 204, 204)" stroke-width="1px"></line></g><g transform="translate(48.59375, 0)"><text x="0" y="163.88147212850345" dx="0em" dy="0.3em" style="text-anchor: end; visibility: hidden; font-family: &quot;Helvetica Neue&quot;, sans-serif; font-size: 12px; font-weight: 200;" fill="rgb(50, 49, 63)" stroke="none" stroke-width="1px">0.300</text><text x="0" y="141.7249688946772" dx="0em" dy="0.3em" style="text-anchor: end; visibility: inherit; font-family: &quot;Helvetica Neue&quot;, sans-serif; font-size: 12px; font-weight: 200;" fill="rgb(50, 49, 63)" stroke="none" stroke-width="1px">0.400</text><text x="0" y="119.56846566085096" dx="0em" dy="0.3em" style="text-anchor: end; visibility: hidden; font-family: &quot;Helvetica Neue&quot;, sans-serif; font-size: 12px; font-weight: 200;" fill="rgb(50, 49, 63)" stroke="none" stroke-width="1px">0.500</text><text x="0" y="97.41196242702473" dx="0em" dy="0.3em" style="text-anchor: end; visibility: inherit; font-family: &quot;Helvetica Neue&quot;, sans-serif; font-size: 12px; font-weight: 200;" fill="rgb(50, 49, 63)" stroke="none" stroke-width="1px">0.600</text><text x="0" y="75.25545919319849" dx="0em" dy="0.3em" style="text-anchor: end; visibility: hidden; font-family: &quot;Helvetica Neue&quot;, sans-serif; font-size: 12px; font-weight: 200;" fill="rgb(50, 49, 63)" stroke="none" stroke-width="1px">0.700</text><text x="0" y="53.09895595937223" dx="0em" dy="0.3em" style="text-anchor: end; visibility: inherit; font-family: &quot;Helvetica Neue&quot;, sans-serif; font-size: 12px; font-weight: 200;" fill="rgb(50, 49, 63)" stroke="none" stroke-width="1px">0.800</text><text x="0" y="30.94245272554599" dx="0em" dy="0.3em" style="text-anchor: end; visibility: hidden; font-family: &quot;Helvetica Neue&quot;, sans-serif; font-size: 12px; font-weight: 200;" fill="rgb(50, 49, 63)" stroke="none" stroke-width="1px">0.900</text><text x="0" y="8.785949491719776" dx="0em" dy="0.3em" style="text-anchor: end; visibility: inherit; font-family: &quot;Helvetica Neue&quot;, sans-serif; font-size: 12px; font-weight: 200;" fill="rgb(50, 49, 63)" stroke="none" stroke-width="1px">1.00</text></g><line x1="58.59375" y1="0" x2="58.59375" y2="165.65625" fill="rgb(0, 0, 0)" stroke="rgb(204, 204, 204)" stroke-width="1px"></line></g></g><g transform="translate(58, 0)" clip-path="url(#clip_0)"><clipPath id="clip_0"><rect width="271" height="165"></rect></clipPath><g><g><g><line x1="0.34915031714578865" y1="0" x2="0.34915031714578865" y2="165.65625" fill="rgb(0, 0, 0)" stroke="rgb(60, 60, 60)" stroke-width="1px" opacity="0.25"></line><line x1="21.39075239503583" y1="0" x2="21.39075239503583" y2="165.65625" fill="rgb(0, 0, 0)" stroke="rgb(60, 60, 60)" stroke-width="1px" opacity="0.25"></line><line x1="42.43235447292586" y1="0" x2="42.43235447292586" y2="165.65625" fill="rgb(0, 0, 0)" stroke="rgb(60, 60, 60)" stroke-width="1px" opacity="0.25"></line><line x1="63.4739565508159" y1="0" x2="63.4739565508159" y2="165.65625" fill="rgb(0, 0, 0)" stroke="rgb(60, 60, 60)" stroke-width="1px" opacity="0.25"></line><line x1="84.51555862870593" y1="0" x2="84.51555862870593" y2="165.65625" fill="rgb(0, 0, 0)" stroke="rgb(60, 60, 60)" stroke-width="1px" opacity="0.25"></line><line x1="105.55716070659598" y1="0" x2="105.55716070659598" y2="165.65625" fill="rgb(0, 0, 0)" stroke="rgb(60, 60, 60)" stroke-width="1px" opacity="0.25"></line><line x1="126.59876278448601" y1="0" x2="126.59876278448601" y2="165.65625" fill="rgb(0, 0, 0)" stroke="rgb(60, 60, 60)" stroke-width="1px" opacity="0.25"></line><line x1="147.64036486237606" y1="0" x2="147.64036486237606" y2="165.65625" fill="rgb(0, 0, 0)" stroke="rgb(60, 60, 60)" stroke-width="1px" opacity="0.25"></line><line x1="168.6819669402661" y1="0" x2="168.6819669402661" y2="165.65625" fill="rgb(0, 0, 0)" stroke="rgb(60, 60, 60)" stroke-width="1px" opacity="0.25"></line><line x1="189.72356901815613" y1="0" x2="189.72356901815613" y2="165.65625" fill="rgb(0, 0, 0)" stroke="rgb(60, 60, 60)" stroke-width="1px" opacity="0.25"></line><line x1="210.76517109604617" y1="0" x2="210.76517109604617" y2="165.65625" fill="rgb(0, 0, 0)" stroke="rgb(60, 60, 60)" stroke-width="1px" opacity="0.25"></line><line x1="231.80677317393622" y1="0" x2="231.80677317393622" y2="165.65625" fill="rgb(0, 0, 0)" stroke="rgb(60, 60, 60)" stroke-width="1px" opacity="0.25"></line><line x1="252.8483752518262" y1="0" x2="252.8483752518262" y2="165.65625" fill="rgb(0, 0, 0)" stroke="rgb(60, 60, 60)" stroke-width="1px" opacity="0.25"></line></g><g><line x1="0" y1="163.88147212850345" x2="271.40625" y2="163.88147212850345" fill="rgb(0, 0, 0)" stroke="rgb(60, 60, 60)" stroke-width="1px" opacity="0.25"></line><line x1="0" y1="141.7249688946772" x2="271.40625" y2="141.7249688946772" fill="rgb(0, 0, 0)" stroke="rgb(60, 60, 60)" stroke-width="1px" opacity="0.25"></line><line x1="0" y1="119.56846566085096" x2="271.40625" y2="119.56846566085096" fill="rgb(0, 0, 0)" stroke="rgb(60, 60, 60)" stroke-width="1px" opacity="0.25"></line><line x1="0" y1="97.41196242702473" x2="271.40625" y2="97.41196242702473" fill="rgb(0, 0, 0)" stroke="rgb(60, 60, 60)" stroke-width="1px" opacity="0.25"></line><line x1="0" y1="75.25545919319849" x2="271.40625" y2="75.25545919319849" fill="rgb(0, 0, 0)" stroke="rgb(60, 60, 60)" stroke-width="1px" opacity="0.25"></line><line x1="0" y1="53.09895595937223" x2="271.40625" y2="53.09895595937223" fill="rgb(0, 0, 0)" stroke="rgb(60, 60, 60)" stroke-width="1px" opacity="0.25"></line><line x1="0" y1="30.94245272554599" x2="271.40625" y2="30.94245272554599" fill="rgb(0, 0, 0)" stroke="rgb(60, 60, 60)" stroke-width="1px" opacity="0.25"></line><line x1="0" y1="8.785949491719776" x2="271.40625" y2="8.785949491719776" fill="rgb(0, 0, 0)" stroke="rgb(60, 60, 60)" stroke-width="1px" opacity="0.25"></line></g></g></g><g><g><line x1="0" y1="230.35098182998217" x2="271.40625" y2="230.35098182998217" fill="rgb(0, 0, 0)" stroke="rgb(153, 153, 153)" stroke-width="1.5px"></line></g></g><g><g><line x1="-18046203.423339605" y1="0" x2="-18046203.423339605" y2="165.65625" fill="rgb(0, 0, 0)" stroke="rgb(153, 153, 153)" stroke-width="1.5px"></line></g></g><g><g><g><g><g><path stroke="rgb(0, 153, 136)" stroke-width="2px" d="M-419.7300460978659,121.62409967612075L4.989630170066861,152.73552136018463L6.2232992998935535,137.55523935803365L7.496561710963476,129.59171979593577L8.768339520109016,125.60996001488684L10.053876199057706,123.6170298455038L11.34051171722602,122.62056476081227L12.625510666343834,111.15076179403968L13.907820966307249,101.30049172239667L15.18632039833878,93.1749737372066L16.463323538666994,86.59498735218057L17.74038512788987,79.22655700347526L19.017119403302644,71.23208119413228L20.29343284667386,66.2993482588344L21.56959432291896,63.0780169505539L22.845732419606193,61.114492031858305L24.121484753588668,60.50815841239147L25.39755271160231,58.428367194119815L26.67357391050022,57.058175292601746L27.948975551114728,56.446935602819025L29.224961680675847,55.67766880033162L30.500784153331914,54.378056363352286L31.776174104167485,53.713888288123826L33.05177447102384,52.661717261507604L34.32771384146923,51.852521583750786L35.603220690094126,50.45088072957367L36.877722217730856,49.569523509337756L38.15274978541954,48.47646003304213L39.427520177971715,47.39037809903965L40.702010015829515,46.828874717582465L41.97634788656119,45.88957741937172L43.250919552871515,44.60547612854977L44.52526911338213,43.68646285368955L45.80034344018653,44.07013917460611L47.07586197859037,42.51202305956892L48.350760958710794,42.31354718768655L49.6258002161784,42.35791461282828L50.90062905762523,40.87017524728853L52.175528037745664,40.21247010179894L53.45085953968657,39.212763645267984L54.725840348259524,38.856522381237966L56.000984813737524,37.804448100116375L57.27605914054194,37.51023443835362L58.551004879778084,37.28927134649592L59.8253193709519,36.96748231665984L61.09985596792543,35.44232366514893L62.37459129114081,35.17005482687978L63.64931492457725,35.86889564750504L64.92424897403447,34.79865807470446L66.2034731723598,34.561011309491676L67.47769414530215,34.30473670395435L68.75234764006501,33.370347874903416L70.02686085748067,34.00072286969572L71.30187673539041,33.09729856886426L72.57600419010133,32.50813519551758L73.85029530171727,32.27099433264689L75.1242123404074,32.28167400870822L76.39824627688684,31.917739145009932L77.67233866226094,31.59011277164302L78.94675836144516,31.760696435058946L80.22087412637713,30.900238540271403L81.49498989130909,34.782317205150264L82.76939790071438,33.07779564823355L84.04326818028876,31.815228178264647L85.3170098722949,31.694770925657252L86.59065804606958,31.006773985783838L87.86466860299116,30.059630358037793L89.13816480963973,30.21177327729967L90.41157918783578,29.621098014014166L91.68481821934783,29.59246171279898L92.95804556108095,29.186299285136812L94.23117938458263,29.63560293748344L95.5043482774211,29.14222135508956L96.77750548048063,28.43393718673144L98.05110689513958,29.382511254472888L99.32475506891426,29.56548700846062L100.59818113688925,28.92662659743081L101.87144354795916,28.553856125830407L103.14520861952316,28.494667417092018L104.4184359612563,28.3666002491386L105.69195554746273,27.66864421344016L106.96558034167954,27.533027259932993L108.23872585496015,28.051955106967625L109.51183629890394,27.6385181694165L110.78570657847834,27.312810892165913L112.05895729976933,27.67719917309131L113.3323132290707,26.739260932063132L114.60558732991957,26.85087399718529L115.87966802551475,26.80410055529245L117.1533045095105,26.75199012086847L118.42646171257003,26.740296760395267L119.69981764187142,26.137459060501328L120.97278780846803,26.065810108917532L122.24583980351717,26.032039213560495L123.51920742259749,26.273640774570225L124.79222434830983,25.91028520574079L126.06496071932781,25.890675196864947L127.33871410111287,25.901386187317826L128.61147385168871,25.37539920527638L129.8844673978432,25.134968686428778L131.15857147299624,25.533794231121362L132.4310506688777,25.238782751959178L133.70384548879036,25.507737842040598L134.97659354958725,25.47604705382531L136.2496806139732,25.47455691330393L137.52267416012768,26.70678549800965L138.79555080849283,25.50524339204273L140.0678897270271,24.60700031787178L141.34083651406587,24.615371600230333L142.61297670635832,24.313877501635318L143.88673008814337,24.433932340482556L145.15917421468805,24.38727922773512L146.43111568073866,24.532181188204788L147.7089721749289,24.186117758342277L148.98212937798843,24.0028313475419L150.25417605204942,24.45689247614834L151.52842040454965,23.840746685257443L152.80134381203052,23.973751172082387L154.07379962835412,23.722265399416614L155.34595151042552,23.276487519723105L156.618080012939,23.642381880946857L157.8901383767789,23.35758154624554L159.16273447044972,23.98040091539559L160.43582153483564,24.137950543018576L161.70852283651683,24.577792339972206L162.98092020394577,24.03249370194831L164.25353967717442,24.22553831781474L165.5264280153185,23.891237939346638L166.79894228053678,23.445084746533553L168.07260214409038,23.901063149347465L169.34476571594067,24.592699308350433L170.6164850761916,24.062510158310545L171.88794726130595,24.14207373241163L173.15983027846184,24.054665595552848L174.43693862680047,23.532952712788642L175.70869305638814,23.41364805205461L176.9808098691227,23.068838579956605L178.2522136053424,22.740513603368157L179.52431872829808,23.066668205712745L180.79629526368547,23.07383186949815L182.0681899706203,23.083567839542866L183.34054057893354,22.92841502630864L184.61256387343664,22.649785831653418L185.88430661324537,22.235568788463922L187.15614287128557,21.989481857522435L188.42817785556764,22.401888030189212L189.69923089841936,22.936333828469998L190.97034239016577,22.241391563941278L192.24181626505907,22.097020196997306L193.51284592835296,22.135615603413527L194.7836067267314,21.619463668484116L196.05538453587693,21.902991477308916L197.32772345441123,21.71241211205674L198.59909212129412,22.03152967865836L199.87047247795599,21.774627632296642L201.1415839697024,21.85338353530588L202.41281235923807,21.48655535301711L203.6837718838584,21.81192076696749L204.95496520405732,22.05050671220127L206.22538699884672,21.595371637333955L207.49636990302488,21.055976825126493L208.76751646410807,21.038618892711582L210.0378681202239,20.96429138411463L211.30850033103408,20.982514873183987L212.57877015869738,20.472592416754793L213.84838535874047,21.345971288617875L215.11847983971975,21.128222277936914L216.3885743206991,20.812140846406322L217.65790896604778,21.341362848448313L218.9284827279633,21.384411669692895L220.19877593518447,21.145388888039577L221.46843789434328,21.22693028525103L222.73926883139532,21.329242365376587L224.00875544387014,20.906496751974174L225.27809008921886,20.945409838526956L226.54803260307204,20.48891775105585L227.8176244235573,20.863816865129593L229.08748510895796,20.411189832292763L230.35780169573698,20.07204164555131L231.62753379356937,20.45227904705692L232.8969035082549,19.97359744445839L234.1665654674137,20.140462776952518L235.4361105287832,20.36339364341285L236.70576079816308,20.80926252989491L237.97510713329075,20.72651723336162L239.24466388443918,20.664628590204217L240.51395177067215,20.81216748133798L241.78291234309503,20.479737396264028L243.05298344451649,20.323777049596202L244.32168684180286,20.215026185502353L245.59063572444683,20.023199530524494L246.8595962968697,19.400044283484874L248.12928163558638,19.726489669403946L249.3984292444722,19.442480841941034L250.6674716453476,19.476906060487266L251.93660756445445,19.953658466486758L253.20505378660434,20.284353344918742L254.47368704521713,20.39225996033207L255.7422034060406,19.78562068327426L257.0104509019486,19.586927996481535L258.27902571166675,19.81583096818514" style="fill: none;" fill="none"></path></g></g></g></g><g opacity="0.20000000298023224"><g><g><g><path stroke="rgb(0, 153, 136)" stroke-width="2px" d="M4.989630170066861,183.84694304424855L6.2232992998935535,122.37495735588264L7.496561710963476,121.62820023383789L8.768339520109016,121.62820023383789L10.053876199057706,121.62409967612075L11.34051171722602,121.62409967612075L12.625510666343834,99.68095882726708L13.907820966307249,91.45022165075368L15.18632039833878,85.04945575201651L16.463323538666994,80.01500096715453L17.74038512788987,71.85812665476995L19.017119403302644,63.237605384789305L20.29343284667386,61.366615323536536L21.56959432291896,59.85668564227339L22.845732419606193,59.15096711316272L24.121484753588668,59.901824792924614L25.39755271160231,56.34857597584819L26.67357391050022,55.68798339108368L27.948975551114728,55.83569591303629L29.224961680675847,54.908401997844194L30.500784153331914,53.078443926372984L31.776174104167485,53.04972021289538L33.05177447102384,51.60954623489138L34.32771384146923,51.04332590599397L35.603220690094126,49.04923987539652L36.877722217730856,48.688166289101844L38.15274978541954,47.383396556746504L39.427520177971715,46.30429616503719L40.702010015829515,46.267371336125294L41.97634788656119,44.95028012116093L43.250919552871515,43.32137483772783L44.52526911338213,42.76744957882933L45.80034344018653,44.45381549552266L47.07586197859037,40.95390694453175L48.350760958710794,42.11507131580419L49.6258002161784,42.40228203797004L50.90062905762523,39.38243588174879L52.175528037745664,39.55476495630933L53.45085953968657,38.21305718873704L54.725840348259524,38.50028111720792L56.000984813737524,36.75237381899478L57.27605914054194,37.216020776590824L58.551004879778084,37.068308254638254L59.8253193709519,36.64569328682373L61.09985596792543,33.91716501363803L62.37459129114081,34.89778598861059L63.64931492457725,36.56773646813028L64.92424897403447,33.728420501903884L66.2034731723598,34.32336454427889L67.47769414530215,34.04846209841699L68.75234764006501,32.435959045852485L70.02686085748067,34.631097864488055L71.30187673539041,32.1938742680328L72.57600419010133,31.91897182217093L73.85029530171727,32.03385346977623L75.1242123404074,32.29235368476955L76.39824627688684,31.553804281311614L77.67233866226094,31.26248639827608L78.94675836144516,31.9312800984749L80.22087412637713,30.03978064548386L81.49498989130909,38.66439587002911L82.76939790071438,31.3732740913168L84.04326818028876,30.552660708295747L85.3170098722949,31.574313673049858L86.59065804606958,30.318777045910366L87.86466860299116,29.11248673029175L89.13816480963973,30.363916196561576L90.41157918783578,29.03042275072866L91.68481821934783,29.56382541158385L92.95804556108095,28.780136857474673L94.23117938458263,30.08490658983004L95.5043482774211,28.64883977269571L96.77750548048063,27.725653018373293L98.05110689513958,30.331085322214335L99.32475506891426,29.748462762448327L100.59818113688925,28.28776618640103L101.87144354795916,28.181085654229975L103.14520861952316,28.435478708353628L104.4184359612563,28.23853308118518L105.69195554746273,26.97068817774172L106.96558034167954,27.397410306425883L108.23872585496015,28.570882954002258L109.51183629890394,27.225081231865346L110.78570657847834,26.987103614915355L112.05895729976933,28.041587454016735L113.3323132290707,25.80132269103501L114.60558732991957,26.962487062307417L115.87966802551475,26.75732711339964L117.1533045095105,26.699879686444433L118.42646171257003,26.728603399922036L119.69981764187142,25.53462136060739L120.97278780846803,25.994161157333764L122.24583980351717,25.998268318203458L123.51920742259749,26.515242335579956L124.79222434830983,25.546929636911358L126.06496071932781,25.871065187989103L127.33871410111287,25.912097177770647L128.61147385168871,24.849412223234992L129.8844673978432,24.894538167581175L131.15857147299624,25.932619775813976L132.4310506688777,24.943771272796994L133.70384548879036,25.776692932122018L134.97659354958725,25.44435626560997L136.2496806139732,25.473066772782545L137.52267416012768,27.939014082715374L138.79555080849283,24.303701286075807L140.0678897270271,23.708757243700802L141.34083651406587,24.623742882588942L142.61297670635832,24.012383403040303L143.88673008814337,24.553987179329795L145.15917421468805,24.340626114987714L146.43111568073866,24.677083148674456L147.7089721749289,23.840054328479766L148.98212937798843,23.819544936741494L150.25417605204942,24.91095360475478L151.52842040454965,23.224600894366517L152.80134381203052,24.10675565890736L154.07379962835412,23.470779626750783L155.34595151042552,22.830709640029596L156.618080012939,24.00827624217061L157.8901383767789,23.072781211544225L159.16273447044972,24.603220284545614L160.43582153483564,24.29550017064153L161.70852283651683,25.017634136925807L162.98092020394577,23.487195063924446L164.25353967717442,24.418582933681137L165.5264280153185,23.556937560878538L166.79894228053678,22.998931553720467L168.07260214409038,24.35704155216135L169.34476571594067,25.28433546735343L170.6164850761916,23.53232100827063L171.88794726130595,24.22163730651269L173.15983027846184,23.96725745869412L174.43693862680047,23.011239830024408L175.70869305638814,23.29434339132061L176.9808098691227,22.72402910785857L178.2522136053424,22.412188626779738L179.52431872829808,23.392822808057332L180.79629526368547,23.080995533283584L182.0681899706203,23.093303809587525L183.34054057893354,22.773262213074418L184.61256387343664,22.371156636998194L185.88430661324537,21.8213517452744L187.15614287128557,21.743394926580947L188.42817785556764,22.81429420285599L189.69923089841936,23.470779626750783L190.97034239016577,21.5464492994125L192.24181626505907,21.952648830053363L193.51284592835296,22.174211009829747L194.7836067267314,21.103311733554705L196.05538453587693,22.186519286133688L197.32772345441123,21.52183274680459L198.59909212129412,22.35064724525992L199.87047247795599,21.517725585934897L201.1415839697024,21.93213943831509L202.41281235923807,21.11972717072834L203.6837718838584,22.13728618091787L204.95496520405732,22.289092657435077L206.22538699884672,21.14023656246661L207.49636990302488,20.51658201291903L208.76751646410807,21.021260960296644L210.0378681202239,20.88996387551768L211.30850033103408,21.000738362253344L212.57877015869738,19.9626699603256L213.84838535874047,22.219350160480957L215.11847983971975,20.910473267255924L216.3885743206991,20.49605941487573L217.65790896604778,21.870584850490246L218.9284827279633,21.427460490937506L220.19877593518447,20.90636610638626L221.46843789434328,21.30847168246251L222.73926883139532,21.431554445502115L224.00875544387014,20.483751138571762L225.27809008921886,20.98432292507971L226.54803260307204,20.032425663584746L227.8176244235573,21.238715979203363L229.08748510895796,19.958562799455905L230.35780169573698,19.732893458809883L231.62753379356937,20.8325164485625L232.8969035082549,19.494915841859864L234.1665654674137,20.307328109446615L235.4361105287832,20.58632450987315L236.70576079816308,21.25513141637697L237.97510713329075,20.643771936828358L239.24466388443918,20.602739947046786L240.51395177067215,20.9597063724718L241.78291234309503,20.147307311190076L243.05298344451649,20.16781670292832L244.32168684180286,20.106275321408532L245.59063572444683,19.831372875546634L246.8595962968697,18.776889036445255L248.12928163558638,20.05293505532299L249.3984292444722,19.15847201447818L250.6674716453476,19.5113312790335L251.93660756445445,20.43041087248625L253.20505378660434,20.615048223350755L254.47368704521713,20.500166575745425L255.7422034060406,19.178981406216423L257.0104509019486,19.388235309688838L258.27902571166675,20.044733939888687" style="fill: none;" fill="none"></path></g></g></g></g></g></g><g transform="translate(58, 165)" clip-path="url(#clip_1)"><clipPath id="clip_1"><rect width="271" height="34"></rect></clipPath><g><g visibility="inherit"><g><g transform="translate(0.17457515857289432,0)" style="visibility: hidden;"><text transform="translate(0,14.171875)" style="text-anchor: middle; font-family: &quot;Helvetica Neue&quot;, sans-serif; font-size: 12px; font-weight: 200;" fill="rgb(50, 49, 63)" stroke="none" stroke-width="1px">02 PM</text></g><g transform="translate(10.869951356090807,0)" style="visibility: hidden;"><text transform="translate(0,14.171875)" style="text-anchor: middle; font-family: &quot;Helvetica Neue&quot;, sans-serif; font-size: 12px; font-weight: 200;" fill="rgb(50, 49, 63)" stroke="none" stroke-width="1px">03 PM</text></g><g transform="translate(31.911553433980842,0)" style="visibility: hidden;"><text transform="translate(0,14.171875)" style="text-anchor: middle; font-family: &quot;Helvetica Neue&quot;, sans-serif; font-size: 12px; font-weight: 200;" fill="rgb(50, 49, 63)" stroke="none" stroke-width="1px">03 PM</text></g><g transform="translate(52.95315551187088,0)" style="visibility: hidden;"><text transform="translate(0,14.171875)" style="text-anchor: middle; font-family: &quot;Helvetica Neue&quot;, sans-serif; font-size: 12px; font-weight: 200;" fill="rgb(50, 49, 63)" stroke="none" stroke-width="1px">04 PM</text></g><g transform="translate(73.99475758976091,0)" style="visibility: hidden;"><text transform="translate(0,14.171875)" style="text-anchor: middle; font-family: &quot;Helvetica Neue&quot;, sans-serif; font-size: 12px; font-weight: 200;" fill="rgb(50, 49, 63)" stroke="none" stroke-width="1px">04 PM</text></g><g transform="translate(95.03635966765096,0)" style="visibility: hidden;"><text transform="translate(0,14.171875)" style="text-anchor: middle; font-family: &quot;Helvetica Neue&quot;, sans-serif; font-size: 12px; font-weight: 200;" fill="rgb(50, 49, 63)" stroke="none" stroke-width="1px">05 PM</text></g><g transform="translate(116.07796174554099,0)" style="visibility: hidden;"><text transform="translate(0,14.171875)" style="text-anchor: middle; font-family: &quot;Helvetica Neue&quot;, sans-serif; font-size: 12px; font-weight: 200;" fill="rgb(50, 49, 63)" stroke="none" stroke-width="1px">05 PM</text></g><g transform="translate(137.11956382343104,0)" style="visibility: hidden;"><text transform="translate(0,14.171875)" style="text-anchor: middle; font-family: &quot;Helvetica Neue&quot;, sans-serif; font-size: 12px; font-weight: 200;" fill="rgb(50, 49, 63)" stroke="none" stroke-width="1px">06 PM</text></g><g transform="translate(158.16116590132108,0)" style="visibility: hidden;"><text transform="translate(0,14.171875)" style="text-anchor: middle; font-family: &quot;Helvetica Neue&quot;, sans-serif; font-size: 12px; font-weight: 200;" fill="rgb(50, 49, 63)" stroke="none" stroke-width="1px">06 PM</text></g><g transform="translate(179.2027679792111,0)" style="visibility: hidden;"><text transform="translate(0,14.171875)" style="text-anchor: middle; font-family: &quot;Helvetica Neue&quot;, sans-serif; font-size: 12px; font-weight: 200;" fill="rgb(50, 49, 63)" stroke="none" stroke-width="1px">07 PM</text></g><g transform="translate(200.24437005710115,0)" style="visibility: hidden;"><text transform="translate(0,14.171875)" style="text-anchor: middle; font-family: &quot;Helvetica Neue&quot;, sans-serif; font-size: 12px; font-weight: 200;" fill="rgb(50, 49, 63)" stroke="none" stroke-width="1px">07 PM</text></g><g transform="translate(221.2859721349912,0)" style="visibility: hidden;"><text transform="translate(0,14.171875)" style="text-anchor: middle; font-family: &quot;Helvetica Neue&quot;, sans-serif; font-size: 12px; font-weight: 200;" fill="rgb(50, 49, 63)" stroke="none" stroke-width="1px">08 PM</text></g><g transform="translate(242.32757421288122,0)" style="visibility: hidden;"><text transform="translate(0,14.171875)" style="text-anchor: middle; font-family: &quot;Helvetica Neue&quot;, sans-serif; font-size: 12px; font-weight: 200;" fill="rgb(50, 49, 63)" stroke="none" stroke-width="1px">08 PM</text></g><g transform="translate(262.12731262591313,0)" style="visibility: hidden;"><text transform="translate(0,14.171875)" style="text-anchor: middle; font-family: &quot;Helvetica Neue&quot;, sans-serif; font-size: 12px; font-weight: 200;" fill="rgb(50, 49, 63)" stroke="none" stroke-width="1px">09 PM</text></g></g><g><line x1="0" y1="0" x2="0" y2="17.171875" fill="rgb(0, 0, 0)" stroke="rgb(204, 204, 204)" stroke-width="1px"></line><line x1="0.34915031714578865" y1="0" x2="0.34915031714578865" y2="17.171875" fill="rgb(0, 0, 0)" stroke="rgb(204, 204, 204)" stroke-width="1px"></line><line x1="21.39075239503583" y1="0" x2="21.39075239503583" y2="17.171875" fill="rgb(0, 0, 0)" stroke="rgb(204, 204, 204)" stroke-width="1px"></line><line x1="42.43235447292586" y1="0" x2="42.43235447292586" y2="17.171875" fill="rgb(0, 0, 0)" stroke="rgb(204, 204, 204)" stroke-width="1px"></line><line x1="63.4739565508159" y1="0" x2="63.4739565508159" y2="17.171875" fill="rgb(0, 0, 0)" stroke="rgb(204, 204, 204)" stroke-width="1px"></line><line x1="84.51555862870593" y1="0" x2="84.51555862870593" y2="17.171875" fill="rgb(0, 0, 0)" stroke="rgb(204, 204, 204)" stroke-width="1px"></line><line x1="105.55716070659598" y1="0" x2="105.55716070659598" y2="17.171875" fill="rgb(0, 0, 0)" stroke="rgb(204, 204, 204)" stroke-width="1px"></line><line x1="126.59876278448601" y1="0" x2="126.59876278448601" y2="17.171875" fill="rgb(0, 0, 0)" stroke="rgb(204, 204, 204)" stroke-width="1px"></line><line x1="147.64036486237606" y1="0" x2="147.64036486237606" y2="17.171875" fill="rgb(0, 0, 0)" stroke="rgb(204, 204, 204)" stroke-width="1px"></line><line x1="168.6819669402661" y1="0" x2="168.6819669402661" y2="17.171875" fill="rgb(0, 0, 0)" stroke="rgb(204, 204, 204)" stroke-width="1px"></line><line x1="189.72356901815613" y1="0" x2="189.72356901815613" y2="17.171875" fill="rgb(0, 0, 0)" stroke="rgb(204, 204, 204)" stroke-width="1px"></line><line x1="210.76517109604617" y1="0" x2="210.76517109604617" y2="17.171875" fill="rgb(0, 0, 0)" stroke="rgb(204, 204, 204)" stroke-width="1px"></line><line x1="231.80677317393622" y1="0" x2="231.80677317393622" y2="17.171875" fill="rgb(0, 0, 0)" stroke="rgb(204, 204, 204)" stroke-width="1px"></line><line x1="252.8483752518262" y1="0" x2="252.8483752518262" y2="17.171875" fill="rgb(0, 0, 0)" stroke="rgb(204, 204, 204)" stroke-width="1px"></line><line x1="271.40625" y1="0" x2="271.40625" y2="17.171875" fill="rgb(0, 0, 0)" stroke="rgb(204, 204, 204)" stroke-width="1px"></line></g><line x1="0" y1="0" x2="271.40625" y2="0" style="visibility: inherit;" fill="rgb(0, 0, 0)" stroke="rgb(204, 204, 204)" stroke-width="1px"></line></g><g visibility="inherit"><g><g transform="translate(0.17457515857289432,0)" style="visibility: hidden;"><text transform="translate(0,31.34375)" style="text-anchor: middle; font-family: &quot;Helvetica Neue&quot;, sans-serif; font-size: 12px; font-weight: 200;" fill="rgb(50, 49, 63)" stroke="none" stroke-width="1px">December  2, 2018</text></g><g transform="translate(10.869951356090807,0)" style="visibility: hidden;"><text transform="translate(0,31.34375)" style="text-anchor: middle; font-family: &quot;Helvetica Neue&quot;, sans-serif; font-size: 12px; font-weight: 200;" fill="rgb(50, 49, 63)" stroke="none" stroke-width="1px">December  2, 2018</text></g><g transform="translate(31.911553433980842,0)" style="visibility: hidden;"><text transform="translate(0,31.34375)" style="text-anchor: middle; font-family: &quot;Helvetica Neue&quot;, sans-serif; font-size: 12px; font-weight: 200;" fill="rgb(50, 49, 63)" stroke="none" stroke-width="1px">December  2, 2018</text></g><g transform="translate(52.95315551187088,0)" style="visibility: hidden;"><text transform="translate(0,31.34375)" style="text-anchor: middle; font-family: &quot;Helvetica Neue&quot;, sans-serif; font-size: 12px; font-weight: 200;" fill="rgb(50, 49, 63)" stroke="none" stroke-width="1px">December  2, 2018</text></g><g transform="translate(73.99475758976091,0)" style="visibility: hidden;"><text transform="translate(0,31.34375)" style="text-anchor: middle; font-family: &quot;Helvetica Neue&quot;, sans-serif; font-size: 12px; font-weight: 200;" fill="rgb(50, 49, 63)" stroke="none" stroke-width="1px">December  2, 2018</text></g><g transform="translate(95.03635966765096,0)" style="visibility: hidden;"><text transform="translate(0,31.34375)" style="text-anchor: middle; font-family: &quot;Helvetica Neue&quot;, sans-serif; font-size: 12px; font-weight: 200;" fill="rgb(50, 49, 63)" stroke="none" stroke-width="1px">December  2, 2018</text></g><g transform="translate(116.07796174554099,0)" style="visibility: hidden;"><text transform="translate(0,31.34375)" style="text-anchor: middle; font-family: &quot;Helvetica Neue&quot;, sans-serif; font-size: 12px; font-weight: 200;" fill="rgb(50, 49, 63)" stroke="none" stroke-width="1px">December  2, 2018</text></g><g transform="translate(137.11956382343104,0)" style="visibility: hidden;"><text transform="translate(0,31.34375)" style="text-anchor: middle; font-family: &quot;Helvetica Neue&quot;, sans-serif; font-size: 12px; font-weight: 200;" fill="rgb(50, 49, 63)" stroke="none" stroke-width="1px">December  2, 2018</text></g><g transform="translate(158.16116590132108,0)" style="visibility: hidden;"><text transform="translate(0,31.34375)" style="text-anchor: middle; font-family: &quot;Helvetica Neue&quot;, sans-serif; font-size: 12px; font-weight: 200;" fill="rgb(50, 49, 63)" stroke="none" stroke-width="1px">December  2, 2018</text></g><g transform="translate(179.2027679792111,0)" style="visibility: hidden;"><text transform="translate(0,31.34375)" style="text-anchor: middle; font-family: &quot;Helvetica Neue&quot;, sans-serif; font-size: 12px; font-weight: 200;" fill="rgb(50, 49, 63)" stroke="none" stroke-width="1px">December  2, 2018</text></g><g transform="translate(200.24437005710115,0)" style="visibility: hidden;"><text transform="translate(0,31.34375)" style="text-anchor: middle; font-family: &quot;Helvetica Neue&quot;, sans-serif; font-size: 12px; font-weight: 200;" fill="rgb(50, 49, 63)" stroke="none" stroke-width="1px">December  2, 2018</text></g><g transform="translate(221.2859721349912,0)" style="visibility: hidden;"><text transform="translate(0,31.34375)" style="text-anchor: middle; font-family: &quot;Helvetica Neue&quot;, sans-serif; font-size: 12px; font-weight: 200;" fill="rgb(50, 49, 63)" stroke="none" stroke-width="1px">December  2, 2018</text></g><g transform="translate(242.32757421288122,0)" style="visibility: hidden;"><text transform="translate(0,31.34375)" style="text-anchor: middle; font-family: &quot;Helvetica Neue&quot;, sans-serif; font-size: 12px; font-weight: 200;" fill="rgb(50, 49, 63)" stroke="none" stroke-width="1px">December  2, 2018</text></g><g transform="translate(262.12731262591313,0)" style="visibility: hidden;"><text transform="translate(0,31.34375)" style="text-anchor: middle; font-family: &quot;Helvetica Neue&quot;, sans-serif; font-size: 12px; font-weight: 200;" fill="rgb(50, 49, 63)" stroke="none" stroke-width="1px">December  2, 2018</text></g></g><g><line x1="0" y1="17.171875" x2="0" y2="34.34375" fill="rgb(0, 0, 0)" stroke="rgb(204, 204, 204)" stroke-width="1px"></line><line x1="0.34915031714578865" y1="17.171875" x2="0.34915031714578865" y2="34.34375" fill="rgb(0, 0, 0)" stroke="rgb(204, 204, 204)" stroke-width="1px"></line><line x1="21.39075239503583" y1="17.171875" x2="21.39075239503583" y2="34.34375" fill="rgb(0, 0, 0)" stroke="rgb(204, 204, 204)" stroke-width="1px"></line><line x1="42.43235447292586" y1="17.171875" x2="42.43235447292586" y2="34.34375" fill="rgb(0, 0, 0)" stroke="rgb(204, 204, 204)" stroke-width="1px"></line><line x1="63.4739565508159" y1="17.171875" x2="63.4739565508159" y2="34.34375" fill="rgb(0, 0, 0)" stroke="rgb(204, 204, 204)" stroke-width="1px"></line><line x1="84.51555862870593" y1="17.171875" x2="84.51555862870593" y2="34.34375" fill="rgb(0, 0, 0)" stroke="rgb(204, 204, 204)" stroke-width="1px"></line><line x1="105.55716070659598" y1="17.171875" x2="105.55716070659598" y2="34.34375" fill="rgb(0, 0, 0)" stroke="rgb(204, 204, 204)" stroke-width="1px"></line><line x1="126.59876278448601" y1="17.171875" x2="126.59876278448601" y2="34.34375" fill="rgb(0, 0, 0)" stroke="rgb(204, 204, 204)" stroke-width="1px"></line><line x1="147.64036486237606" y1="17.171875" x2="147.64036486237606" y2="34.34375" fill="rgb(0, 0, 0)" stroke="rgb(204, 204, 204)" stroke-width="1px"></line><line x1="168.6819669402661" y1="17.171875" x2="168.6819669402661" y2="34.34375" fill="rgb(0, 0, 0)" stroke="rgb(204, 204, 204)" stroke-width="1px"></line><line x1="189.72356901815613" y1="17.171875" x2="189.72356901815613" y2="34.34375" fill="rgb(0, 0, 0)" stroke="rgb(204, 204, 204)" stroke-width="1px"></line><line x1="210.76517109604617" y1="17.171875" x2="210.76517109604617" y2="34.34375" fill="rgb(0, 0, 0)" stroke="rgb(204, 204, 204)" stroke-width="1px"></line><line x1="231.80677317393622" y1="17.171875" x2="231.80677317393622" y2="34.34375" fill="rgb(0, 0, 0)" stroke="rgb(204, 204, 204)" stroke-width="1px"></line><line x1="252.8483752518262" y1="17.171875" x2="252.8483752518262" y2="34.34375" fill="rgb(0, 0, 0)" stroke="rgb(204, 204, 204)" stroke-width="1px"></line><line x1="271.40625" y1="17.171875" x2="271.40625" y2="34.34375" fill="rgb(0, 0, 0)" stroke="rgb(204, 204, 204)" stroke-width="1px"></line></g><line x1="0" y1="17.171875" x2="271.40625" y2="17.171875" style="visibility: inherit;" fill="rgb(0, 0, 0)" stroke="rgb(204, 204, 204)" stroke-width="1px"></line></g></g></g></g></g></svg>