<svg viewBox="-624 -391 1248 782" width="1248" height="782" style="background-color: rgb(255, 255, 255);" xmlns="http://www.w3.org/2000/svg"><path d="M-80.57779640433428,-13.665473640465533L-82.0541614731383,-14.16042400611071M-82.0541614731383,-110.22247531686044L-82.0541614731383,-14.16042400611071M-82.0541614731383,-14.16042400611071L-143.05241820060024,34.75565056401774M-80.57779640433428,-109.72752495121524L-80.57779640433428,-13.665473640465533M-80.57779640433428,-13.665473640465533L-141.57605313179624,35.25060092966293" style="fill:none;stroke:rgb(0,0,0);stroke-width:1;stroke-linecap:round"></path><path d="M-80.57779640433426,-13.665473640465525L-82.0541614731383,-14.160424006110706L-82.0541614731383,-110.22247531686044zM-143.05241820060024,34.75565056401775L-82.0541614731383,-14.160424006110706L-80.57779640433426,-13.665473640465525z" style="fill:rgb(238,238,238); fill-opacity: 0.27"></path><path d="M-0.1334922536294183,13.178959951138067L-32.880317461010755,2.200609506121192M-32.880317461010755,-92.9657218360792L-32.880317461010755,2.200609506121192M-32.880317461010755,2.200609506121192L-93.30980269284079,50.66057155129665M-91.37390609556545,-27.94993343149834L-92.85027116436947,-28.44488379714352M-92.85027116436947,-35.96137329537955L-92.85027116436947,-28.44488379714352M-92.85027116436947,-28.44488379714352L-97.62315233697218,-24.617387342670487M-92.11209217962428,-35.71389979723038L-92.11209217962428,-28.19741029899435M-92.11209217962428,-28.19741029899435L-96.88497426258184,-24.3699131144843M-92.11209217962428,-28.19741029899435L-45.939945859688386,-13.77795316864713M-91.37390609556545,-35.46642292973438L-91.37390609556545,-27.94993343149834M-91.37390609556545,-27.94993343149834L-96.14678726816814,-24.12243697702531" style="fill:none;stroke:rgb(0,0,0);stroke-width:1;stroke-linecap:round"></path><path d="M-91.37390609556545,-27.949933431498337L-92.85027116436946,-28.44488379714352L-92.85027116436946,-35.96137329537955zM-97.62315233697218,-24.617387342670487L-92.85027116436946,-28.44488379714352L-91.37390609556545,-27.949933431498337zM-91.37390609556545,-35.46642292973438L-91.37390609556545,-27.949933431498337L-92.85027116436946,-35.96137329537955z" style="fill:rgb(153,221,255); fill-opacity: 0.07"></path><path d="M-92.11208862996745,-35.71389811255697L-92.11208862996745,-28.197408614320928L-96.88496980257017,-24.369912159847896z" style="fill:rgb(255,187,187); fill-opacity: 0.07"></path><path d="M-96.14678726816814,-24.122436977025302L-91.37390609556545,-27.949933431498337L-91.37390609556545,-35.46642292973438z" style="fill:rgb(153,221,255); fill-opacity: 0.07"></path><path d="M-91.37390609556545,-35.46642292973438L-92.85027116436947,-35.96137329537955M-92.85027116436947,-35.96137329537955L-97.62315233697218,-32.13387684090652" style="fill:none;stroke:rgb(0,0,0);stroke-width:1;stroke-linecap:round"></path><path d="M-96.14678726816814,-24.122436977025302L-97.62315233697218,-24.617387342670487L-91.37390609556545,-27.949933431498337z" style="fill:rgb(153,221,255); fill-opacity: 0.07"></path><path d="M-92.11209217962428,-35.71389979723038L-96.88497426258184,-31.886402612720335M-92.11209217962428,-35.71389979723038L-45.939945859688386,-13.77795316864713" style="fill:none;stroke:rgb(0,0,0);stroke-width:1;stroke-linecap:round"></path><path d="M-92.85027116436946,-35.96137329537955L-92.85027116436946,-28.44488379714352L-97.62315233697218,-32.13387684090652z" style="fill:rgb(153,221,255); fill-opacity: 0.07"></path><path d="M-91.37390609556545,-35.46642292973438L-96.14678726816814,-31.63892647526134" style="fill:none;stroke:rgb(0,0,0);stroke-width:1;stroke-linecap:round"></path><path d="M-92.85027116436946,-28.44488379714352L-97.62315233697218,-24.617387342670487L-97.62315233697218,-32.13387684090652z" style="fill:rgb(153,221,255); fill-opacity: 0.07"></path><path d="M-97.62315233697218,-32.13387684090652L-97.62315233697218,-24.617387342670487M-97.62315233697218,-24.617387342670487L-96.14678726816814,-24.12243697702531M-96.88497426258184,-24.3699131144843L-96.88497426258184,-31.886402612720335M-96.88497426258184,-24.3699131144843L-45.939945859688386,-13.77795316864713M-96.14678726816814,-31.63892647526134L-96.14678726816814,-24.12243697702531" style="fill:none;stroke:rgb(0,0,0);stroke-width:1;stroke-linecap:round"></path><path d="M-96.14678726816814,-31.63892647526134L-91.37390609556545,-35.46642292973438L-92.85027116436946,-35.96137329537955z" style="fill:rgb(153,221,255); fill-opacity: 0.07"></path><path d="M-92.11208862996745,-35.71389811255697L-96.88496980257017,-24.369912159847896L-96.88496980257017,-31.886401658083933z" style="fill:rgb(255,187,187); fill-opacity: 0.07"></path><path d="M-96.14678726816814,-31.63892647526134L-96.14678726816814,-24.122436977025302L-91.37390609556545,-35.46642292973438zM-97.62315233697218,-24.617387342670487L-96.14678726816814,-24.122436977025302L-96.14678726816814,-31.63892647526134zM-97.62315233697218,-32.13387684090652L-96.14678726816814,-31.63892647526134L-92.85027116436946,-35.96137329537955zM-97.62315233697218,-32.13387684090652L-97.62315233697218,-24.617387342670487L-96.14678726816814,-31.63892647526134z" style="fill:rgb(153,221,255); fill-opacity: 0.07"></path><path d="M-97.62315233697218,-32.13387684090652L-96.14678726816814,-31.63892647526134" style="fill:none;stroke:rgb(0,0,0);stroke-width:1;stroke-linecap:round"></path><path d="M-80.57779640433426,-109.72752495121524L-80.57779640433426,-13.665473640465525L-82.0541614731383,-110.22247531686044z" style="fill:rgb(238,238,238); fill-opacity: 0.27"></path><path d="M-96.88497426258184,-31.886402612720335L-45.939945859688386,-13.77795316864713" style="fill:none;stroke:rgb(0,0,0);stroke-width:1;stroke-linecap:round"></path><path d="M-92.11208862996745,-28.197408614320928L-92.11208862996745,-35.71389811255697L-45.93994791097035,-13.77795388626347zM-96.88496980257017,-24.369912159847896L-92.11208862996745,-28.197408614320928L-45.93994791097035,-13.77795388626347zM-92.11208862996745,-35.71389811255697L-96.88496980257017,-31.886401658083933L-45.93994791097035,-13.77795388626347zM-96.88496980257017,-31.886401658083933L-96.88496980257017,-24.369912159847896L-45.93994791097035,-13.77795388626347z" style="fill:rgb(255,187,187); fill-opacity: 0.07"></path><path d="M-0.1334922536294183,-81.98737139106233L-0.1334922536294183,13.178959951138067M-0.1334922536294183,13.178959951138067L-60.56297748545945,61.63892199631351" style="fill:none;stroke:rgb(0,0,0);stroke-width:1;stroke-linecap:round"></path><path d="M-141.57605313179621,35.25060092966293L-80.57779640433426,-13.665473640465525L-80.57779640433426,-109.72752495121524zM-0.13349225362941383,13.178959951138067L-32.88031746101076,2.2006095061211908L-32.88031746101076,-92.9657218360792zM-141.57605313179621,35.25060092966293L-143.05241820060024,34.75565056401775L-80.57779640433426,-13.665473640465525z" style="fill:rgb(238,238,238); fill-opacity: 0.27"></path><path d="M-80.57779640433428,-109.72752495121524L-82.0541614731383,-110.22247531686044M-82.0541614731383,-110.22247531686044L-143.05241820060024,-61.30640074673198M-80.57779640433428,-109.72752495121524L-141.57605313179624,-60.811450381086814" style="fill:none;stroke:rgb(0,0,0);stroke-width:1;stroke-linecap:round"></path><path d="M-93.30980269284079,50.66057155129665L-32.88031746101076,2.2006095061211908L-0.13349225362941383,13.178959951138067zM-82.0541614731383,-110.22247531686044L-82.0541614731383,-14.160424006110706L-143.05241820060024,-61.30640074673198z" style="fill:rgb(238,238,238); fill-opacity: 0.27"></path><path d="M-28.80866798908464,28.838058931019546L-61.555493196465974,17.85970848600267M-61.555493196465974,10.343218987766639L-61.555493196465974,17.85970848600267M-61.555493196465974,17.85970848600267L-66.3283743690687,21.687204940475706" style="fill:none;stroke:rgb(0,0,0);stroke-width:1;stroke-linecap:round"></path><path d="M-82.0541614731383,-14.160424006110706L-143.05241820060024,34.75565056401775L-143.05241820060024,-61.30640074673198z" style="fill:rgb(238,238,238); fill-opacity: 0.27"></path><path d="M-28.80866798908464,21.321569432783512L-61.555493196465974,10.343218987766639M-61.555493196465974,10.343218987766639L-66.3283743690687,14.170715442239672" style="fill:none;stroke:rgb(0,0,0);stroke-width:1;stroke-linecap:round"></path><path d="M-61.555493196465974,10.343218987766633L-61.555493196465974,17.859708486002667L-66.3283743690687,14.170715442239665zM-61.555493196465974,17.859708486002667L-66.3283743690687,21.6872049404757L-66.3283743690687,14.170715442239665z" style="fill:rgb(153,221,255); fill-opacity: 0.07"></path><path d="M-66.3283743690687,14.170715442239672L-66.3283743690687,21.687204940475706M-66.3283743690687,21.687204940475706L-33.581549161687356,32.66555538549258" style="fill:none;stroke:rgb(0,0,0);stroke-width:1;stroke-linecap:round"></path><path d="M-28.808667989084633,28.83805893101954L-61.555493196465974,17.859708486002667L-61.555493196465974,10.343218987766633zM-66.3283743690687,21.6872049404757L-61.555493196465974,17.859708486002667L-28.808667989084633,28.83805893101954z" style="fill:rgb(153,221,255); fill-opacity: 0.07"></path><path d="M-0.13349225362941383,-81.98737139106233L-0.13349225362941383,13.178959951138067L-32.88031746101076,-92.9657218360792z" style="fill:rgb(238,238,238); fill-opacity: 0.27"></path><path d="M-143.05241820060024,-61.30640074673198L-143.05241820060024,34.75565056401774M-143.05241820060024,34.75565056401774L-141.57605313179624,35.25060092966293M-66.3283743690687,14.170715442239672L-33.581549161687356,25.149065887256548M-141.57605313179624,-60.811450381086814L-141.57605313179624,35.25060092966293" style="fill:none;stroke:rgb(0,0,0);stroke-width:1;stroke-linecap:round"></path><path d="M-153.01382251862557,35.14550237190614h17.58086915910623v8.79043457955314h-17.58086915910623z" style="fill:rgb(255,255,255)"></path><path d="M76.70174779764034,36.91085159590669L43.954922590258995,25.93250115088982M43.954922590258995,-54.6457377753314L43.954922590258995,25.93250115088982M43.954922590258995,25.93250115088982L-7.211297968247739,66.96401245283084" style="fill:none;stroke:rgb(0,0,0);stroke-width:1;stroke-linecap:round"></path><path d="M-66.3283743690687,14.170715442239665L-33.58154916168735,25.149065887256537L-61.555493196465974,10.343218987766633zM-28.808667989084633,21.32156943278351L-28.808667989084633,28.83805893101954L-61.555493196465974,10.343218987766633z" style="fill:rgb(153,221,255); fill-opacity: 0.07"></path><path d="M-141.57605313179621,-60.81145038108679L-80.57779640433426,-109.72752495121524L-82.0541614731383,-110.22247531686044z" style="fill:rgb(238,238,238); fill-opacity: 0.27"></path><path d="M-0.1334922536294183,-81.98737139106233L-32.880317461010755,-92.9657218360792M-32.880317461010755,-92.9657218360792L-93.30980269284079,-44.50575979090376" style="fill:none;stroke:rgb(0,0,0);stroke-width:1;stroke-linecap:round"></path><path d="M-66.3283743690687,14.170715442239665L-66.3283743690687,21.6872049404757L-33.58154916168735,25.149065887256537zM-33.58154916168735,32.665555385492574L-66.3283743690687,21.6872049404757L-28.808667989084633,28.83805893101954z" style="fill:rgb(153,221,255); fill-opacity: 0.07"></path><path d="M-28.808669184819752,21.321568223109082L-28.808669184819752,28.838057721345116M-28.808669184819752,28.838057721345116L-33.58155035742247,32.66555417581815M-28.808669184819752,28.838057721345116L17.654756645213364,37.62945707908764M-28.80866798908464,21.321569432783512L-28.80866798908464,28.838058931019546M-28.80866798908464,28.838058931019546L-33.581549161687356,32.66555538549258" style="fill:none;stroke:rgb(0,0,0);stroke-width:1;stroke-linecap:round"></path><path d="M-33.58154916168735,25.149065887256537L-28.808667989084633,21.32156943278351L-61.555493196465974,10.343218987766633zM-66.3283743690687,21.6872049404757L-33.58154916168735,32.665555385492574L-33.58154916168735,25.149065887256537z" style="fill:rgb(153,221,255); fill-opacity: 0.07"></path><path d="M-60.56297748545945,61.63892199631351L-0.13349225362941383,13.178959951138067L-0.13349225362941383,-81.98737139106233z" style="fill:rgb(238,238,238); fill-opacity: 0.27"></path><path d="M-28.808668034076074,21.32156941770016L-28.808668034076074,28.838058915936195L-33.58154920667879,32.66555537040922z" style="fill:rgb(255,187,187); fill-opacity: 0.07"></path><path d="M-33.58154916168735,32.665555385492574L-28.808667989084633,28.83805893101954L-28.808667989084633,21.32156943278351z" style="fill:rgb(153,221,255); fill-opacity: 0.07"></path><path d="M-28.808669184819752,21.321568223109082L-33.58155035742247,25.149064677582118M-28.808669184819752,21.321568223109082L17.654756645213364,37.62945707908764M-28.80866798908464,21.321569432783512L-33.581549161687356,25.149065887256548" style="fill:none;stroke:rgb(0,0,0);stroke-width:1;stroke-linecap:round"></path><path d="M-32.88031746101076,-92.9657218360792L-32.88031746101076,2.2006095061211908L-93.30980269284079,-44.50575979090377zM-60.56297748545945,61.63892199631351L-93.30980269284079,50.66057155129665L-0.13349225362941383,13.178959951138067zM-141.57605313179621,-60.81145038108679L-141.57605313179621,35.25060092966293L-80.57779640433426,-109.72752495121524z" style="fill:rgb(238,238,238); fill-opacity: 0.27"></path><path d="M-33.58155035742247,32.66555417581815L-33.58155035742247,25.149064677582118M-33.58155035742247,32.66555417581815L17.654756645213364,37.62945707908764M-33.581549161687356,25.149065887256548L-33.581549161687356,32.66555538549258" style="fill:none;stroke:rgb(0,0,0);stroke-width:1;stroke-linecap:round"></path><path d="M-28.808668034076074,21.32156941770016L-33.58154920667879,32.66555537040922L-33.58154920667879,25.14906587217319z" style="fill:rgb(255,187,187); fill-opacity: 0.07"></path><path d="M-33.58154916168735,25.149065887256537L-33.58154916168735,32.665555385492574L-28.808667989084633,21.32156943278351z" style="fill:rgb(153,221,255); fill-opacity: 0.07"></path><path d="M-125.03463708843248,-95.90692462569733h17.58086915910623v8.790434579553112h-17.58086915910623z" style="fill:rgb(255,255,255)"></path><path d="M-33.58155035742247,25.149064677582118L17.654756645213364,37.62945707908764" style="fill:none;stroke:rgb(0,0,0);stroke-width:1;stroke-linecap:round"></path><path d="M-32.88031746101076,2.2006095061211908L-93.30980269284079,50.66057155129665L-93.30980269284079,-44.50575979090377zM-143.05241820060024,34.75565056401775L-141.57605313179621,35.25060092966293L-141.57605313179621,-60.81145038108679z" style="fill:rgb(238,238,238); fill-opacity: 0.27"></path><path d="M76.70174779764034,-43.66738733031453L76.70174779764034,36.91085159590669M76.70174779764034,36.91085159590669L25.5355272391336,77.9423628978477" style="fill:none;stroke:rgb(0,0,0);stroke-width:1;stroke-linecap:round"></path><path d="M-28.808668034076074,28.838058915936195L-28.808668034076074,21.32156941770016L17.654756334351063,37.629456212649515zM-33.58154920667879,32.66555537040922L-28.808668034076074,28.838058915936195L17.654756334351063,37.629456212649515z" style="fill:rgb(255,187,187); fill-opacity: 0.07"></path><path d="M-0.1334922536294183,-81.98737139106233L-60.56297748545945,-33.52740934588689" style="fill:none;stroke:rgb(0,0,0);stroke-width:1;stroke-linecap:round"></path><path d="M-28.808668034076074,21.32156941770016L-33.58154920667879,25.14906587217319L17.654756334351063,37.629456212649515z" style="fill:rgb(255,187,187); fill-opacity: 0.07"></path><path d="M76.70174779764034,36.91085159590669L43.954922590258995,25.932501150889813L43.954922590258995,-54.6457377753314z" style="fill:rgb(238,238,238); fill-opacity: 0.27"></path><path d="M-33.58154920667879,25.14906587217319L-33.58154920667879,32.66555537040922L17.654756334351063,37.629456212649515z" style="fill:rgb(255,187,187); fill-opacity: 0.07"></path><path d="M-93.30980269284079,-44.50575979090376L-93.30980269284079,50.66057155129665M-93.30980269284079,50.66057155129665L-60.56297748545945,61.63892199631351" style="fill:none;stroke:rgb(0,0,0);stroke-width:1;stroke-linecap:round"></path><path d="M-158.3974939595582,-16.611470579874066h17.58086915910623v8.790434579553134h-17.58086915910623z" style="fill:rgb(255,255,255)"></path><path d="M-7.211297968247741,66.96401245283084L43.954922590258995,25.932501150889813L76.70174779764034,36.91085159590669zM-143.05241820060024,-61.30640074673198L-141.57605313179621,-60.81145038108679L-82.0541614731383,-110.22247531686044z" style="fill:rgb(238,238,238); fill-opacity: 0.27"></path><path d="M-87.63597791407169,56.29212571025474h17.580869159106317v8.790434579553112h-17.580869159106317z" style="fill:rgb(255,255,255)"></path><path d="M-143.05241820060024,-61.30640074673198L-143.05241820060024,34.75565056401775L-141.57605313179621,-60.81145038108679zM-60.56297748545945,-33.52740934588689L-0.13349225362941383,-81.98737139106233L-32.88031746101076,-92.9657218360792z" style="fill:rgb(238,238,238); fill-opacity: 0.27"></path><path d="M-76.31458981789959,-79.12570410664752h17.580869159106317v8.790434579553112h-17.580869159106317z" style="fill:rgb(255,255,255)"></path><path d="M-60.56297748545945,-33.52740934588689L-60.56297748545945,61.63892199631351" style="fill:none;stroke:rgb(0,0,0);stroke-width:1;stroke-linecap:round"></path><path d="M76.70174779764034,-43.66738733031453L76.70174779764034,36.91085159590669L43.954922590258995,-54.6457377753314z" style="fill:rgb(238,238,238); fill-opacity: 0.27"></path><path d="M162.66050953419602,65.59847075732092L125.12476793721362,53.01463941319462M125.12476793721362,-26.628064033470917L125.12476793721362,53.01463941319462M125.12476793721362,53.01463941319462L74.55260124889735,93.56976360225887M76.70174779764034,-43.66738733031453L43.954922590258995,-54.6457377753314M43.954922590258995,-54.6457377753314L-7.211297968247739,-13.6142264733904" style="fill:none;stroke:rgb(0,0,0);stroke-width:1;stroke-linecap:round"></path><path d="M-60.56297748545945,-33.52740934588689L-60.56297748545945,61.63892199631351L-0.13349225362941383,-81.98737139106233z" style="fill:rgb(238,238,238); fill-opacity: 0.27"></path><path d="M-109.39306191370349,-0.5061639961915967h17.58086915910623v8.79043457955314h-17.58086915910623z" style="fill:rgb(255,255,255)"></path><path d="M43.954922590258995,-54.6457377753314L43.954922590258995,25.932501150889813L-7.211297968247741,-13.614226473390396z" style="fill:rgb(238,238,238); fill-opacity: 0.27"></path><path d="M-143.05241820060024,-61.30640074673198L-141.57605313179624,-60.811450381086814" style="fill:none;stroke:rgb(0,0,0);stroke-width:1;stroke-linecap:round"></path><path d="M-93.30980269284079,50.66057155129665L-60.56297748545945,61.63892199631351L-60.56297748545945,-33.52740934588689zM25.535527239133604,77.9423628978477L76.70174779764034,36.91085159590669L76.70174779764034,-43.66738733031453zM25.535527239133604,77.9423628978477L-7.211297968247741,66.96401245283084L76.70174779764034,36.91085159590669zM43.954922590258995,25.932501150889813L-7.211297968247741,66.96401245283084L-7.211297968247741,-13.614226473390396zM-93.30980269284079,-44.50575979090377L-60.56297748545945,-33.52740934588689L-32.88031746101076,-92.9657218360792z" style="fill:rgb(238,238,238); fill-opacity: 0.27"></path><path d="M162.66050953419602,-14.04423268934462L162.66050953419602,65.59847075732092M162.66050953419602,65.59847075732092L112.08834284587975,106.15359494638517M76.70174779764034,-43.66738733031453L25.5355272391336,-2.6358760283735214M-7.211297968247739,-13.6142264733904L-7.211297968247739,66.96401245283084M-7.211297968247739,66.96401245283084L25.5355272391336,77.9423628978477" style="fill:none;stroke:rgb(0,0,0);stroke-width:1;stroke-linecap:round"></path><path d="M162.66050953419602,65.59847075732092L125.12476793721359,53.01463941319464L125.12476793721359,-26.62806403347091zM-93.30980269284079,-44.50575979090377L-93.30980269284079,50.66057155129665L-60.56297748545945,-33.52740934588689z" style="fill:rgb(238,238,238); fill-opacity: 0.27"></path><path d="M52.84085062859399,-6.721310020438938L20.09402542121265,-17.699660465455814M20.09402542121265,-20.706256264750227L20.09402542121265,-17.699660465455814M20.09402542121265,-17.699660465455814L18.18487295217156,-16.168661883666598M52.84085062859399,-9.727905819733353L20.09402542121265,-20.706256264750227M20.09402542121265,-20.706256264750227L18.18487295217156,-19.175257682961014" style="fill:none;stroke:rgb(0,0,0);stroke-width:1;stroke-linecap:round"></path><path d="M20.094025421212645,-20.706256264750238L20.094025421212645,-17.699660465455818L18.18487295217156,-19.175257682961018zM20.094025421212645,-17.699660465455818L18.18487295217156,-16.1686618836666L18.18487295217156,-19.175257682961018z" style="fill:rgb(153,221,255); fill-opacity: 0.07"></path><path d="M18.18487295217156,-19.175257682961014L18.18487295217156,-16.168661883666598M18.18487295217156,-16.168661883666598L50.9316981595529,-5.190311438649724M18.18487295217156,-19.175257682961014L50.9316981595529,-8.196907237944139" style="fill:none;stroke:rgb(0,0,0);stroke-width:1;stroke-linecap:round"></path><path d="M74.55260124889733,93.5697636022589L125.12476793721359,53.01463941319464L162.66050953419602,65.59847075732092z" style="fill:rgb(238,238,238); fill-opacity: 0.27"></path><path d="M52.84085062859399,-6.721310020438945L20.094025421212645,-17.699660465455818L20.094025421212645,-20.706256264750238zM18.18487295217156,-16.1686618836666L20.094025421212645,-17.699660465455818L52.84085062859399,-6.721310020438945z" style="fill:rgb(153,221,255); fill-opacity: 0.07"></path><path d="M-1.5374727470281568,72.59556556019103h17.58086915910627v8.790434579553112h-17.58086915910627z" style="fill:rgb(255,255,255)"></path><path d="M18.18487295217156,-19.175257682961018L50.9316981595529,-8.196907237944146L20.094025421212645,-20.706256264750238zM18.18487295217156,-19.175257682961018L18.18487295217156,-16.1686618836666L50.9316981595529,-8.196907237944146z" style="fill:rgb(153,221,255); fill-opacity: 0.07"></path><path d="M-93.30980269284079,-44.50575979090376L-60.56297748545945,-33.52740934588689" style="fill:none;stroke:rgb(0,0,0);stroke-width:1;stroke-linecap:round"></path><path d="M52.84085062859399,-9.727905819733362L52.84085062859399,-6.721310020438945L20.094025421212645,-20.706256264750238z" style="fill:rgb(153,221,255); fill-opacity: 0.07"></path><path d="M5.152282570031849,-44.51994472073149h17.58086915910627v8.79043457955314h-17.58086915910627z" style="fill:rgb(255,255,255)"></path><path d="M50.9316981595529,-5.190311438649731L18.18487295217156,-16.1686618836666L52.84085062859399,-6.721310020438945z" style="fill:rgb(153,221,255); fill-opacity: 0.07"></path><path d="M25.535527239133604,-2.6358760283735228L76.70174779764034,-43.66738733031453L43.954922590258995,-54.6457377753314z" style="fill:rgb(238,238,238); fill-opacity: 0.27"></path><path d="M50.9316981595529,-8.196907237944146L52.84085062859399,-9.727905819733362L20.094025421212645,-20.706256264750238zM18.18487295217156,-16.1686618836666L50.9316981595529,-5.190311438649731L50.9316981595529,-8.196907237944146z" style="fill:rgb(153,221,255); fill-opacity: 0.07"></path><path d="M25.5355272391336,-2.6358760283735214L25.5355272391336,77.9423628978477M52.84085062859399,-9.727905819733353L52.84085062859399,-6.721310020438938M52.84085062859399,-6.721310020438938L50.9316981595529,-5.190311438649724M52.840852420877795,-9.727905666954598L52.840852420877795,-6.721309867660184M52.840852420877795,-6.721309867660184L50.931699909163825,-5.190311251650486M52.840852420877795,-6.721309867660184L100.59740528044969,9.159826481382504" style="fill:none;stroke:rgb(0,0,0);stroke-width:1;stroke-linecap:round"></path><path d="M52.840850583602545,-9.72790583481671L52.840850583602545,-6.721310035522293L50.931698114561456,-5.190311453733079z" style="fill:rgb(255,187,187); fill-opacity: 0.07"></path><path d="M50.9316981595529,-5.190311438649731L52.84085062859399,-6.721310020438945L52.84085062859399,-9.727905819733362z" style="fill:rgb(153,221,255); fill-opacity: 0.07"></path><path d="M52.84085062859399,-9.727905819733353L50.9316981595529,-8.196907237944139M52.840852420877795,-9.727905666954598L50.931699909163825,-8.196907050944898M52.840852420877795,-9.727905666954598L100.59740528044969,9.159826481382504M50.9316981595529,-8.196907237944139L50.9316981595529,-5.190311438649724M50.931699909163825,-5.190311251650486L50.931699909163825,-8.196907050944898M50.931699909163825,-5.190311251650486L100.59740528044969,9.159826481382504" style="fill:none;stroke:rgb(0,0,0);stroke-width:1;stroke-linecap:round"></path><path d="M52.840850583602545,-9.72790583481671L50.931698114561456,-5.190311453733079L50.931698114561456,-8.196907253027494z" style="fill:rgb(255,187,187); fill-opacity: 0.07"></path><path d="M50.9316981595529,-8.196907237944146L50.9316981595529,-5.190311438649731L52.84085062859399,-9.727905819733362z" style="fill:rgb(153,221,255); fill-opacity: 0.07"></path><path d="M162.66050953419602,-14.044232689344621L162.66050953419602,65.59847075732092L125.12476793721359,-26.62806403347091z" style="fill:rgb(238,238,238); fill-opacity: 0.27"></path><path d="M50.931699909163825,-8.196907050944898L100.59740528044969,9.159826481382504" style="fill:none;stroke:rgb(0,0,0);stroke-width:1;stroke-linecap:round"></path><path d="M-23.294556746660014,23.091322758519752h17.58086915910627v8.79043457955314h-17.58086915910627z" style="fill:rgb(255,255,255)"></path><path d="M162.66050953419602,-14.04423268934462L125.12476793721362,-26.628064033470917M125.12476793721362,-26.628064033470917L74.55260124889735,13.927060155593345" style="fill:none;stroke:rgb(0,0,0);stroke-width:1;stroke-linecap:round"></path><path d="M25.535527239133604,-2.6358760283735228L25.535527239133604,77.9423628978477L76.70174779764034,-43.66738733031453zM-7.211297968247741,66.96401245283084L25.535527239133604,77.9423628978477L25.535527239133604,-2.6358760283735228z" style="fill:rgb(238,238,238); fill-opacity: 0.27"></path><path d="M52.840850583602545,-6.721310035522293L52.840850583602545,-9.72790583481671L100.59740910768058,9.159827846615228zM50.931698114561456,-5.190311453733079L52.840850583602545,-6.721310035522293L100.59740910768058,9.159827846615228zM52.840850583602545,-9.72790583481671L50.931698114561456,-8.196907253027494L100.59740910768058,9.159827846615228zM50.931698114561456,-8.196907253027494L50.931698114561456,-5.190311453733079L100.59740910768058,9.159827846615228z" style="fill:rgb(255,187,187); fill-opacity: 0.07"></path><path d="M-7.211297968247741,-13.614226473390396L25.535527239133604,-2.6358760283735228L43.954922590258995,-54.6457377753314zM125.12476793721359,-26.62806403347091L125.12476793721359,53.01463941319464L74.55260124889733,13.927060155593349z" style="fill:rgb(238,238,238); fill-opacity: 0.27"></path><path d="M244.28466394259405,90.93584182296635L206.74892234561167,78.35201047884007M206.74892234561167,13.297405182780079L206.74892234561167,78.35201047884007M206.74892234561167,78.35201047884007L165.44002397203803,111.47868100452185" style="fill:none;stroke:rgb(0,0,0);stroke-width:1;stroke-linecap:round"></path><path d="M112.08834284587974,106.15359494638517L74.55260124889733,93.5697636022589L162.66050953419602,65.59847075732092zM112.08834284587974,106.15359494638517L162.66050953419602,65.59847075732092L162.66050953419602,-14.044232689344621zM-7.211297968247741,-13.614226473390396L-7.211297968247741,66.96401245283084L25.535527239133604,-2.6358760283735228zM125.12476793721359,53.01463941319464L74.55260124889733,93.5697636022589L74.55260124889733,13.927060155593349z" style="fill:rgb(238,238,238); fill-opacity: 0.27"></path><path d="M74.55260124889735,13.927060155593345L74.55260124889735,93.56976360225887M74.55260124889735,93.56976360225887L112.08834284587975,106.15359494638517M162.66050953419602,-14.04423268934462L112.08834284587975,26.51089149971963M-7.211297968247739,-13.6142264733904L25.5355272391336,-2.6358760283735214M135.24671816394033,21.2445432558305L97.71097656695794,8.660711911704212M97.71097656695794,4.150818212762592L97.71097656695794,8.660711911704212M97.71097656695794,8.660711911704212L94.8472478633963,10.95720978438803" style="fill:none;stroke:rgb(0,0,0);stroke-width:1;stroke-linecap:round"></path><path d="M82.62088590275093,100.00405421714261h17.58086915910623v8.790434579553168h-17.58086915910623z" style="fill:rgb(255,255,255)"></path><path d="M244.28466394259402,90.93584182296637L206.74892234561162,78.35201047884007L206.74892234561162,13.297405182780087z" style="fill:rgb(238,238,238); fill-opacity: 0.27"></path><path d="M244.28466394259405,25.88123652690637L244.28466394259405,90.93584182296635M244.28466394259405,90.93584182296635L202.9757655690204,124.06251234864814M135.24671816394033,16.734649556888876L97.71097656695794,4.150818212762592M97.71097656695794,4.150818212762592L94.8472478633963,6.447316085446411" style="fill:none;stroke:rgb(0,0,0);stroke-width:1;stroke-linecap:round"></path><path d="M97.71097656695792,4.150818212762592L97.71097656695792,8.66071191170421L94.84724786339629,6.447316085446411zM97.71097656695792,8.66071191170421L94.84724786339629,10.957209784388029L94.84724786339629,6.447316085446411z" style="fill:rgb(153,221,255); fill-opacity: 0.07"></path><path d="M94.8472478633963,6.447316085446411L94.8472478633963,10.95720978438803M94.8472478633963,10.95720978438803L132.3829894603787,23.54104112851432" style="fill:none;stroke:rgb(0,0,0);stroke-width:1;stroke-linecap:round"></path><path d="M86.61915495796327,-16.740462550432042h17.58086915910623v8.79043457955314h-17.58086915910623z" style="fill:rgb(255,255,255)"></path><path d="M94.8472478633963,6.447316085446411L132.3829894603787,19.031147429572695" style="fill:none;stroke:rgb(0,0,0);stroke-width:1;stroke-linecap:round"></path><path d="M165.44002397203803,111.47868100452185L206.74892234561162,78.35201047884007L244.28466394259402,90.93584182296637z" style="fill:rgb(238,238,238); fill-opacity: 0.27"></path><path d="M135.24671816394033,21.244543255830497L97.71097656695792,8.66071191170421L97.71097656695792,4.150818212762592z" style="fill:rgb(153,221,255); fill-opacity: 0.07"></path><path d="M112.08834284587974,26.51089149971963L162.66050953419602,-14.044232689344621L125.12476793721359,-26.62806403347091z" style="fill:rgb(238,238,238); fill-opacity: 0.27"></path><path d="M94.84724786339629,10.957209784388029L97.71097656695792,8.66071191170421L135.24671816394033,21.244543255830497z" style="fill:rgb(153,221,255); fill-opacity: 0.07"></path><path d="M112.08834284587975,26.51089149971963L112.08834284587975,106.15359494638517" style="fill:none;stroke:rgb(0,0,0);stroke-width:1;stroke-linecap:round"></path><path d="M94.84724786339629,6.447316085446411L132.3829894603787,19.031147429572698L97.71097656695792,4.150818212762592zM94.84724786339629,6.447316085446411L94.84724786339629,10.957209784388029L132.3829894603787,19.031147429572698zM135.24671816394033,16.73464955688888L135.24671816394033,21.244543255830497L97.71097656695792,4.150818212762592z" style="fill:rgb(153,221,255); fill-opacity: 0.07"></path><path d="M58.46934381420004,50.16484069057186h17.580869159106317v8.790434579553112h-17.580869159106317z" style="fill:rgb(255,255,255)"></path><path d="M132.3829894603787,23.541041128514316L94.84724786339629,10.957209784388029L135.24671816394033,21.244543255830497zM132.3829894603787,19.031147429572698L135.24671816394033,16.73464955688888L97.71097656695792,4.150818212762592zM94.84724786339629,10.957209784388029L132.3829894603787,23.541041128514316L132.3829894603787,19.031147429572698z" style="fill:rgb(153,221,255); fill-opacity: 0.07"></path><path d="M74.55260124889733,93.5697636022589L112.08834284587974,106.15359494638517L112.08834284587974,26.51089149971963z" style="fill:rgb(238,238,238); fill-opacity: 0.27"></path><path d="M135.24671455008183,16.73464802179144L135.24671455008183,21.244541720733064M135.24671455008183,21.244541720733064L132.3829856189315,23.541039775926137M135.24671455008183,21.244541720733064L183.1869015693528,41.218374005899M135.24671816394033,16.734649556888876L135.24671816394033,21.2445432558305M135.24671816394033,21.2445432558305L132.3829894603787,23.54104112851432" style="fill:none;stroke:rgb(0,0,0);stroke-width:1;stroke-linecap:round"></path><path d="M112.08834284587974,26.51089149971963L112.08834284587974,106.15359494638517L162.66050953419602,-14.044232689344621z" style="fill:rgb(238,238,238); fill-opacity: 0.27"></path><path d="M244.28466394259405,25.88123652690637L206.74892234561167,13.297405182780079M206.74892234561167,13.297405182780079L165.44002397203803,46.42407570846186" style="fill:none;stroke:rgb(0,0,0);stroke-width:1;stroke-linecap:round"></path><path d="M244.28466394259402,25.88123652690637L244.28466394259402,90.93584182296637L206.74892234561162,13.297405182780087z" style="fill:rgb(238,238,238); fill-opacity: 0.27"></path><path d="M135.24671801306732,16.734649506308813L135.24671801306732,21.24454320525043L132.3829893095057,23.54104107793425z" style="fill:rgb(255,187,187); fill-opacity: 0.07"></path><path d="M132.3829894603787,23.541041128514316L135.24671816394033,21.244543255830497L135.24671816394033,16.73464955688888z" style="fill:rgb(153,221,255); fill-opacity: 0.07"></path><path d="M74.55260124889733,13.927060155593349L112.08834284587974,26.51089149971963L125.12476793721359,-26.62806403347091z" style="fill:rgb(238,238,238); fill-opacity: 0.27"></path><path d="M135.24671455008183,16.73464802179144L132.3829856189315,19.031146076984516M135.24671455008183,16.73464802179144L183.1869015693528,41.218374005899M135.24671816394033,16.734649556888876L132.3829894603787,19.031147429572695M132.3829856189315,23.541039775926137L132.3829856189315,19.031146076984516M132.3829856189315,23.541039775926137L183.1869015693528,41.218374005899M132.3829894603787,19.031147429572695L132.3829894603787,23.54104112851432" style="fill:none;stroke:rgb(0,0,0);stroke-width:1;stroke-linecap:round"></path><path d="M135.24671801306732,16.734649506308813L132.3829893095057,23.54104107793425L132.3829893095057,19.03114737899263z" style="fill:rgb(255,187,187); fill-opacity: 0.07"></path><path d="M132.3829894603787,19.031147429572698L132.3829894603787,23.541041128514316L135.24671816394033,16.73464955688888z" style="fill:rgb(153,221,255); fill-opacity: 0.07"></path><path d="M206.74892234561162,13.297405182780087L206.74892234561162,78.35201047884007L165.44002397203803,46.42407570846186z" style="fill:rgb(238,238,238); fill-opacity: 0.27"></path><path d="M132.3829856189315,19.031146076984516L183.1869015693528,41.218374005899" style="fill:none;stroke:rgb(0,0,0);stroke-width:1;stroke-linecap:round"></path><path d="M74.55260124889733,13.927060155593349L74.55260124889733,93.5697636022589L112.08834284587974,26.51089149971963z" style="fill:rgb(238,238,238); fill-opacity: 0.27"></path><path d="M135.24671801306732,21.24454320525043L135.24671801306732,16.734649506308813L183.1869051378483,41.21837475535241zM132.3829893095057,23.54104107793425L135.24671801306732,21.24454320525043L183.1869051378483,41.21837475535241z" style="fill:rgb(255,187,187); fill-opacity: 0.07"></path><path d="M206.74892234561162,78.35201047884007L165.44002397203803,111.47868100452185L165.44002397203803,46.42407570846186zM202.9757655690204,124.06251234864813L165.44002397203803,111.47868100452185L244.28466394259402,90.93584182296637z" style="fill:rgb(238,238,238); fill-opacity: 0.27"></path><path d="M135.24671801306732,16.734649506308813L132.3829893095057,19.03114737899263L183.1869051378483,41.21837475535241zM132.3829893095057,19.03114737899263L132.3829893095057,23.54104107793425L183.1869051378483,41.21837475535241z" style="fill:rgb(255,187,187); fill-opacity: 0.07"></path><path d="M202.9757655690204,124.06251234864813L244.28466394259402,90.93584182296637L244.28466394259402,25.88123652690637z" style="fill:rgb(238,238,238); fill-opacity: 0.27"></path><path d="M165.44002397203803,46.42407570846186L165.44002397203803,111.47868100452185M165.44002397203803,111.47868100452185L202.9757655690204,124.06251234864814M74.55260124889735,13.927060155593345L112.08834284587975,26.51089149971963M244.28466394259405,25.88123652690637L202.9757655690204,59.007907052588145" style="fill:none;stroke:rgb(0,0,0);stroke-width:1;stroke-linecap:round"></path><path d="M173.50830724763233,117.9129748951949h17.580869159106403v8.790434579553168h-17.580869159106403zM172.87494352373255,19.470777663599975h17.580869159106403v8.79043457955314h-17.580869159106403z" style="fill:rgb(255,255,255)"></path><path d="M202.9757655690204,59.007907052588145L244.28466394259402,25.88123652690637L206.74892234561162,13.297405182780087z" style="fill:rgb(238,238,238); fill-opacity: 0.27"></path><path d="M232.26994766816918,77.86833890609083L261.7972490442497,87.76734621899435M202.9757655690204,59.007907052588145L202.9757655690204,124.06251234864814" style="fill:none;stroke:rgb(0,0,0);stroke-width:1;stroke-linecap:round"></path><path d="M149.35676515908148,75.36780827339919h17.580869159106403v8.790434579553112h-17.580869159106403z" style="fill:rgb(255,255,255)"></path><path d="M298.47199867028274,122.48732424020089L284.1452626420534,117.684295920506M284.1452626420534,62.30075380649762L284.1452626420534,117.684295920506M284.1452626420534,117.684295920506L274.8819970583753,125.11274739377744" style="fill:none;stroke:rgb(0,0,0);stroke-width:1;stroke-linecap:round"></path><path d="M165.44002397203803,111.47868100452185L202.9757655690204,124.06251234864813L202.9757655690204,59.007907052588145zM274.8819970583753,125.11274739377743L284.1452626420534,117.684295920506L298.47199867028274,122.48732424020089zM165.44002397203803,46.42407570846186L202.9757655690204,59.007907052588145L206.74892234561162,13.297405182780087zM202.9757655690204,59.007907052588145L202.9757655690204,124.06251234864813L244.28466394259402,25.88123652690637z" style="fill:rgb(238,238,238); fill-opacity: 0.27"></path><path d="M298.47199867028274,67.10378212619248L298.47199867028274,122.48732424020089M298.47199867028274,122.48732424020089L289.20873308660464,129.9157757134723" style="fill:none;stroke:rgb(0,0,0);stroke-width:1;stroke-linecap:round"></path><path d="M270.5937393748021,124.72635861735361h17.580869159106403v8.790434579553168h-17.580869159106403z" style="fill:rgb(255,255,255)"></path><path d="M165.44002397203803,46.42407570846186L165.44002397203803,111.47868100452185L202.9757655690204,59.007907052588145z" style="fill:rgb(238,238,238); fill-opacity: 0.27"></path><path d="M274.8819970583753,69.72920527976905L274.8819970583753,125.11274739377744M274.8819970583753,125.11274739377744L289.20873308660464,129.9157757134723" style="fill:none;stroke:rgb(0,0,0);stroke-width:1;stroke-linecap:round"></path><path d="M289.20873308660464,129.9157757134723L274.8819970583753,125.11274739377743L298.47199867028274,122.48732424020089zM298.47199867028274,122.48732424020089L284.1452626420534,117.684295920506L284.1452626420534,62.3007538064976z" style="fill:rgb(238,238,238); fill-opacity: 0.27"></path><path d="M259.5276091172969,90.74879051378875L261.7972490442497,91.52559096811237L278.03726480109407,93.2118002410913zM263.1999636065318,83.6019893484134L260.39453448196764,85.85173528576918L278.03726480109407,93.2118002410913zM260.39453448196764,85.85173528576918L259.5276091172969,90.74879051378875L278.03726480109407,93.2118002410913z" style="fill:rgb(0,0,0)"></path><path d="M165.44002397203803,46.42407570846186L202.9757655690204,59.007907052588145" style="fill:none;stroke:rgb(0,0,0);stroke-width:1;stroke-linecap:round"></path><path d="M284.1452626420534,117.684295920506L274.8819970583753,125.11274739377743L274.8819970583753,69.72920527976905z" style="fill:rgb(238,238,238); fill-opacity: 0.27"></path><path d="M289.20873308660464,74.53223359946392L289.20873308660464,129.9157757134723" style="fill:none;stroke:rgb(0,0,0);stroke-width:1;stroke-linecap:round"></path><path d="M289.20873308660464,129.9157757134723L298.47199867028274,122.48732424020089L298.47199867028274,67.1037821261925zM284.1452626420534,62.3007538064976L284.1452626420534,117.684295920506L274.8819970583753,69.72920527976905zM298.47199867028274,67.1037821261925L298.47199867028274,122.48732424020089L284.1452626420534,62.3007538064976zM274.8819970583753,125.11274739377743L289.20873308660464,129.9157757134723L289.20873308660464,74.53223359946394z" style="fill:rgb(238,238,238); fill-opacity: 0.27"></path><path d="M295.316730927564,99.0047292788786L324.8440323036445,108.90373659178212M298.47199867028274,67.10378212619248L284.1452626420534,62.30075380649762M284.1452626420534,62.30075380649762L274.8819970583753,69.72920527976905" style="fill:none;stroke:rgb(0,0,0);stroke-width:1;stroke-linecap:round"></path><path d="M274.8819970583753,69.72920527976905L274.8819970583753,125.11274739377743L289.20873308660464,74.53223359946394zM289.20873308660464,74.53223359946394L289.20873308660464,129.9157757134723L298.47199867028274,67.1037821261925z" style="fill:rgb(238,238,238); fill-opacity: 0.27"></path><path d="M361.51878192967746,136.38399538807823L347.1920459014481,131.58096706838336M347.1920459014481,90.67686340419579L347.1920459014481,131.58096706838336M347.1920459014481,131.58096706838336L337.9287803177701,139.00941854165478M298.47199867028274,67.10378212619248L289.20873308660464,74.53223359946392" style="fill:none;stroke:rgb(0,0,0);stroke-width:1;stroke-linecap:round"></path><path d="M289.20873308660464,74.53223359946394L298.47199867028274,67.1037821261925L284.1452626420534,62.3007538064976zM274.8819970583753,69.72920527976905L289.20873308660464,74.53223359946394L284.1452626420534,62.3007538064976z" style="fill:rgb(238,238,238); fill-opacity: 0.27"></path><path d="M274.8819970583753,69.72920527976905L289.20873308660464,74.53223359946392" style="fill:none;stroke:rgb(0,0,0);stroke-width:1;stroke-linecap:round"></path><path d="M337.92878031776996,139.00941854165478L347.1920459014481,131.58096706838336L361.51878192967746,136.38399538807823z" style="fill:rgb(238,238,238); fill-opacity: 0.27"></path><path d="M361.51878192967746,95.47989172389067L361.51878192967746,136.38399538807823M361.51878192967746,136.38399538807823L352.2555163459994,143.81244686134968" style="fill:none;stroke:rgb(0,0,0);stroke-width:1;stroke-linecap:round"></path><path d="M333.64052263419677,138.62302983823926h17.580869159106403v8.790434579553168h-17.580869159106403z" style="fill:rgb(255,255,255)"></path><path d="M361.51878192967746,136.38399538807823L347.1920459014481,131.58096706838336L347.1920459014481,90.67686340419579z" style="fill:rgb(238,238,238); fill-opacity: 0.27"></path><path d="M322.57439237669166,111.88518088657653L324.84403230364444,112.66198134090014L341.0840480604888,114.34819061387907z" style="fill:rgb(0,0,0)"></path><path d="M337.9287803177701,98.10531487746722L337.9287803177701,139.00941854165478M337.9287803177701,139.00941854165478L352.2555163459994,143.81244686134968" style="fill:none;stroke:rgb(0,0,0);stroke-width:1;stroke-linecap:round"></path><path d="M326.2467468659266,104.73837972120117L323.44131774136235,106.98812565855695L341.0840480604888,114.34819061387907z" style="fill:rgb(0,0,0)"></path><path d="M352.25551634599935,143.81244686134968L337.92878031776996,139.00941854165478L361.51878192967746,136.38399538807823z" style="fill:rgb(238,238,238); fill-opacity: 0.27"></path><path d="M323.44131774136235,106.98812565855695L322.57439237669166,111.88518088657653L341.0840480604888,114.34819061387907z" style="fill:rgb(0,0,0)"></path><path d="M347.1920459014481,131.58096706838336L337.92878031776996,139.00941854165478L337.92878031776996,98.10531487746722z" style="fill:rgb(238,238,238); fill-opacity: 0.27"></path><path d="M352.2555163459994,102.90834319716211L352.2555163459994,143.81244686134968" style="fill:none;stroke:rgb(0,0,0);stroke-width:1;stroke-linecap:round"></path><path d="M352.25551634599935,143.81244686134968L361.51878192967746,136.38399538807823L361.51878192967746,95.47989172389067zM347.1920459014481,90.67686340419579L347.1920459014481,131.58096706838336L337.92878031776996,98.10531487746722zM361.51878192967746,95.47989172389067L361.51878192967746,136.38399538807823L347.1920459014481,90.67686340419579z" style="fill:rgb(238,238,238); fill-opacity: 0.27"></path><path d="M361.51878192967746,95.47989172389067L347.1920459014481,90.67686340419579M347.1920459014481,90.67686340419579L337.9287803177701,98.10531487746722" style="fill:none;stroke:rgb(0,0,0);stroke-width:1;stroke-linecap:round"></path><path d="M337.92878031776996,139.00941854165478L352.25551634599935,143.81244686134968L352.25551634599935,102.90834319716211z" style="fill:rgb(238,238,238); fill-opacity: 0.27"></path><path d="M358.3635141869587,120.14111965166637L387.89081556303927,130.04012696456988" style="fill:none;stroke:rgb(0,0,0);stroke-width:1;stroke-linecap:round"></path><path d="M337.92878031776996,98.10531487746722L337.92878031776996,139.00941854165478L352.25551634599935,102.90834319716211zM352.25551634599935,102.90834319716211L352.25551634599935,143.81244686134968L361.51878192967746,95.47989172389067z" style="fill:rgb(238,238,238); fill-opacity: 0.27"></path><path d="M361.51878192967746,95.47989172389067L352.2555163459994,102.90834319716211" style="fill:none;stroke:rgb(0,0,0);stroke-width:1;stroke-linecap:round"></path><path d="M352.25551634599935,102.90834319716211L361.51878192967746,95.47989172389067L347.1920459014481,90.67686340419579zM337.92878031776996,98.10531487746722L352.25551634599935,102.90834319716211L347.1920459014481,90.67686340419579z" style="fill:rgb(238,238,238); fill-opacity: 0.27"></path><path d="M337.9287803177701,98.10531487746722L352.2555163459994,102.90834319716211M424.56556518907223,146.74619264309266L410.2388291608429,141.9431643233978M410.2388291608429,122.5874468947569L410.2388291608429,141.9431643233978M410.2388291608429,141.9431643233978L400.97556357716485,149.37161579666923" style="fill:none;stroke:rgb(0,0,0);stroke-width:1;stroke-linecap:round"></path><path d="M385.6211756360864,133.0215712593643L387.8908155630392,133.7983717136879L404.13083131988355,135.48458098666683zM389.29353012532135,125.87477009398894L386.4881010007571,128.1245160313447L404.13083131988355,135.48458098666683z" style="fill:rgb(0,0,0)"></path><path d="M424.56556518907223,146.74619264309266L410.2388291608429,141.94316432339778L410.2388291608429,122.5874468947569zM400.97556357716473,149.37161579666923L410.2388291608429,141.94316432339778L424.56556518907223,146.74619264309266z" style="fill:rgb(238,238,238); fill-opacity: 0.27"></path><path d="M386.4881010007571,128.1245160313447L385.6211756360864,133.0215712593643L404.13083131988355,135.48458098666683z" style="fill:rgb(0,0,0)"></path><path d="M424.56556518907223,127.39047521445178L424.56556518907223,146.74619264309266M424.56556518907223,146.74619264309266L415.3022996053942,154.1746441163641" style="fill:none;stroke:rgb(0,0,0);stroke-width:1;stroke-linecap:round"></path><path d="M396.68730589359154,148.98522722397288h17.580869159106403v8.790434579553168h-17.580869159106403z" style="fill:rgb(255,255,255)"></path><path d="M424.56556518907223,127.39047521445178L410.2388291608429,122.5874468947569M410.2388291608429,122.5874468947569L400.97556357716485,130.01589836802833" style="fill:none;stroke:rgb(0,0,0);stroke-width:1;stroke-linecap:round"></path><path d="M410.2388291608429,122.5874468947569L410.2388291608429,141.94316432339778L400.97556357716473,130.01589836802833zM410.2388291608429,141.94316432339778L400.97556357716473,149.37161579666923L400.97556357716473,130.01589836802833z" style="fill:rgb(238,238,238); fill-opacity: 0.27"></path><path d="M400.97556357716485,130.01589836802833L400.97556357716485,149.37161579666923M400.97556357716485,149.37161579666923L415.3022996053942,154.1746441163641" style="fill:none;stroke:rgb(0,0,0);stroke-width:1;stroke-linecap:round"></path><path d="M424.56556518907223,127.39047521445178L424.56556518907223,146.74619264309266L410.2388291608429,122.5874468947569zM415.30229960539407,154.1746441163641L400.97556357716473,149.37161579666923L424.56556518907223,146.74619264309266zM415.30229960539407,154.1746441163641L424.56556518907223,146.74619264309266L424.56556518907223,127.39047521445178z" style="fill:rgb(238,238,238); fill-opacity: 0.27"></path><path d="M424.56556518907223,127.39047521445178L415.3022996053942,134.8189266877232M415.3022996053942,134.8189266877232L415.3022996053942,154.1746441163641" style="fill:none;stroke:rgb(0,0,0);stroke-width:1;stroke-linecap:round"></path><path d="M415.30229960539407,134.81892668772323L424.56556518907223,127.39047521445178L410.2388291608429,122.5874468947569zM400.97556357716473,149.37161579666923L415.30229960539407,154.1746441163641L415.30229960539407,134.81892668772323zM400.97556357716473,130.01589836802833L415.30229960539407,134.81892668772323L410.2388291608429,122.5874468947569zM400.97556357716473,130.01589836802833L400.97556357716473,149.37161579666923L415.30229960539407,134.81892668772323zM415.30229960539407,134.81892668772323L415.30229960539407,154.1746441163641L424.56556518907223,127.39047521445178z" style="fill:rgb(238,238,238); fill-opacity: 0.27"></path><path d="M400.97556357716485,130.01589836802833L415.3022996053942,134.8189266877232" style="fill:none;stroke:rgb(0,0,0);stroke-width:1;stroke-linecap:round"></path></svg>