<svg viewBox="0 0 330 200" xmlns="http://www.w3.org/2000/svg"><g><g><g><g><g><line x1="58.59375" y1="162.96543650951904" x2="53.59375" y2="162.96543650951904" style="visibility: inherit;" fill="rgb(0, 0, 0)" stroke="rgb(204, 204, 204)" stroke-width="1px"></line><line x1="58.59375" y1="145.15870471257358" x2="53.59375" y2="145.15870471257358" style="visibility: inherit;" fill="rgb(0, 0, 0)" stroke="rgb(204, 204, 204)" stroke-width="1px"></line><line x1="58.59375" y1="127.3519729156281" x2="53.59375" y2="127.3519729156281" style="visibility: inherit;" fill="rgb(0, 0, 0)" stroke="rgb(204, 204, 204)" stroke-width="1px"></line><line x1="58.59375" y1="109.54524111868263" x2="53.59375" y2="109.54524111868263" style="visibility: inherit;" fill="rgb(0, 0, 0)" stroke="rgb(204, 204, 204)" stroke-width="1px"></line><line x1="58.59375" y1="91.73850932173717" x2="53.59375" y2="91.73850932173717" style="visibility: inherit;" fill="rgb(0, 0, 0)" stroke="rgb(204, 204, 204)" stroke-width="1px"></line><line x1="58.59375" y1="73.93177752479167" x2="53.59375" y2="73.93177752479167" style="visibility: inherit;" fill="rgb(0, 0, 0)" stroke="rgb(204, 204, 204)" stroke-width="1px"></line><line x1="58.59375" y1="56.12504572784623" x2="53.59375" y2="56.12504572784623" style="visibility: inherit;" fill="rgb(0, 0, 0)" stroke="rgb(204, 204, 204)" stroke-width="1px"></line><line x1="58.59375" y1="38.31831393090074" x2="53.59375" y2="38.31831393090074" style="visibility: inherit;" fill="rgb(0, 0, 0)" stroke="rgb(204, 204, 204)" stroke-width="1px"></line><line x1="58.59375" y1="20.5115821339553" x2="53.59375" y2="20.5115821339553" style="visibility: inherit;" fill="rgb(0, 0, 0)" stroke="rgb(204, 204, 204)" stroke-width="1px"></line><line x1="58.59375" y1="2.704850337009816" x2="53.59375" y2="2.704850337009816" style="visibility: inherit;" fill="rgb(0, 0, 0)" stroke="rgb(204, 204, 204)" stroke-width="1px"></line></g><g transform="translate(48.59375, 0)"><text x="0" y="162.96543650951904" dx="0em" dy="0.3em" style="text-anchor: end; visibility: hidden; font-family: &quot;Helvetica Neue&quot;, sans-serif; font-size: 12px; font-weight: 200;" fill="rgb(50, 49, 63)" stroke="none" stroke-width="1px">0.300</text><text x="0" y="145.15870471257358" dx="0em" dy="0.3em" style="text-anchor: end; visibility: inherit; font-family: &quot;Helvetica Neue&quot;, sans-serif; font-size: 12px; font-weight: 200;" fill="rgb(50, 49, 63)" stroke="none" stroke-width="1px">0.350</text><text x="0" y="127.3519729156281" dx="0em" dy="0.3em" style="text-anchor: end; visibility: hidden; font-family: &quot;Helvetica Neue&quot;, sans-serif; font-size: 12px; font-weight: 200;" fill="rgb(50, 49, 63)" stroke="none" stroke-width="1px">0.400</text><text x="0" y="109.54524111868263" dx="0em" dy="0.3em" style="text-anchor: end; visibility: inherit; font-family: &quot;Helvetica Neue&quot;, sans-serif; font-size: 12px; font-weight: 200;" fill="rgb(50, 49, 63)" stroke="none" stroke-width="1px">0.450</text><text x="0" y="91.73850932173717" dx="0em" dy="0.3em" style="text-anchor: end; visibility: hidden; font-family: &quot;Helvetica Neue&quot;, sans-serif; font-size: 12px; font-weight: 200;" fill="rgb(50, 49, 63)" stroke="none" stroke-width="1px">0.500</text><text x="0" y="73.93177752479167" dx="0em" dy="0.3em" style="text-anchor: end; visibility: inherit; font-family: &quot;Helvetica Neue&quot;, sans-serif; font-size: 12px; font-weight: 200;" fill="rgb(50, 49, 63)" stroke="none" stroke-width="1px">0.550</text><text x="0" y="56.12504572784623" dx="0em" dy="0.3em" style="text-anchor: end; visibility: hidden; font-family: &quot;Helvetica Neue&quot;, sans-serif; font-size: 12px; font-weight: 200;" fill="rgb(50, 49, 63)" stroke="none" stroke-width="1px">0.600</text><text x="0" y="38.31831393090074" dx="0em" dy="0.3em" style="text-anchor: end; visibility: inherit; font-family: &quot;Helvetica Neue&quot;, sans-serif; font-size: 12px; font-weight: 200;" fill="rgb(50, 49, 63)" stroke="none" stroke-width="1px">0.650</text><text x="0" y="20.5115821339553" dx="0em" dy="0.3em" style="text-anchor: end; visibility: hidden; font-family: &quot;Helvetica Neue&quot;, sans-serif; font-size: 12px; font-weight: 200;" fill="rgb(50, 49, 63)" stroke="none" stroke-width="1px">0.700</text><text x="0" y="2.704850337009816" dx="0em" dy="0.3em" style="text-anchor: end; visibility: hidden; font-family: &quot;Helvetica Neue&quot;, sans-serif; font-size: 12px; font-weight: 200;" fill="rgb(50, 49, 63)" stroke="none" stroke-width="1px">0.750</text></g><line x1="58.59375" y1="0" x2="58.59375" y2="165.65625" fill="rgb(0, 0, 0)" stroke="rgb(204, 204, 204)" stroke-width="1px"></line></g></g><g transform="translate(58, 0)" clip-path="url(#clip_0)"><clipPath id="clip_0"><rect width="271" height="165"></rect></clipPath><g><g><g><line x1="5.466148760905018" y1="0" x2="5.466148760905018" y2="165.65625" fill="rgb(0, 0, 0)" stroke="rgb(60, 60, 60)" stroke-width="1px" opacity="0.25"></line><line x1="50.83214395473868" y1="0" x2="50.83214395473868" y2="165.65625" fill="rgb(0, 0, 0)" stroke="rgb(60, 60, 60)" stroke-width="1px" opacity="0.25"></line><line x1="96.19813914857234" y1="0" x2="96.19813914857234" y2="165.65625" fill="rgb(0, 0, 0)" stroke="rgb(60, 60, 60)" stroke-width="1px" opacity="0.25"></line><line x1="141.564134342406" y1="0" x2="141.564134342406" y2="165.65625" fill="rgb(0, 0, 0)" stroke="rgb(60, 60, 60)" stroke-width="1px" opacity="0.25"></line><line x1="186.9301295362397" y1="0" x2="186.9301295362397" y2="165.65625" fill="rgb(0, 0, 0)" stroke="rgb(60, 60, 60)" stroke-width="1px" opacity="0.25"></line><line x1="232.29612473007336" y1="0" x2="232.29612473007336" y2="165.65625" fill="rgb(0, 0, 0)" stroke="rgb(60, 60, 60)" stroke-width="1px" opacity="0.25"></line></g><g><line x1="0" y1="162.96543650951904" x2="271.40625" y2="162.96543650951904" fill="rgb(0, 0, 0)" stroke="rgb(60, 60, 60)" stroke-width="1px" opacity="0.25"></line><line x1="0" y1="145.15870471257358" x2="271.40625" y2="145.15870471257358" fill="rgb(0, 0, 0)" stroke="rgb(60, 60, 60)" stroke-width="1px" opacity="0.25"></line><line x1="0" y1="127.3519729156281" x2="271.40625" y2="127.3519729156281" fill="rgb(0, 0, 0)" stroke="rgb(60, 60, 60)" stroke-width="1px" opacity="0.25"></line><line x1="0" y1="109.54524111868263" x2="271.40625" y2="109.54524111868263" fill="rgb(0, 0, 0)" stroke="rgb(60, 60, 60)" stroke-width="1px" opacity="0.25"></line><line x1="0" y1="91.73850932173717" x2="271.40625" y2="91.73850932173717" fill="rgb(0, 0, 0)" stroke="rgb(60, 60, 60)" stroke-width="1px" opacity="0.25"></line><line x1="0" y1="73.93177752479167" x2="271.40625" y2="73.93177752479167" fill="rgb(0, 0, 0)" stroke="rgb(60, 60, 60)" stroke-width="1px" opacity="0.25"></line><line x1="0" y1="56.12504572784623" x2="271.40625" y2="56.12504572784623" fill="rgb(0, 0, 0)" stroke="rgb(60, 60, 60)" stroke-width="1px" opacity="0.25"></line><line x1="0" y1="38.31831393090074" x2="271.40625" y2="38.31831393090074" fill="rgb(0, 0, 0)" stroke="rgb(60, 60, 60)" stroke-width="1px" opacity="0.25"></line><line x1="0" y1="20.5115821339553" x2="271.40625" y2="20.5115821339553" fill="rgb(0, 0, 0)" stroke="rgb(60, 60, 60)" stroke-width="1px" opacity="0.25"></line><line x1="0" y1="2.704850337009816" x2="271.40625" y2="2.704850337009816" fill="rgb(0, 0, 0)" stroke="rgb(60, 60, 60)" stroke-width="1px" opacity="0.25"></line></g></g></g><g><g><line x1="0" y1="269.80582729119186" x2="271.40625" y2="269.80582729119186" fill="rgb(0, 0, 0)" stroke="rgb(153, 153, 153)" stroke-width="1.5px"></line></g></g><g><g><line x1="-77816195.35784374" y1="0" x2="-77816195.35784374" y2="165.65625" fill="rgb(0, 0, 0)" stroke="rgb(153, 153, 153)" stroke-width="1.5px"></line></g></g><g><g><g><g><g><path stroke="rgb(0, 119, 187)" stroke-width="2px" d="M-1.4632549716464416,146.004190237941L0.1569663433706645,144.5196388404058L0.9574241252351963,138.92337974952466L1.7584867870356458,132.3825413738345L2.5655478415339465,125.89371652024417L4.212383873731435,113.69977735522119L6.713259968783506,95.1941474172776L7.562713025457378,84.01887336027087L8.400169296735548,76.29112334396754L9.237827194659022,69.9771746278357L10.072863946193522,65.91997261724782L12.579536807298137,60.08930069747038L13.41623697865641,56.40564339345586L16.761676684233684,51.084907914352L17.598124822285325,47.95957786725123L19.271474758340542,45.09768665146734L20.108426963005446,42.69066832508962L20.94537916767035,41.36844560707209L24.311737637698112,39.0651601449113L26.825215398081806,37.40569723105645L28.50073282057406,36.01538519072395L31.012345534488674,34.413399834432454L31.851868478881226,33.34860515313372L32.68887109020746,32.776640165421156L33.52617614150165,32.11143234174568L34.3630275328439,31.726068029277315L36.0416701683384,31.24649920455684L36.87882399964861,31.00012372223253L37.71628027092678,30.682377360277854L40.23011087793976,30.32895617214723L41.07003707562292,29.90492655665878L42.74812523784283,29.419217833995788L43.58517825583039,29.265390678556344L44.42298737373785,29.073064387809637L46.940144820398366,28.577902702724685L48.61838420260226,28.010458614596956L49.45745348704287,27.86523394889332L50.29818619130726,27.898142417302694L51.13891889557165,27.683771225453427L51.98005485312665,27.428196339402717L57.018553499337806,27.05639071675597L57.858378883698315,26.576999553342972L60.37835910339312,26.043826233186138L64.58318197792559,25.942122458602853L67.94389490188479,25.637360479924013L69.62314241731521,25.244251539125543L71.3059688056998,25.050997910527997L72.98546835443685,24.845549453166342L73.82569699208797,24.84175495578262L74.66587522307778,24.516693619703744L75.50519654082503,24.515744995357835L78.8609192053129,24.093187478140067L79.70084540299607,24.402921655873058L80.54082200734055,24.300577811550653L82.22314432911189,24.308757359984213L83.06291930681108,24.072129796381176L83.90289591115557,24.174749528867892L87.26335680180813,23.873219572426933L88.94371326378773,23.57406530408042L90.6219022393303,23.50033323587101L92.30180504135795,23.31178768347783L93.14203367900907,23.21091322367792L94.82138200776215,23.170367905543742L98.18214533838267,23.061068040584587L99.8627538336689,22.953657707474378L100.70257921802941,22.82740831675713L103.2221057777723,22.53015735354282L105.74218681078975,22.51672840849423L109.10083306163456,22.39789145110538L110.78048383035558,22.54622434677097L111.62252710781446,22.178513152388092L114.14230570086396,21.955089908133516L117.50634546447071,21.60596178998813L118.34758223534837,21.39512031201474L119.18740761970889,21.362243797190217L120.02889642389317,21.457928024642513L122.55023762344379,21.644267516728917L123.3921296809187,21.473624645979868L124.23376970508696,21.262998585812568L125.91528552027708,21.17087830929634L126.7549596846536,21.091841593939222L127.59483547567545,21.15455380935944L129.27630088420423,20.89242156497994L130.11698318180729,20.91634641651956L132.63731624813138,20.618337508469864L133.478855458977,20.739726127562108L135.16193388066822,20.384928302027532L136.84304644256773,20.36911143295373L137.68307345357354,20.133678414164507L138.5346435900231,20.319331554986064L141.8966670871768,19.990074920352015L144.41901641995398,20.00681247026006L145.25894261763716,19.655750352565633L146.09932247527223,19.41756698132204L146.9415169727151,19.51280712638507L151.98440099846167,19.375771103529132L152.83773536805765,19.247891007867167L153.67902254559664,19.29607344490077L154.52061216310358,19.208042178553L155.36048795412543,18.98267129179328L157.04371759580064,18.61277491522455L159.57060352809717,18.80045037315608L162.09285204755167,18.785466459058995L165.4516999250418,18.748288153073815L166.29233181598354,18.71980708831549L167.13306452024793,18.415389659287598L167.9730411245924,18.15435930171077L168.8137738288568,18.089797277120425L170.49670103056405,17.846474662302853L171.33723210818314,18.011700023380314L174.7190150165768,17.909645994892315L177.2441871223882,17.730013514053866L178.08623039984712,17.84464780619294L180.60918461256017,17.756876503938116L181.44986691016325,17.538216055549753L182.29014595447572,17.3827165006891L183.1370282714219,17.324761160429574L184.0019057664617,17.2067456707685L185.7165387581433,16.972963128677037L186.57405688062943,16.83628803409971L187.43066768321165,17.312048088486193L188.27180364076665,17.06519259823827L189.11278837833765,16.80985854471814L192.4782395284616,16.72175916502124L193.32053483922707,16.92172765479424L194.16071307021687,16.29625904441974L196.68255833638077,16.082454470529598L198.36447740486147,16.041494724143377L199.20495807581923,15.892409384355801L200.04553956009966,15.685971019705136L201.7515026060331,16.03122054955952L202.60907113518053,15.597095400415157L203.46593397106938,15.574580832996304L205.1801637094604,15.57322607469186L206.0228118668552,15.374689232945457L208.55655310509212,14.899506937693928L210.239732340106,14.678398771798072L211.92351645505582,14.452431975823117L212.76465241261081,14.609841650952802L214.4491422208192,14.91278084460751L216.97330619340408,14.73120505592135L218.65991308138817,14.442557698984075L219.50311571205756,14.515877306641187L220.34646956271092,14.12715306362324L222.03358051730828,14.100964055771868L223.72159879180947,14.223066088404721L224.5631380026551,14.402830659549835L225.40417314688747,14.054146758347684L228.80319513345478,13.62259387455768L229.64448231099377,13.49255441039233L231.32801439263696,13.097779520958568L233.0130586741199,13.127916660494009L237.2280636942403,12.681334378153764L240.59568233080122,12.378897329218091L241.4390865881159,12.409044671975352L242.28102905225214,12.374658784525025L243.12211460314583,11.803476327358908L249.0218110581199,11.296951584487687" style="fill: none;" fill="none"></path></g></g></g></g><g opacity="0.20000000298023224"><g><g><g><path stroke="rgb(0, 119, 187)" stroke-width="2px" d="M-1.4632549716464416,175.13337528167565L0.1569663433706645,143.0350874428706L0.9574241252351963,133.32712065864354L1.7584867870356458,125.84170299814434L2.5655478415339465,119.40489166665387L4.212383873731435,101.50583819019819L6.713259968783506,76.68851747933404L7.562713025457378,72.84359930326413L8.400169296735548,68.56337332766427L9.237827194659022,63.66322591170385L10.072863946193522,61.86277060666002L12.579536807298137,54.25862877769292L13.41623697865641,52.721986089441344L16.761676684233684,45.764172435248184L17.598124822285325,44.83424782015042L19.271474758340542,42.23579543568343L20.108426963005446,40.283649998711894L20.94537916767035,40.04622288905456L24.311737637698112,36.76187468275049L26.825215398081806,35.74623431720158L28.50073282057406,34.62507315039147L31.012345534488674,32.81141447814093L31.851868478881226,32.2838104718349L32.68887109020746,32.20467517770862L33.52617614150165,31.446224518070153L34.3630275328439,31.340703716808946L36.0416701683384,30.766930379836424L36.87882399964861,30.75374823990819L37.71628027092678,30.36463099832318L40.23011087793976,29.975534984016605L41.07003707562292,29.480896941170386L42.74812523784283,28.933509111332796L43.58517825583039,29.111563523116928L44.42298737373785,28.88073809706293L46.940144820398366,28.08274101763979L48.61838420260226,27.443014526469227L49.45745348704287,27.720009283189682L50.29818619130726,27.931050885712096L51.13891889557165,27.46940003360413L51.98005485312665,27.172621453352093L57.018553499337806,26.684585094109195L57.858378883698315,26.097608389929974L60.37835910339312,25.510652913029247L64.58318197792559,25.840418684019568L67.94389490188479,25.332598501245087L69.62314241731521,24.8511425983271L71.3059688056998,24.85774428193045L72.98546835443685,24.640100995804687L73.82569699208797,24.837960458398868L74.66587522307778,24.191632283624926L75.50519654082503,24.514796371011926L78.8609192053129,23.67062996092227L79.70084540299607,24.712655833606078L80.54082200734055,24.198233967228276L82.22314432911189,24.316936908417716L83.06291930681108,23.83550223277817L83.90289591115557,24.27736926135458L87.26335680180813,23.571689615985917L88.94371326378773,23.27491103573388L90.6219022393303,23.426601167661573L92.30180504135795,23.123242131084652L93.14203367900907,23.11003876387798L94.82138200776215,23.129822587409535L98.18214533838267,22.951768175625404L99.8627538336689,22.846247374364197L100.70257921802941,22.701158926039852L103.2221057777723,22.23290639032851L105.74218681078975,22.503299463445643L109.10083306163456,22.279054493716558L110.78048383035558,22.694557242436503L111.62252710781446,21.810801958005243L114.14230570086396,21.73166666387897L117.50634546447071,21.25683367184274L118.34758223534837,21.18427883404135L119.18740761970889,21.329367282365695L120.02889642389317,21.55361225209481L122.55023762344379,21.830607008815264L123.3921296809187,21.30298177523079L124.23376970508696,21.05237252564521L125.91528552027708,21.078758032780144L126.7549596846536,21.012804878582074L127.59483547567545,21.217266024779605L129.27630088420423,20.63028932060041L130.11698318180729,20.94027126805915L132.63731624813138,20.32032860042014L133.478855458977,20.86111474665438L135.16193388066822,20.030130476492957L136.84304644256773,20.353294563879928L137.68307345357354,19.898245395375312L138.5346435900231,20.50498469580762L141.8966670871768,19.660818285717994L144.41901641995398,20.023550020168074L145.25894261763716,19.304688234871207L146.09932247527223,19.179383610078446L146.9415169727151,19.608047271448157L151.98440099846167,19.238735080673166L152.83773536805765,19.12001091220526L153.67902254559664,19.344255881934373L154.52061216310358,19.12001091220526L155.36048795412543,18.757300405033618L157.04371759580064,18.242878538655816L159.57060352809717,18.988125831087615L162.09285204755167,18.77048254496185L165.4516999250418,18.711109847088665L166.29233181598354,18.69132602355708L167.13306452024793,18.110972230259705L167.9730411245924,17.89332894413394L168.8137738288568,18.025235252530052L170.49670103056405,17.603152047485253L171.33723210818314,18.176925384457746L174.7190150165768,17.80759196640429L177.2441871223882,17.550381033215388L178.08623039984712,17.95928209833201L180.60918461256017,17.669105201683294L181.44986691016325,17.31955560716142L182.29014595447572,17.227216945828445L183.1370282714219,17.26680582017005L184.0019057664617,17.08873018110745L185.7165387581433,16.739180586585547L186.57405688062943,16.69961293952241L187.43066768321165,17.787808142872734L188.27180364076665,16.818337107990317L189.11278837833765,16.554524491198066L192.4782395284616,16.63365978532434L193.32053483922707,17.121696144567238L194.16071307021687,15.670790434045273L196.68255833638077,15.868649896639454L198.36447740486147,16.0005349777571L199.20495807581923,15.743324044568197L200.04553956009966,15.479532655054442L201.7515026060331,16.376470079413906L202.60907113518053,15.16297025127082L203.46593397106938,15.552066265577366L205.1801637094604,15.571871316387416L206.0228118668552,15.176152391199054L208.55655310509212,14.424324642442372L210.239732340106,14.457290605902159L211.92351645505582,14.22646517984819L212.76465241261081,14.76725132608243L214.4491422208192,15.21572003826219L216.97330619340408,14.549629267235161L218.65991308138817,14.153910342046771L219.50311571205756,14.589196914298299L220.34646956271092,13.738428820605293L222.03358051730828,14.074775047920497L223.72159879180947,14.34516812103763L224.5631380026551,14.582595230694949L225.40417314688747,13.705462857145505L228.80319513345478,13.191040990767704L229.64448231099377,13.36251494622698L231.32801439263696,12.703004631524834L233.0130586741199,13.15805380002945L237.2280636942403,12.23475209581349L240.59568233080122,12.076460280282475L241.4390865881159,12.439192014732583L242.28102905225214,12.340272897074726L243.12211460314583,11.23229387019282L249.0218110581199,10.790426841616437" style="fill: none;" fill="none"></path></g></g></g></g></g></g><g transform="translate(58, 165)" clip-path="url(#clip_1)"><clipPath id="clip_1"><rect width="271" height="34"></rect></clipPath><g><g visibility="inherit"><g><g transform="translate(0,0)" style="visibility: hidden;"><text transform="translate(3,14.171875)" style="text-anchor: start; font-family: &quot;Helvetica Neue&quot;, sans-serif; font-size: 12px; font-weight: 200;" fill="rgb(50, 49, 63)" stroke="none" stroke-width="1px">05:28 PM</text></g><g transform="translate(5.466148760905018,0)" style="visibility: hidden;"><text transform="translate(3,14.171875)" style="text-anchor: start; font-family: &quot;Helvetica Neue&quot;, sans-serif; font-size: 12px; font-weight: 200;" fill="rgb(50, 49, 63)" stroke="none" stroke-width="1px">05:30 PM</text></g><g transform="translate(50.83214395473868,0)" style="visibility: hidden;"><text transform="translate(3,14.171875)" style="text-anchor: start; font-family: &quot;Helvetica Neue&quot;, sans-serif; font-size: 12px; font-weight: 200;" fill="rgb(50, 49, 63)" stroke="none" stroke-width="1px">05:45 PM</text></g><g transform="translate(96.19813914857234,0)" style="visibility: hidden;"><text transform="translate(3,14.171875)" style="text-anchor: start; font-family: &quot;Helvetica Neue&quot;, sans-serif; font-size: 12px; font-weight: 200;" fill="rgb(50, 49, 63)" stroke="none" stroke-width="1px">06:00 PM</text></g><g transform="translate(141.564134342406,0)" style="visibility: hidden;"><text transform="translate(3,14.171875)" style="text-anchor: start; font-family: &quot;Helvetica Neue&quot;, sans-serif; font-size: 12px; font-weight: 200;" fill="rgb(50, 49, 63)" stroke="none" stroke-width="1px">06:15 PM</text></g><g transform="translate(186.9301295362397,0)" style="visibility: hidden;"><text transform="translate(3,14.171875)" style="text-anchor: start; font-family: &quot;Helvetica Neue&quot;, sans-serif; font-size: 12px; font-weight: 200;" fill="rgb(50, 49, 63)" stroke="none" stroke-width="1px">06:30 PM</text></g><g transform="translate(232.29612473007336,0)" style="visibility: hidden;"><text transform="translate(3,14.171875)" style="text-anchor: start; font-family: &quot;Helvetica Neue&quot;, sans-serif; font-size: 12px; font-weight: 200;" fill="rgb(50, 49, 63)" stroke="none" stroke-width="1px">06:45 PM</text></g><g transform="translate(271.40625,0)" style="visibility: hidden;"><text transform="translate(3,14.171875)" style="text-anchor: start; font-family: &quot;Helvetica Neue&quot;, sans-serif; font-size: 12px; font-weight: 200;" fill="rgb(50, 49, 63)" stroke="none" stroke-width="1px">06:57 PM</text></g></g><g><line x1="0" y1="0" x2="0" y2="17.171875" fill="rgb(0, 0, 0)" stroke="rgb(204, 204, 204)" stroke-width="1px"></line><line x1="5.466148760905018" y1="0" x2="5.466148760905018" y2="17.171875" fill="rgb(0, 0, 0)" stroke="rgb(204, 204, 204)" stroke-width="1px"></line><line x1="50.83214395473868" y1="0" x2="50.83214395473868" y2="17.171875" fill="rgb(0, 0, 0)" stroke="rgb(204, 204, 204)" stroke-width="1px"></line><line x1="96.19813914857234" y1="0" x2="96.19813914857234" y2="17.171875" fill="rgb(0, 0, 0)" stroke="rgb(204, 204, 204)" stroke-width="1px"></line><line x1="141.564134342406" y1="0" x2="141.564134342406" y2="17.171875" fill="rgb(0, 0, 0)" stroke="rgb(204, 204, 204)" stroke-width="1px"></line><line x1="186.9301295362397" y1="0" x2="186.9301295362397" y2="17.171875" fill="rgb(0, 0, 0)" stroke="rgb(204, 204, 204)" stroke-width="1px"></line><line x1="232.29612473007336" y1="0" x2="232.29612473007336" y2="17.171875" fill="rgb(0, 0, 0)" stroke="rgb(204, 204, 204)" stroke-width="1px"></line><line x1="271.40625" y1="0" x2="271.40625" y2="17.171875" fill="rgb(0, 0, 0)" stroke="rgb(204, 204, 204)" stroke-width="1px"></line></g><line x1="0" y1="0" x2="271.40625" y2="0" style="visibility: inherit;" fill="rgb(0, 0, 0)" stroke="rgb(204, 204, 204)" stroke-width="1px"></line></g><g visibility="inherit"><g><g transform="translate(2.7330491771218455,0)" style="visibility: hidden;"><text transform="translate(0,31.34375)" style="text-anchor: middle; font-family: &quot;Helvetica Neue&quot;, sans-serif; font-size: 12px; font-weight: 200;" fill="rgb(50, 49, 63)" stroke="none" stroke-width="1px">December  2, 2018</text></g><g transform="translate(28.149146357821852,0)" style="visibility: hidden;"><text transform="translate(0,31.34375)" style="text-anchor: middle; font-family: &quot;Helvetica Neue&quot;, sans-serif; font-size: 12px; font-weight: 200;" fill="rgb(50, 49, 63)" stroke="none" stroke-width="1px">December  2, 2018</text></g><g transform="translate(73.51514155165552,0)" style="visibility: hidden;"><text transform="translate(0,31.34375)" style="text-anchor: middle; font-family: &quot;Helvetica Neue&quot;, sans-serif; font-size: 12px; font-weight: 200;" fill="rgb(50, 49, 63)" stroke="none" stroke-width="1px">December  2, 2018</text></g><g transform="translate(118.88113674548919,0)" style="visibility: hidden;"><text transform="translate(0,31.34375)" style="text-anchor: middle; font-family: &quot;Helvetica Neue&quot;, sans-serif; font-size: 12px; font-weight: 200;" fill="rgb(50, 49, 63)" stroke="none" stroke-width="1px">December  2, 2018</text></g><g transform="translate(164.24713193932286,0)" style="visibility: hidden;"><text transform="translate(0,31.34375)" style="text-anchor: middle; font-family: &quot;Helvetica Neue&quot;, sans-serif; font-size: 12px; font-weight: 200;" fill="rgb(50, 49, 63)" stroke="none" stroke-width="1px">December  2, 2018</text></g><g transform="translate(209.6131271331565,0)" style="visibility: hidden;"><text transform="translate(0,31.34375)" style="text-anchor: middle; font-family: &quot;Helvetica Neue&quot;, sans-serif; font-size: 12px; font-weight: 200;" fill="rgb(50, 49, 63)" stroke="none" stroke-width="1px">December  2, 2018</text></g><g transform="translate(251.85118736503665,0)" style="visibility: hidden;"><text transform="translate(0,31.34375)" style="text-anchor: middle; font-family: &quot;Helvetica Neue&quot;, sans-serif; font-size: 12px; font-weight: 200;" fill="rgb(50, 49, 63)" stroke="none" stroke-width="1px">December  2, 2018</text></g></g><g><line x1="0" y1="17.171875" x2="0" y2="34.34375" fill="rgb(0, 0, 0)" stroke="rgb(204, 204, 204)" stroke-width="1px"></line><line x1="5.466148760905018" y1="17.171875" x2="5.466148760905018" y2="34.34375" fill="rgb(0, 0, 0)" stroke="rgb(204, 204, 204)" stroke-width="1px"></line><line x1="50.83214395473868" y1="17.171875" x2="50.83214395473868" y2="34.34375" fill="rgb(0, 0, 0)" stroke="rgb(204, 204, 204)" stroke-width="1px"></line><line x1="96.19813914857234" y1="17.171875" x2="96.19813914857234" y2="34.34375" fill="rgb(0, 0, 0)" stroke="rgb(204, 204, 204)" stroke-width="1px"></line><line x1="141.564134342406" y1="17.171875" x2="141.564134342406" y2="34.34375" fill="rgb(0, 0, 0)" stroke="rgb(204, 204, 204)" stroke-width="1px"></line><line x1="186.9301295362397" y1="17.171875" x2="186.9301295362397" y2="34.34375" fill="rgb(0, 0, 0)" stroke="rgb(204, 204, 204)" stroke-width="1px"></line><line x1="232.29612473007336" y1="17.171875" x2="232.29612473007336" y2="34.34375" fill="rgb(0, 0, 0)" stroke="rgb(204, 204, 204)" stroke-width="1px"></line><line x1="271.40625" y1="17.171875" x2="271.40625" y2="34.34375" fill="rgb(0, 0, 0)" stroke="rgb(204, 204, 204)" stroke-width="1px"></line></g><line x1="0" y1="17.171875" x2="271.40625" y2="17.171875" style="visibility: inherit;" fill="rgb(0, 0, 0)" stroke="rgb(204, 204, 204)" stroke-width="1px"></line></g></g></g></g></g></svg>