<svg viewBox="0 0 330 200" xmlns="http://www.w3.org/2000/svg"><g><g><g><g><g><line x1="58.59375" y1="157.81003236005293" x2="53.59375" y2="157.81003236005293" style="visibility: inherit;" fill="rgb(0, 0, 0)" stroke="rgb(204, 204, 204)" stroke-width="1px"></line><line x1="58.59375" y1="144.51332765207212" x2="53.59375" y2="144.51332765207212" style="visibility: inherit;" fill="rgb(0, 0, 0)" stroke="rgb(204, 204, 204)" stroke-width="1px"></line><line x1="58.59375" y1="131.21662294409134" x2="53.59375" y2="131.21662294409134" style="visibility: inherit;" fill="rgb(0, 0, 0)" stroke="rgb(204, 204, 204)" stroke-width="1px"></line><line x1="58.59375" y1="117.91991823611055" x2="53.59375" y2="117.91991823611055" style="visibility: inherit;" fill="rgb(0, 0, 0)" stroke="rgb(204, 204, 204)" stroke-width="1px"></line><line x1="58.59375" y1="104.62321352812974" x2="53.59375" y2="104.62321352812974" style="visibility: inherit;" fill="rgb(0, 0, 0)" stroke="rgb(204, 204, 204)" stroke-width="1px"></line><line x1="58.59375" y1="91.32650882014897" x2="53.59375" y2="91.32650882014897" style="visibility: inherit;" fill="rgb(0, 0, 0)" stroke="rgb(204, 204, 204)" stroke-width="1px"></line><line x1="58.59375" y1="78.02980411216816" x2="53.59375" y2="78.02980411216816" style="visibility: inherit;" fill="rgb(0, 0, 0)" stroke="rgb(204, 204, 204)" stroke-width="1px"></line><line x1="58.59375" y1="64.73309940418739" x2="53.59375" y2="64.73309940418739" style="visibility: inherit;" fill="rgb(0, 0, 0)" stroke="rgb(204, 204, 204)" stroke-width="1px"></line><line x1="58.59375" y1="51.43639469620658" x2="53.59375" y2="51.43639469620658" style="visibility: inherit;" fill="rgb(0, 0, 0)" stroke="rgb(204, 204, 204)" stroke-width="1px"></line><line x1="58.59375" y1="38.13968998822578" x2="53.59375" y2="38.13968998822578" style="visibility: inherit;" fill="rgb(0, 0, 0)" stroke="rgb(204, 204, 204)" stroke-width="1px"></line><line x1="58.59375" y1="24.84298528024499" x2="53.59375" y2="24.84298528024499" style="visibility: inherit;" fill="rgb(0, 0, 0)" stroke="rgb(204, 204, 204)" stroke-width="1px"></line><line x1="58.59375" y1="11.546280572264209" x2="53.59375" y2="11.546280572264209" style="visibility: inherit;" fill="rgb(0, 0, 0)" stroke="rgb(204, 204, 204)" stroke-width="1px"></line></g><g transform="translate(48.59375, 0)"><text x="0" y="157.81003236005293" dx="0em" dy="0.3em" style="text-anchor: end; visibility: inherit; font-family: &quot;Helvetica Neue&quot;, sans-serif; font-size: 12px; font-weight: 200;" fill="rgb(50, 49, 63)" stroke="none" stroke-width="1px">0.350</text><text x="0" y="144.51332765207212" dx="0em" dy="0.3em" style="text-anchor: end; visibility: hidden; font-family: &quot;Helvetica Neue&quot;, sans-serif; font-size: 12px; font-weight: 200;" fill="rgb(50, 49, 63)" stroke="none" stroke-width="1px">0.400</text><text x="0" y="131.21662294409134" dx="0em" dy="0.3em" style="text-anchor: end; visibility: inherit; font-family: &quot;Helvetica Neue&quot;, sans-serif; font-size: 12px; font-weight: 200;" fill="rgb(50, 49, 63)" stroke="none" stroke-width="1px">0.450</text><text x="0" y="117.91991823611055" dx="0em" dy="0.3em" style="text-anchor: end; visibility: hidden; font-family: &quot;Helvetica Neue&quot;, sans-serif; font-size: 12px; font-weight: 200;" fill="rgb(50, 49, 63)" stroke="none" stroke-width="1px">0.500</text><text x="0" y="104.62321352812974" dx="0em" dy="0.3em" style="text-anchor: end; visibility: inherit; font-family: &quot;Helvetica Neue&quot;, sans-serif; font-size: 12px; font-weight: 200;" fill="rgb(50, 49, 63)" stroke="none" stroke-width="1px">0.550</text><text x="0" y="91.32650882014897" dx="0em" dy="0.3em" style="text-anchor: end; visibility: hidden; font-family: &quot;Helvetica Neue&quot;, sans-serif; font-size: 12px; font-weight: 200;" fill="rgb(50, 49, 63)" stroke="none" stroke-width="1px">0.600</text><text x="0" y="78.02980411216816" dx="0em" dy="0.3em" style="text-anchor: end; visibility: inherit; font-family: &quot;Helvetica Neue&quot;, sans-serif; font-size: 12px; font-weight: 200;" fill="rgb(50, 49, 63)" stroke="none" stroke-width="1px">0.650</text><text x="0" y="64.73309940418739" dx="0em" dy="0.3em" style="text-anchor: end; visibility: hidden; font-family: &quot;Helvetica Neue&quot;, sans-serif; font-size: 12px; font-weight: 200;" fill="rgb(50, 49, 63)" stroke="none" stroke-width="1px">0.700</text><text x="0" y="51.43639469620658" dx="0em" dy="0.3em" style="text-anchor: end; visibility: inherit; font-family: &quot;Helvetica Neue&quot;, sans-serif; font-size: 12px; font-weight: 200;" fill="rgb(50, 49, 63)" stroke="none" stroke-width="1px">0.750</text><text x="0" y="38.13968998822578" dx="0em" dy="0.3em" style="text-anchor: end; visibility: hidden; font-family: &quot;Helvetica Neue&quot;, sans-serif; font-size: 12px; font-weight: 200;" fill="rgb(50, 49, 63)" stroke="none" stroke-width="1px">0.800</text><text x="0" y="24.84298528024499" dx="0em" dy="0.3em" style="text-anchor: end; visibility: inherit; font-family: &quot;Helvetica Neue&quot;, sans-serif; font-size: 12px; font-weight: 200;" fill="rgb(50, 49, 63)" stroke="none" stroke-width="1px">0.850</text><text x="0" y="11.546280572264209" dx="0em" dy="0.3em" style="text-anchor: end; visibility: hidden; font-family: &quot;Helvetica Neue&quot;, sans-serif; font-size: 12px; font-weight: 200;" fill="rgb(50, 49, 63)" stroke="none" stroke-width="1px">0.900</text></g><line x1="58.59375" y1="0" x2="58.59375" y2="165.65625" fill="rgb(0, 0, 0)" stroke="rgb(204, 204, 204)" stroke-width="1px"></line></g></g><g transform="translate(58, 0)" clip-path="url(#clip_0)"><clipPath id="clip_0"><rect width="271" height="165"></rect></clipPath><g><g><g><line x1="4.276103273051534" y1="0" x2="4.276103273051534" y2="165.65625" fill="rgb(0, 0, 0)" stroke="rgb(60, 60, 60)" stroke-width="1px" opacity="0.25"></line><line x1="26.624880407666396" y1="0" x2="26.624880407666396" y2="165.65625" fill="rgb(0, 0, 0)" stroke="rgb(60, 60, 60)" stroke-width="1px" opacity="0.25"></line><line x1="48.97365754228126" y1="0" x2="48.97365754228126" y2="165.65625" fill="rgb(0, 0, 0)" stroke="rgb(60, 60, 60)" stroke-width="1px" opacity="0.25"></line><line x1="71.32243467689612" y1="0" x2="71.32243467689612" y2="165.65625" fill="rgb(0, 0, 0)" stroke="rgb(60, 60, 60)" stroke-width="1px" opacity="0.25"></line><line x1="93.67121181151099" y1="0" x2="93.67121181151099" y2="165.65625" fill="rgb(0, 0, 0)" stroke="rgb(60, 60, 60)" stroke-width="1px" opacity="0.25"></line><line x1="116.01998894612585" y1="0" x2="116.01998894612585" y2="165.65625" fill="rgb(0, 0, 0)" stroke="rgb(60, 60, 60)" stroke-width="1px" opacity="0.25"></line><line x1="138.36876608074073" y1="0" x2="138.36876608074073" y2="165.65625" fill="rgb(0, 0, 0)" stroke="rgb(60, 60, 60)" stroke-width="1px" opacity="0.25"></line><line x1="160.71754321535556" y1="0" x2="160.71754321535556" y2="165.65625" fill="rgb(0, 0, 0)" stroke="rgb(60, 60, 60)" stroke-width="1px" opacity="0.25"></line><line x1="183.06632034997045" y1="0" x2="183.06632034997045" y2="165.65625" fill="rgb(0, 0, 0)" stroke="rgb(60, 60, 60)" stroke-width="1px" opacity="0.25"></line><line x1="205.4150974845853" y1="0" x2="205.4150974845853" y2="165.65625" fill="rgb(0, 0, 0)" stroke="rgb(60, 60, 60)" stroke-width="1px" opacity="0.25"></line><line x1="227.76387461920018" y1="0" x2="227.76387461920018" y2="165.65625" fill="rgb(0, 0, 0)" stroke="rgb(60, 60, 60)" stroke-width="1px" opacity="0.25"></line><line x1="250.11265175381504" y1="0" x2="250.11265175381504" y2="165.65625" fill="rgb(0, 0, 0)" stroke="rgb(60, 60, 60)" stroke-width="1px" opacity="0.25"></line></g><g><line x1="0" y1="157.81003236005293" x2="271.40625" y2="157.81003236005293" fill="rgb(0, 0, 0)" stroke="rgb(60, 60, 60)" stroke-width="1px" opacity="0.25"></line><line x1="0" y1="144.51332765207212" x2="271.40625" y2="144.51332765207212" fill="rgb(0, 0, 0)" stroke="rgb(60, 60, 60)" stroke-width="1px" opacity="0.25"></line><line x1="0" y1="131.21662294409134" x2="271.40625" y2="131.21662294409134" fill="rgb(0, 0, 0)" stroke="rgb(60, 60, 60)" stroke-width="1px" opacity="0.25"></line><line x1="0" y1="117.91991823611055" x2="271.40625" y2="117.91991823611055" fill="rgb(0, 0, 0)" stroke="rgb(60, 60, 60)" stroke-width="1px" opacity="0.25"></line><line x1="0" y1="104.62321352812974" x2="271.40625" y2="104.62321352812974" fill="rgb(0, 0, 0)" stroke="rgb(60, 60, 60)" stroke-width="1px" opacity="0.25"></line><line x1="0" y1="91.32650882014897" x2="271.40625" y2="91.32650882014897" fill="rgb(0, 0, 0)" stroke="rgb(60, 60, 60)" stroke-width="1px" opacity="0.25"></line><line x1="0" y1="78.02980411216816" x2="271.40625" y2="78.02980411216816" fill="rgb(0, 0, 0)" stroke="rgb(60, 60, 60)" stroke-width="1px" opacity="0.25"></line><line x1="0" y1="64.73309940418739" x2="271.40625" y2="64.73309940418739" fill="rgb(0, 0, 0)" stroke="rgb(60, 60, 60)" stroke-width="1px" opacity="0.25"></line><line x1="0" y1="51.43639469620658" x2="271.40625" y2="51.43639469620658" fill="rgb(0, 0, 0)" stroke="rgb(60, 60, 60)" stroke-width="1px" opacity="0.25"></line><line x1="0" y1="38.13968998822578" x2="271.40625" y2="38.13968998822578" fill="rgb(0, 0, 0)" stroke="rgb(60, 60, 60)" stroke-width="1px" opacity="0.25"></line><line x1="0" y1="24.84298528024499" x2="271.40625" y2="24.84298528024499" fill="rgb(0, 0, 0)" stroke="rgb(60, 60, 60)" stroke-width="1px" opacity="0.25"></line><line x1="0" y1="11.546280572264209" x2="271.40625" y2="11.546280572264209" fill="rgb(0, 0, 0)" stroke="rgb(60, 60, 60)" stroke-width="1px" opacity="0.25"></line></g></g></g><g><g><line x1="0" y1="250.88696531591847" x2="271.40625" y2="250.88696531591847" fill="rgb(0, 0, 0)" stroke="rgb(153, 153, 153)" stroke-width="1.5px"></line></g></g><g><g><line x1="-9583665.381093677" y1="0" x2="-9583665.381093677" y2="165.65625" fill="rgb(0, 0, 0)" stroke="rgb(153, 153, 153)" stroke-width="1.5px"></line></g></g><g><g><g><g><g><path stroke="rgb(187, 187, 187)" stroke-width="2px" d="M-0.8794740441962828,120.49986789051036L0.34395388809537125,165.10076002756915L1.569865017846427,122.70042418396665L2.797688209641222,96.68882433308417L4.025859049080333,80.57553330247258L5.2547934717382105,70.4529756460702L6.482728407418679,61.513487051132714L7.710172911600915,55.280701822198054L8.937158024253161,51.760483570041075L10.16539094362876,49.01789558744382L11.393499703131384,48.075043692741374L12.619187345111095,47.02496452656105L13.844968106995532,45.87695258806575L15.072971330606133,44.8572587351708L16.30169468147996,42.579449170566875L17.53198244675321,41.647374951073516L18.760351941989075,41.023748121784905L19.990161691751393,39.21975407818253L21.221455151995702,38.54182548078742L22.45266170032893,37.089881806461364L23.68394274458594,35.47746383414798L24.914727149351073,34.58260864938555L26.146020609595386,33.83969637013635L27.378195604937783,33.05210636336881L28.610569256076932,32.5327325475659L29.843613370530118,31.485089116501L31.076433997211957,30.31859236789387L32.30975747137933,29.801830623908018L33.54339134522912,29.452338737237255L34.77714937895189,28.593063440323164L36.011428884141125,28.468753892115274L37.24554698149551,27.0547703469978L38.47980165471015,26.623560583637442L39.71412461585493,25.908097342899197L40.948472408974304,24.67130611014241L42.1835403293569,24.981218874871928L43.418384761968156,24.712646941877466L44.653260234547645,26.161652619016138L45.88838402687309,24.901502992331984L47.12352644317947,23.545036579453637L48.35838949977166,23.67691153901231L49.59387956372236,23.826573510706794L50.82861225244794,22.24670451590987L52.063462893052844,22.308740430466827L53.2991019488511,21.87437575188207L54.53389671751317,22.304790152355025L55.768499038372134,21.12384151954828L57.003629038691216,21.176042236219615L58.23843622334058,20.943598446954326L59.473504143723176,20.091133613950603L60.71010543853696,20.47993899559077L61.945763118316165,19.62537619957439L63.18083103869877,19.754588452107214L64.41543335955772,18.233438118665646L65.64989289656278,17.99488087929106L66.88687287898911,18.26711966784015L68.12248710281278,18.14468698906012L69.35772263902389,19.125049613743897L70.59326236692378,17.500070016268978L71.83100593256887,17.148041146704088L73.06600556502136,17.85600803099993L74.30378637862835,17.973606893834898L75.53893500292837,17.022846193755015L76.77412087519029,16.485900920087886L78.00922604353478,16.50306163128755L79.24463540356805,15.324789458178486L80.48008821955686,15.171489916436457L81.71550999557743,15.20318109638714L82.9510745554519,14.763495389334025L84.18639700357409,15.090294847513775L85.42202364338505,15.753552935661759L86.65787377096737,14.96234333981883L87.8938666824036,16.02199448249567L89.12962989807481,15.6727604414464L90.36556693756822,14.498426702805574L91.60136740120133,14.652424478546806L92.83702508098055,13.594284422500863L94.07339047203568,13.843311653352913L95.30937096748461,13.197114532666603L96.5451155591749,15.001485111593524L97.78138162233165,13.249253702296556L99.01738694975518,13.803769553886212L100.25323707733749,12.896631841590619L101.48945347654507,13.814594434125922L102.72555192387331,13.714625189234027L103.96157587527779,13.14754434613252L105.1974260028601,12.33952118116352L106.43362998608038,12.423051802830258L107.669827761307,11.755663375724794L108.90632352022875,11.584488513858219L110.14210535988093,11.164018966171454L111.37819139122189,12.453351344048826L112.61435191848662,11.96780029576152L113.85089113336392,11.331050472762996L115.0872875643873,11.044686468386544L116.32339221970919,10.758687792181718L117.55963965888502,10.953027461451228L118.79585605809258,11.311206259759075L120.03216557720488,12.475239331503872L121.26853717625367,11.606929558922218L122.50471632749935,11.091514996788277L123.74111275852272,10.654058427891329L124.97721741384463,10.120150704358906L126.21312341336979,10.202852004871545L127.44961917229153,9.626152006413292L128.6860156033149,9.968160885352006L129.92249273825573,10.149016663656113L131.15843598574276,9.4071688930687L132.3948013767979,9.287402632613293L133.63109227192925,9.515617666490897L134.8674452469971,9.82424751678505L136.10319604668103,9.30880613387879L137.33944348585683,10.12713220424078L138.57575300496913,9.635076058746051L139.8118390363101,11.063442718858852L141.04832237924455,9.615681186450246L142.28475605822985,9.950617245917215L143.52138839301185,9.788124865587804L144.75794002387642,9.77583012181293L145.9943985348363,9.469276356366947L147.2308756697771,9.352932087457305L148.46762595643844,9.346465612341234L149.70353816395726,8.988655505813824L150.9399842589298,8.849147882435574L152.17641172992145,9.062562602707573L153.41286403288765,9.088018212454102L154.64917355199995,9.039181093700222L155.88586796671848,8.835013246493332L157.1218484621674,8.826497228186184L158.35802140541944,8.009666236962659L159.59429367656983,8.492618583191842L160.83020588408863,10.19673721966737L162.06610567562012,9.73635727132347L163.30227241087852,8.814251420810166L164.53885508171135,8.63636702751458L165.77530738467757,8.07711256285944L167.01180935159297,8.952334877571559L168.24782088701016,9.286526790796472L169.4842049020462,9.493020177294426L170.72284862677034,9.74647006732269L171.95904019400334,10.318874970530516L173.1961008803471,10.8291537719941L174.4328697909894,10.39483418700297L175.66964490962533,9.254295645543692L176.906177916509,8.211249290734571L178.1427419633609,8.352103824074248L179.37931221820642,8.942084202018151L180.61599421693762,8.436809638373461L181.85237202398005,8.216183263673884L183.08896090280655,8.805180400881767L184.32550632567748,8.747558991134781L185.58070056146852,8.186886945533985L186.81774262383135,7.352514162810991L188.05392177507704,7.755295201735748L189.29020646221474,8.924391532191521L190.52636078148583,10.021106285930813L191.76250889276326,8.816266144715684L193.02001250219155,8.98702955174619L194.25661379700534,8.44943889985629L195.49325854777467,10.293339667656056L196.73033785809938,9.284800136259719L197.96708814476074,8.982447152133176L199.20360252766343,8.447147700049783L200.44004241464233,8.324771538643148L201.67628364582453,8.389162270359009L202.91223930929885,8.231757009552155L204.14892130803003,7.330630058244054L205.38565297071045,7.185402608292719L206.62231634546072,7.70867203828999L207.8604820546739,7.229142108226995L209.09707714149405,7.536019454901776L210.33349840449202,7.009850481351037L211.57004382736298,6.498065260355901L212.80689344192268,6.547500750107474L214.04350715272375,6.786443506008169L215.28013327951214,7.578143933537547L216.5167842382751,8.202992203852489L217.75385734060617,8.335659125726352L218.99337639243473,8.07204010205399L220.23013909508342,7.226147220134806L221.46709424553515,7.130696373166018L222.70401835601862,6.99185993500376L223.9409486744958,6.410275127411268L225.17777966507455,7.3925166348575715L226.41465411160888,7.662025854793171L227.65115607852428,7.149183724995623L228.88758975750955,6.912457412312818L230.12465044385334,6.776864319827553L231.36156834634318,7.304958854011488L232.6007459585211,7.26613491147279L233.8376204050554,6.1312708230492206L235.0750287390435,7.15206005461755L236.31202734545076,6.916360393195873L237.5491997756802,6.7443400870741925L238.78634116594142,7.313313196541316L240.02293625276153,6.4700473301210195L241.2598665712387,6.5039456939393006L242.49685896965232,6.405167402264084L243.73403139988176,6.190802014121829L244.97128453402863,9.240351268487728L246.20845075626445,7.741359282415459" style="fill: none;" fill="none"></path></g></g></g></g><g opacity="0.20000000298023224"><g><g><g><path stroke="rgb(187, 187, 187)" stroke-width="2px" d="M0.34395388809537125,209.70165216462797L1.569865017846427,80.30008834036413L2.797688209641222,70.6772244822017L4.025859049080333,64.46224227186097L5.2547934717382105,60.33041798966785L6.482728407418679,52.57399845619521L7.710172911600915,49.04791659326342L8.937158024253161,48.24026531788407L10.16539094362876,46.27530760484653L11.393499703131384,47.13219179803893L12.619187345111095,45.97488536038075L13.844968106995532,44.72894064957042L15.072971330606133,43.837564882275885L16.30169468147996,40.30163960596293L17.53198244675321,40.715300731580186L18.760351941989075,40.40012129249625L19.990161691751393,37.41576003458016L21.221455151995702,37.8638968833923L22.45266170032893,35.637938132135304L23.68394274458594,33.86504586183463L24.914727149351073,33.687753464623114L26.146020609595386,33.096784090887155L27.378195604937783,32.26451635660129L28.610569256076932,32.01335873176299L29.843613370530118,30.43744568543616L31.076433997211957,29.15209561928674L32.30975747137933,29.285068879922164L33.54339134522912,29.102846850566465L34.77714937895189,27.733788143409072L36.011428884141125,28.344444343907384L37.24554698149551,25.640786801880296L38.47980165471015,26.19235082027717L39.71412461585493,25.192634102160923L40.948472408974304,23.434514877385624L42.1835403293569,25.291131639601474L43.418384761968156,24.444075008883004L44.653260234547645,27.61065829615481L45.88838402687309,23.64135336564786L47.12352644317947,22.18857016657529L48.35838949977166,23.80878649857098L49.59387956372236,23.976235482401307L50.82861225244794,20.666835521112915L52.063462893052844,22.370776345023785L53.2991019488511,21.44001107329737L54.53389671751317,22.735204552827952L55.768499038372134,19.942892886741532L57.003629038691216,21.22824295289095L58.23843622334058,20.71115465768898L59.473504143723176,19.23866878094691L60.71010543853696,20.868744377230968L61.945763118316165,18.77081340355798L63.18083103869877,19.883800704640095L64.41543335955772,16.712287785224106L65.64989289656278,17.75632363991639L66.88687287898911,18.539358456389238L68.12248710281278,18.02225431028006L69.35772263902389,20.105412238427675L70.59326236692378,15.87509041879406L71.83100593256887,16.796012277139283L73.06600556502136,18.563974915295773L74.30378637862835,18.091205756669865L75.53893500292837,16.072085493675104L76.77412087519029,15.948955646420842L78.00922604353478,16.520222342487244L79.24463540356805,14.14651728506945L80.48008821955686,15.018190374694427L81.71550999557743,15.234872276337825L82.9510745554519,14.323809682280938L84.18639700357409,15.417094305693496L85.42202364338505,16.416811023809743L86.65787377096737,14.171133743975986L87.8938666824036,17.081645625172484L89.12962989807481,15.323526400397185L90.36556693756822,13.32409296416472L91.60136740120133,14.806422254288009L92.83702508098055,12.53614436645492L94.07339047203568,14.092338884204992L95.30937096748461,12.550917411980294L96.5451155591749,16.805855690520445L97.78138162233165,11.497022292999588L99.01738694975518,14.358285405475868L100.25323707733749,11.989494129295053L101.48945347654507,14.732557026661198L102.72555192387331,13.614655944342132L103.96157587527779,12.580463503030984L105.1974260028601,11.531498016194519L106.43362998608038,12.506582424496997L107.669827761307,11.088274948619357L108.90632352022875,11.413313651991643L110.14210535988093,10.74354941848469L111.37819139122189,13.742683721926142L112.61435191848662,11.482249247474243L113.85089113336392,10.694300649764443L115.0872875643873,10.758322464010064L116.32339221970919,10.472689115976863L117.55963965888502,11.147367130720767L118.79585605809258,11.669385058066922L120.03216557720488,13.63927240324864L121.26853717625367,10.738619786340507L122.50471632749935,10.576100434654364L123.74111275852272,10.216601858994352L124.97721741384463,9.58624298082654L126.21312341336979,10.285553305384184L127.44961917229153,9.049452007955011L128.6860156033149,10.31016976429072L129.92249273825573,10.329872441960248L131.15843598574276,8.665321122481288L132.3948013767979,9.167636372157887L133.63109227192925,9.7438327003685L134.8674452469971,10.132877367079203L136.10319604668103,8.793364750972529L137.33944348585683,10.945458274602743L138.57575300496913,9.14301991325135L139.8118390363101,12.491809378971624L141.04832237924455,8.167919654041668L142.28475605822985,10.285553305384184L143.52138839301185,9.625632485258393L144.75794002387642,9.763535378038029L145.9943985348363,9.162722590920907L147.2308756697771,9.23658781854769L148.46762595643844,9.339999137225192L149.70353816395726,8.630845399286358L150.9399842589298,8.709640259057352L152.17641172992145,9.275977322979571L153.41286403288765,9.113473822200632L154.64917355199995,8.99034397494637L155.88586796671848,8.630845399286358L157.1218484621674,8.817981209879036L158.35802140541944,7.192835245739161L159.59429367656983,8.975570929421025L160.83020588408863,11.900855856142897L162.06610567562012,9.275977322979571L163.30227241087852,7.892145570296833L164.53885508171135,8.458482634219052L165.77530738467757,7.517858098204272L167.01180935159297,9.827557192283649L168.24782088701016,9.620718704021414L169.4842049020462,9.699513563792408L170.72284862677034,9.999919957350954L171.95904019400334,10.891279873738284L173.1961008803471,11.339432573457628L174.4328697909894,9.96051460201187L175.66964490962533,8.113757104084414L176.906177916509,7.16820293592545L178.1427419633609,8.492958357413954L179.37931221820642,9.532064579962054L180.61599421693762,7.931535074728714L181.85237202398005,7.995556888974335L183.08896090280655,9.39417753808965L184.32550632567748,8.689937581387795L185.58070056146852,7.62621489993316L186.81774262383135,6.518141380088025L188.05392177507704,8.158076240660506L189.29020646221474,10.093487862647322L190.52636078148583,11.117821039670048L191.76250889276326,7.611426003500583L193.02001250219155,9.157792958776696L194.25661379700534,7.91184824796639L195.49325854777467,12.137240435455823L196.73033785809938,8.276260604863353L197.96708814476074,8.680094168006633L199.20360252766343,7.91184824796639L200.44004241464233,8.20239537723657L201.67628364582453,8.45355300207487L202.91223930929885,8.074351748745329L204.14892130803003,6.429503106935897L205.38565297071045,7.0401751583414125L206.62231634546072,8.231941468287289L207.8604820546739,6.749612178164L209.09707714149405,7.842896801576558L210.33349840449202,6.483681507800355L211.57004382736298,5.986280039360736L212.80689344192268,6.596936239859019L214.04350715272375,7.025386261908835L215.28013327951214,8.369844361066896L216.5167842382751,8.82784047416743L217.75385734060617,8.468326047600215L218.99337639243473,7.808421078381656L220.23013909508342,6.380254338215622L221.46709424553515,7.035245526197201L222.70401835601862,6.853023496841502L223.9409486744958,5.828690319818776L225.17777966507455,8.374758142303875L226.41465411160888,7.931535074728714L227.65115607852428,6.636341595198104L228.88758975750955,6.675731099630013L230.12465044385334,6.641271227342315L231.36156834634318,7.833053388195395L232.6007459585211,7.227310968934091L233.8376204050554,4.99640673462568L235.0750287390435,8.172849286185851L236.31202734545076,6.680660731774196L237.5491997756802,6.572319780952512L238.78634116594142,7.882286306008467L240.02293625276153,5.626781463700752L241.2598665712387,6.537844057757582L242.49685896965232,6.306389110588839L243.73403139988176,5.976436625979574L244.97128453402863,12.2899005228536L246.20845075626445,6.242367296343218" style="fill: none;" fill="none"></path></g></g></g></g></g></g><g transform="translate(58, 165)" clip-path="url(#clip_1)"><clipPath id="clip_1"><rect width="271" height="34"></rect></clipPath><g><g visibility="inherit"><g><g transform="translate(0,0)" style="visibility: inherit;"><text transform="translate(3,14.171875)" style="text-anchor: start; font-family: &quot;Helvetica Neue&quot;, sans-serif; font-size: 12px; font-weight: 200;" fill="rgb(50, 49, 63)" stroke="none" stroke-width="1px">03 PM</text></g><g transform="translate(4.276103273051534,0)" style="visibility: hidden;"><text transform="translate(3,14.171875)" style="text-anchor: start; font-family: &quot;Helvetica Neue&quot;, sans-serif; font-size: 12px; font-weight: 200;" fill="rgb(50, 49, 63)" stroke="none" stroke-width="1px">04 PM</text></g><g transform="translate(26.624880407666396,0)" style="visibility: hidden;"><text transform="translate(3,14.171875)" style="text-anchor: start; font-family: &quot;Helvetica Neue&quot;, sans-serif; font-size: 12px; font-weight: 200;" fill="rgb(50, 49, 63)" stroke="none" stroke-width="1px">05 PM</text></g><g transform="translate(48.97365754228126,0)" style="visibility: hidden;"><text transform="translate(3,14.171875)" style="text-anchor: start; font-family: &quot;Helvetica Neue&quot;, sans-serif; font-size: 12px; font-weight: 200;" fill="rgb(50, 49, 63)" stroke="none" stroke-width="1px">06 PM</text></g><g transform="translate(71.32243467689612,0)" style="visibility: hidden;"><text transform="translate(3,14.171875)" style="text-anchor: start; font-family: &quot;Helvetica Neue&quot;, sans-serif; font-size: 12px; font-weight: 200;" fill="rgb(50, 49, 63)" stroke="none" stroke-width="1px">07 PM</text></g><g transform="translate(93.67121181151099,0)" style="visibility: hidden;"><text transform="translate(3,14.171875)" style="text-anchor: start; font-family: &quot;Helvetica Neue&quot;, sans-serif; font-size: 12px; font-weight: 200;" fill="rgb(50, 49, 63)" stroke="none" stroke-width="1px">08 PM</text></g><g transform="translate(116.01998894612585,0)" style="visibility: hidden;"><text transform="translate(3,14.171875)" style="text-anchor: start; font-family: &quot;Helvetica Neue&quot;, sans-serif; font-size: 12px; font-weight: 200;" fill="rgb(50, 49, 63)" stroke="none" stroke-width="1px">09 PM</text></g><g transform="translate(138.36876608074073,0)" style="visibility: hidden;"><text transform="translate(3,14.171875)" style="text-anchor: start; font-family: &quot;Helvetica Neue&quot;, sans-serif; font-size: 12px; font-weight: 200;" fill="rgb(50, 49, 63)" stroke="none" stroke-width="1px">10 PM</text></g><g transform="translate(160.71754321535556,0)" style="visibility: hidden;"><text transform="translate(3,14.171875)" style="text-anchor: start; font-family: &quot;Helvetica Neue&quot;, sans-serif; font-size: 12px; font-weight: 200;" fill="rgb(50, 49, 63)" stroke="none" stroke-width="1px">11 PM</text></g><g transform="translate(183.06632034997045,0)" style="visibility: hidden;"><text transform="translate(3,14.171875)" style="text-anchor: start; font-family: &quot;Helvetica Neue&quot;, sans-serif; font-size: 12px; font-weight: 200;" fill="rgb(50, 49, 63)" stroke="none" stroke-width="1px">12 AM</text></g><g transform="translate(205.4150974845853,0)" style="visibility: hidden;"><text transform="translate(3,14.171875)" style="text-anchor: start; font-family: &quot;Helvetica Neue&quot;, sans-serif; font-size: 12px; font-weight: 200;" fill="rgb(50, 49, 63)" stroke="none" stroke-width="1px">01 AM</text></g><g transform="translate(227.76387461920018,0)" style="visibility: hidden;"><text transform="translate(3,14.171875)" style="text-anchor: start; font-family: &quot;Helvetica Neue&quot;, sans-serif; font-size: 12px; font-weight: 200;" fill="rgb(50, 49, 63)" stroke="none" stroke-width="1px">02 AM</text></g><g transform="translate(250.11265175381504,0)" style="visibility: hidden;"><text transform="translate(3,14.171875)" style="text-anchor: start; font-family: &quot;Helvetica Neue&quot;, sans-serif; font-size: 12px; font-weight: 200;" fill="rgb(50, 49, 63)" stroke="none" stroke-width="1px">03 AM</text></g><g transform="translate(271.40625,0)" style="visibility: hidden;"><text transform="translate(3,14.171875)" style="text-anchor: start; font-family: &quot;Helvetica Neue&quot;, sans-serif; font-size: 12px; font-weight: 200;" fill="rgb(50, 49, 63)" stroke="none" stroke-width="1px">03 AM</text></g></g><g><line x1="0" y1="0" x2="0" y2="17.171875" fill="rgb(0, 0, 0)" stroke="rgb(204, 204, 204)" stroke-width="1px"></line><line x1="4.276103273051534" y1="0" x2="4.276103273051534" y2="17.171875" fill="rgb(0, 0, 0)" stroke="rgb(204, 204, 204)" stroke-width="1px"></line><line x1="26.624880407666396" y1="0" x2="26.624880407666396" y2="17.171875" fill="rgb(0, 0, 0)" stroke="rgb(204, 204, 204)" stroke-width="1px"></line><line x1="48.97365754228126" y1="0" x2="48.97365754228126" y2="17.171875" fill="rgb(0, 0, 0)" stroke="rgb(204, 204, 204)" stroke-width="1px"></line><line x1="71.32243467689612" y1="0" x2="71.32243467689612" y2="17.171875" fill="rgb(0, 0, 0)" stroke="rgb(204, 204, 204)" stroke-width="1px"></line><line x1="93.67121181151099" y1="0" x2="93.67121181151099" y2="17.171875" fill="rgb(0, 0, 0)" stroke="rgb(204, 204, 204)" stroke-width="1px"></line><line x1="116.01998894612585" y1="0" x2="116.01998894612585" y2="17.171875" fill="rgb(0, 0, 0)" stroke="rgb(204, 204, 204)" stroke-width="1px"></line><line x1="138.36876608074073" y1="0" x2="138.36876608074073" y2="17.171875" fill="rgb(0, 0, 0)" stroke="rgb(204, 204, 204)" stroke-width="1px"></line><line x1="160.71754321535556" y1="0" x2="160.71754321535556" y2="17.171875" fill="rgb(0, 0, 0)" stroke="rgb(204, 204, 204)" stroke-width="1px"></line><line x1="183.06632034997045" y1="0" x2="183.06632034997045" y2="17.171875" fill="rgb(0, 0, 0)" stroke="rgb(204, 204, 204)" stroke-width="1px"></line><line x1="205.4150974845853" y1="0" x2="205.4150974845853" y2="17.171875" fill="rgb(0, 0, 0)" stroke="rgb(204, 204, 204)" stroke-width="1px"></line><line x1="227.76387461920018" y1="0" x2="227.76387461920018" y2="17.171875" fill="rgb(0, 0, 0)" stroke="rgb(204, 204, 204)" stroke-width="1px"></line><line x1="250.11265175381504" y1="0" x2="250.11265175381504" y2="17.171875" fill="rgb(0, 0, 0)" stroke="rgb(204, 204, 204)" stroke-width="1px"></line><line x1="271.40625" y1="0" x2="271.40625" y2="17.171875" fill="rgb(0, 0, 0)" stroke="rgb(204, 204, 204)" stroke-width="1px"></line></g><line x1="0" y1="0" x2="271.40625" y2="0" style="visibility: inherit;" fill="rgb(0, 0, 0)" stroke="rgb(204, 204, 204)" stroke-width="1px"></line></g><g visibility="inherit"><g><g transform="translate(2.138051636525767,0)" style="visibility: hidden;"><text transform="translate(0,31.34375)" style="text-anchor: middle; font-family: &quot;Helvetica Neue&quot;, sans-serif; font-size: 12px; font-weight: 200;" fill="rgb(50, 49, 63)" stroke="none" stroke-width="1px">December  2, 2018</text></g><g transform="translate(15.450491840358968,0)" style="visibility: hidden;"><text transform="translate(0,31.34375)" style="text-anchor: middle; font-family: &quot;Helvetica Neue&quot;, sans-serif; font-size: 12px; font-weight: 200;" fill="rgb(50, 49, 63)" stroke="none" stroke-width="1px">December  2, 2018</text></g><g transform="translate(37.79926897497383,0)" style="visibility: hidden;"><text transform="translate(0,31.34375)" style="text-anchor: middle; font-family: &quot;Helvetica Neue&quot;, sans-serif; font-size: 12px; font-weight: 200;" fill="rgb(50, 49, 63)" stroke="none" stroke-width="1px">December  2, 2018</text></g><g transform="translate(60.14804610958869,0)" style="visibility: hidden;"><text transform="translate(0,31.34375)" style="text-anchor: middle; font-family: &quot;Helvetica Neue&quot;, sans-serif; font-size: 12px; font-weight: 200;" fill="rgb(50, 49, 63)" stroke="none" stroke-width="1px">December  2, 2018</text></g><g transform="translate(82.49682324420355,0)" style="visibility: hidden;"><text transform="translate(0,31.34375)" style="text-anchor: middle; font-family: &quot;Helvetica Neue&quot;, sans-serif; font-size: 12px; font-weight: 200;" fill="rgb(50, 49, 63)" stroke="none" stroke-width="1px">December  2, 2018</text></g><g transform="translate(104.84560037881842,0)" style="visibility: hidden;"><text transform="translate(0,31.34375)" style="text-anchor: middle; font-family: &quot;Helvetica Neue&quot;, sans-serif; font-size: 12px; font-weight: 200;" fill="rgb(50, 49, 63)" stroke="none" stroke-width="1px">December  2, 2018</text></g><g transform="translate(127.19437751343328,0)" style="visibility: hidden;"><text transform="translate(0,31.34375)" style="text-anchor: middle; font-family: &quot;Helvetica Neue&quot;, sans-serif; font-size: 12px; font-weight: 200;" fill="rgb(50, 49, 63)" stroke="none" stroke-width="1px">December  2, 2018</text></g><g transform="translate(149.54315464804816,0)" style="visibility: hidden;"><text transform="translate(0,31.34375)" style="text-anchor: middle; font-family: &quot;Helvetica Neue&quot;, sans-serif; font-size: 12px; font-weight: 200;" fill="rgb(50, 49, 63)" stroke="none" stroke-width="1px">December  2, 2018</text></g><g transform="translate(171.891931782663,0)" style="visibility: hidden;"><text transform="translate(0,31.34375)" style="text-anchor: middle; font-family: &quot;Helvetica Neue&quot;, sans-serif; font-size: 12px; font-weight: 200;" fill="rgb(50, 49, 63)" stroke="none" stroke-width="1px">December  2, 2018</text></g><g transform="translate(194.24070891727789,0)" style="visibility: hidden;"><text transform="translate(0,31.34375)" style="text-anchor: middle; font-family: &quot;Helvetica Neue&quot;, sans-serif; font-size: 12px; font-weight: 200;" fill="rgb(50, 49, 63)" stroke="none" stroke-width="1px">December  3, 2018</text></g><g transform="translate(216.58948605189272,0)" style="visibility: hidden;"><text transform="translate(0,31.34375)" style="text-anchor: middle; font-family: &quot;Helvetica Neue&quot;, sans-serif; font-size: 12px; font-weight: 200;" fill="rgb(50, 49, 63)" stroke="none" stroke-width="1px">December  3, 2018</text></g><g transform="translate(238.9382631865076,0)" style="visibility: hidden;"><text transform="translate(0,31.34375)" style="text-anchor: middle; font-family: &quot;Helvetica Neue&quot;, sans-serif; font-size: 12px; font-weight: 200;" fill="rgb(50, 49, 63)" stroke="none" stroke-width="1px">December  3, 2018</text></g><g transform="translate(260.7594477729107,0)" style="visibility: hidden;"><text transform="translate(0,31.34375)" style="text-anchor: middle; font-family: &quot;Helvetica Neue&quot;, sans-serif; font-size: 12px; font-weight: 200;" fill="rgb(50, 49, 63)" stroke="none" stroke-width="1px">December  3, 2018</text></g></g><g><line x1="0" y1="17.171875" x2="0" y2="34.34375" fill="rgb(0, 0, 0)" stroke="rgb(204, 204, 204)" stroke-width="1px"></line><line x1="4.276103273051534" y1="17.171875" x2="4.276103273051534" y2="34.34375" fill="rgb(0, 0, 0)" stroke="rgb(204, 204, 204)" stroke-width="1px"></line><line x1="26.624880407666396" y1="17.171875" x2="26.624880407666396" y2="34.34375" fill="rgb(0, 0, 0)" stroke="rgb(204, 204, 204)" stroke-width="1px"></line><line x1="48.97365754228126" y1="17.171875" x2="48.97365754228126" y2="34.34375" fill="rgb(0, 0, 0)" stroke="rgb(204, 204, 204)" stroke-width="1px"></line><line x1="71.32243467689612" y1="17.171875" x2="71.32243467689612" y2="34.34375" fill="rgb(0, 0, 0)" stroke="rgb(204, 204, 204)" stroke-width="1px"></line><line x1="93.67121181151099" y1="17.171875" x2="93.67121181151099" y2="34.34375" fill="rgb(0, 0, 0)" stroke="rgb(204, 204, 204)" stroke-width="1px"></line><line x1="116.01998894612585" y1="17.171875" x2="116.01998894612585" y2="34.34375" fill="rgb(0, 0, 0)" stroke="rgb(204, 204, 204)" stroke-width="1px"></line><line x1="138.36876608074073" y1="17.171875" x2="138.36876608074073" y2="34.34375" fill="rgb(0, 0, 0)" stroke="rgb(204, 204, 204)" stroke-width="1px"></line><line x1="160.71754321535556" y1="17.171875" x2="160.71754321535556" y2="34.34375" fill="rgb(0, 0, 0)" stroke="rgb(204, 204, 204)" stroke-width="1px"></line><line x1="183.06632034997045" y1="17.171875" x2="183.06632034997045" y2="34.34375" fill="rgb(0, 0, 0)" stroke="rgb(204, 204, 204)" stroke-width="1px"></line><line x1="205.4150974845853" y1="17.171875" x2="205.4150974845853" y2="34.34375" fill="rgb(0, 0, 0)" stroke="rgb(204, 204, 204)" stroke-width="1px"></line><line x1="227.76387461920018" y1="17.171875" x2="227.76387461920018" y2="34.34375" fill="rgb(0, 0, 0)" stroke="rgb(204, 204, 204)" stroke-width="1px"></line><line x1="250.11265175381504" y1="17.171875" x2="250.11265175381504" y2="34.34375" fill="rgb(0, 0, 0)" stroke="rgb(204, 204, 204)" stroke-width="1px"></line><line x1="271.40625" y1="17.171875" x2="271.40625" y2="34.34375" fill="rgb(0, 0, 0)" stroke="rgb(204, 204, 204)" stroke-width="1px"></line></g><line x1="0" y1="17.171875" x2="271.40625" y2="17.171875" style="visibility: inherit;" fill="rgb(0, 0, 0)" stroke="rgb(204, 204, 204)" stroke-width="1px"></line></g></g></g></g></g></svg>